<svg width="218" height="165" viewBox="0 0 218 165" fill="none" xmlns="http://www.w3.org/2000/svg">
<g filter="url(#filter0_d_178_659)">
<path d="M213.797 137.425H4.88867V137.529H213.797V137.425Z" fill="#E6E6E6"/>
<path d="M182.088 143.283H177.655V143.387H182.088V143.283Z" fill="#E6E6E6"/>
<path d="M174.588 143.333H156.56V143.437H174.588V143.333Z" fill="#E6E6E6"/>
<path d="M134.275 142.339H103.85V142.444H134.275V142.339Z" fill="#E6E6E6"/>
<path d="M86.3452 144.152H76.6895V144.256H86.3452V144.152Z" fill="#E6E6E6"/>
<path d="M54.1709 142.389H40.876V142.494H54.1709V142.389Z" fill="#E6E6E6"/>
<path d="M68.9141 142.39H56.4883V142.494H68.9141V142.39Z" fill="#E6E6E6"/>
<path d="M44.8571 140.565H32.168V140.669H44.8571V140.565Z" fill="#E6E6E6"/>
<path d="M103.911 118.802H23.2351C22.6031 118.801 21.9973 118.549 21.5508 118.102C21.1043 117.655 20.8535 117.05 20.8535 116.418V3.08329C20.859 2.45531 21.1122 1.85485 21.5581 1.41235C22.0041 0.969855 22.6067 0.721046 23.2351 0.719971H103.911C104.544 0.719971 105.151 0.971162 105.598 1.41828C106.046 1.86541 106.297 2.47184 106.297 3.10416V116.418C106.297 117.05 106.046 117.657 105.598 118.104C105.151 118.551 104.544 118.802 103.911 118.802ZM23.2351 0.80348C22.6308 0.804586 22.0516 1.04527 21.6247 1.47269C21.1977 1.90012 20.958 2.47937 20.958 3.08329V116.418C20.958 117.022 21.1977 117.601 21.6247 118.029C22.0516 118.456 22.6308 118.697 23.2351 118.698H103.911C104.516 118.697 105.096 118.456 105.523 118.029C105.951 117.602 106.191 117.022 106.193 116.418V3.08329C106.191 2.47898 105.951 1.89975 105.523 1.47244C105.096 1.04513 104.516 0.804584 103.911 0.80348H23.2351Z" fill="#E6E6E6"/>
<path d="M194.29 118.802H113.609C112.977 118.801 112.371 118.55 111.924 118.103C111.476 117.656 111.225 117.05 111.224 116.418V3.08329C111.23 2.45493 111.484 1.85448 111.931 1.41209C112.378 0.969709 112.981 0.721035 113.609 0.719971H194.29C194.917 0.722144 195.519 0.971438 195.964 1.41382C196.409 1.8562 196.662 2.45603 196.667 3.08329V116.418C196.667 117.049 196.417 117.654 195.971 118.101C195.526 118.548 194.921 118.8 194.29 118.802ZM113.609 0.80348C113.005 0.804584 112.425 1.04513 111.997 1.47244C111.57 1.89975 111.329 2.47898 111.328 3.08329V116.418C111.329 117.022 111.57 117.602 111.997 118.029C112.425 118.456 113.005 118.697 113.609 118.698H194.29C194.894 118.697 195.474 118.456 195.902 118.029C196.329 117.602 196.57 117.022 196.571 116.418V3.08329C196.57 2.47898 196.329 1.89975 195.902 1.47244C195.474 1.04513 194.894 0.804584 194.29 0.80348H113.609Z" fill="#E6E6E6"/>
<path d="M92.5623 9.68457H27.4873V66.2748H92.5623V9.68457Z" fill="#E6E6E6"/>
<path d="M95.2289 9.68457H28.7334V66.2748H95.2289V9.68457Z" fill="#F0F0F0"/>
<path d="M92.5623 66.2749H27.4873V68.5464H92.5623V66.2749Z" fill="#E6E6E6"/>
<path d="M99.6664 66.2749H33.1709V68.5464H99.6664V66.2749Z" fill="#F0F0F0"/>
<path d="M91.502 62.5508V13.4097L32.4645 13.4097V62.5508L91.502 62.5508Z" fill="#FAFAFA"/>
<path d="M42.0234 62.5505L53.4131 13.4094H69.0437L57.654 62.5505H42.0234Z" fill="white"/>
<path d="M34.6121 54.337C34.5412 54.337 34.4732 54.3088 34.423 54.2587C34.3729 54.2086 34.3447 54.1406 34.3447 54.0697V15.8307C34.3447 15.7598 34.3729 15.6919 34.423 15.6417C34.4732 15.5916 34.5412 15.5635 34.6121 15.5635C34.683 15.5635 34.7511 15.5916 34.8012 15.6417C34.8513 15.6919 34.8795 15.7598 34.8795 15.8307V54.0697C34.8795 54.1406 34.8513 54.2086 34.8012 54.2587C34.7511 54.3088 34.683 54.337 34.6121 54.337Z" fill="#E6E6E6"/>
<path d="M60.8584 62.5505L72.2481 13.4094H77.6547L66.265 62.5505H60.8584Z" fill="white"/>
<path d="M91.498 62.546V13.4048H91.0259V62.546H91.498Z" fill="#E6E6E6"/>
<path d="M96.1099 13.8149H31.035L30.6924 12.6826H95.7673L96.1099 13.8149Z" fill="#E0E0E0"/>
<path d="M96.1099 15.6814H31.035L30.6924 14.5491H95.7673L96.1099 15.6814Z" fill="#E0E0E0"/>
<path d="M96.1099 17.5478H31.035L30.6924 16.4155H95.7673L96.1099 17.5478Z" fill="#E0E0E0"/>
<path d="M96.1099 19.414H31.035L30.6924 18.2817H95.7673L96.1099 19.414Z" fill="#E0E0E0"/>
<path d="M96.1099 21.2807H31.035L30.6924 20.1484H95.7673L96.1099 21.2807Z" fill="#E0E0E0"/>
<path d="M96.1099 23.1469H31.035L30.6924 22.0146H95.7673L96.1099 23.1469Z" fill="#E0E0E0"/>
<path d="M173.348 13.3672H145.985V62.1158H173.348V13.3672Z" fill="#E6E6E6"/>
<path d="M161.398 15.9435C160.986 15.9394 160.584 15.8134 160.243 15.5815C159.903 15.3496 159.638 15.0221 159.483 14.6403C159.328 14.2585 159.29 13.8394 159.373 13.4358C159.456 13.0322 159.656 12.6621 159.949 12.3722C160.242 12.0823 160.615 11.8856 161.019 11.8067C161.424 11.7278 161.843 11.7704 162.223 11.929C162.604 12.0876 162.929 12.3552 163.158 12.698C163.386 13.0409 163.508 13.4437 163.508 13.8557C163.503 14.4113 163.278 14.9423 162.883 15.3333C162.488 15.7242 161.954 15.9435 161.398 15.9435ZM161.398 12.1438C161.069 12.1479 160.748 12.2493 160.476 12.4353C160.203 12.6213 159.993 12.8836 159.869 13.1891C159.746 13.4947 159.716 13.8298 159.783 14.1524C159.849 14.475 160.01 14.7707 160.245 15.0022C160.479 15.2337 160.777 15.3907 161.101 15.4534C161.424 15.5162 161.759 15.4819 162.063 15.3549C162.368 15.2279 162.627 15.0139 162.81 14.7397C162.993 14.4655 163.09 14.1434 163.09 13.814C163.09 13.5929 163.047 13.374 162.961 13.1699C162.876 12.9659 162.751 12.7809 162.594 12.6255C162.436 12.4701 162.249 12.3476 162.044 12.2649C161.839 12.1822 161.62 12.141 161.398 12.1438Z" fill="#E0E0E0"/>
<path d="M176.307 13.3672H148.046V62.1158H176.307V13.3672Z" fill="#F0F0F0"/>
<path d="M173.942 59.7484V15.7305L150.415 15.7305V59.7484H173.942Z" fill="#FAFAFA"/>
<path d="M173.942 59.7484V15.7305H173.65V59.7484H173.942Z" fill="#E0E0E0"/>
<path d="M153.113 79.4526C153.113 79.4526 153.406 84.3672 164.582 84.3672C175.759 84.3672 176.047 79.4526 176.047 79.4526H153.113Z" fill="#E6E6E6"/>
<path d="M130.51 88.2256H119.095V135.208H130.51V88.2256Z" fill="#E6E6E6"/>
<path d="M180.928 135.208H121.289V137.425H180.928V135.208Z" fill="#E6E6E6"/>
<path d="M130.51 135.208H183.117V88.2252H130.51V135.208Z" fill="#F5F5F5"/>
<path d="M134.996 117.454H178.629V105.979H134.996V117.454Z" fill="#E6E6E6"/>
<path d="M134.996 131.024H178.629V119.55H134.996V131.024Z" fill="#E6E6E6"/>
<path d="M163.338 107.237H150.289C150.081 107.237 149.881 107.155 149.734 107.007C149.587 106.86 149.504 106.66 149.504 106.452C149.504 106.243 149.587 106.043 149.734 105.895C149.881 105.747 150.081 105.663 150.289 105.662H163.338C163.547 105.663 163.746 105.747 163.893 105.895C164.041 106.043 164.123 106.243 164.123 106.452C164.123 106.66 164.041 106.86 163.893 107.007C163.746 107.155 163.546 107.237 163.338 107.237Z" fill="#F5F5F5"/>
<path d="M134.996 103.883H178.629V92.4086H134.996V103.883Z" fill="#E6E6E6"/>
<path d="M163.338 93.6703H150.289C150.081 93.6692 149.881 93.5856 149.734 93.4377C149.587 93.2899 149.504 93.0898 149.504 92.8812C149.504 92.673 149.587 92.4733 149.734 92.3261C149.881 92.1789 150.081 92.0962 150.289 92.0962H163.338C163.546 92.0962 163.746 92.1789 163.893 92.3261C164.041 92.4733 164.123 92.673 164.123 92.8812C164.123 93.0898 164.041 93.2899 163.893 93.4377C163.746 93.5856 163.547 93.6692 163.338 93.6703Z" fill="#F5F5F5"/>
<path d="M163.338 120.808H150.289C150.081 120.806 149.881 120.723 149.734 120.575C149.587 120.427 149.504 120.227 149.504 120.018C149.504 119.81 149.587 119.61 149.734 119.462C149.881 119.315 150.081 119.232 150.289 119.232H163.338C163.546 119.232 163.746 119.315 163.893 119.462C164.041 119.61 164.123 119.81 164.123 120.018C164.123 120.227 164.041 120.427 163.893 120.575C163.746 120.723 163.547 120.806 163.338 120.808Z" fill="#F5F5F5"/>
<path d="M184.638 84.3669H130.51V88.2251H184.638V84.3669Z" fill="#EBEBEB"/>
<path d="M117.499 88.2295H130.51V84.3713H117.499V88.2295Z" fill="#E0E0E0"/>
<path d="M123.488 84.3669H134.832V70.78H123.488V84.3669Z" fill="#E6E6E6"/>
<path d="M154.962 70.7842H134.832V84.3712H154.962V70.7842Z" fill="#FAFAFA"/>
<path d="M149.541 77.9659C149.541 78.9388 147.452 79.7238 144.899 79.7238C142.347 79.7238 140.262 78.9263 140.262 77.9659C140.262 77.0055 142.351 76.208 144.908 76.208C147.465 76.208 149.541 76.9847 149.541 77.9659Z" fill="white"/>
<g style="mix-blend-mode:multiply" opacity="0.7">
<path d="M123.49 73.4526H155.081V72.5209H123.49V73.4526Z" fill="#E0E0E0"/>
</g>
<path d="M122.859 72.918H134.829V70.2206H122.859V72.918Z" fill="#E6E6E6"/>
<path d="M155.585 70.2161H134.832V72.9135H155.585V70.2161Z" fill="#FAFAFA"/>
<path d="M77.5214 77.5735H34.2773L36.9764 137.425H80.2205L77.5214 77.5735Z" fill="#E6E6E6"/>
<path d="M78.1483 77.5735H34.9043L37.6034 137.425H80.8474L78.1483 77.5735Z" fill="#FAFAFA"/>
<path d="M44.4385 137.425H55.7822V123.838H44.4385V137.425Z" fill="#E0E0E0"/>
<path d="M110.09 123.838H55.7861V137.425H110.09V123.838Z" fill="#F0F0F0"/>
<g style="mix-blend-mode:multiply" opacity="0.7">
<path d="M44.4395 126.51L110.208 126.51V125.579L44.4395 125.579V126.51Z" fill="#E0E0E0"/>
</g>
<path d="M43.8157 125.971H55.7861V123.274H43.8157V125.971Z" fill="#E0E0E0"/>
<path d="M110.716 123.274H55.7861V125.972H110.716V123.274Z" fill="#F0F0F0"/>
<path d="M53.844 123.274H68.6055V98.7266H53.844V123.274Z" fill="#E6E6E6"/>
<path d="M105.485 98.7266H68.6006V123.274H105.485V98.7266Z" fill="#EBEBEB"/>
<g style="mix-blend-mode:multiply" opacity="0.7">
<path d="M53.8397 102.201H105.641V100.989H53.8397V102.201Z" fill="#E0E0E0"/>
</g>
<path d="M53.0293 101.499H68.6055V95.9206H53.0293V101.499Z" fill="#E6E6E6"/>
<path d="M106.3 95.9207H68.6006V101.499H106.3V95.9207Z" fill="#EBEBEB"/>
<path d="M37.3997 137.425C43.1616 137.425 47.8325 132.757 47.8325 126.999C47.8325 121.24 43.1616 116.573 37.3997 116.573C31.6377 116.573 26.9668 121.24 26.9668 126.999C26.9668 132.757 31.6377 137.425 37.3997 137.425Z" fill="#F0F0F0"/>
<g style="mix-blend-mode:multiply" opacity="0.7">
<path d="M32.2894 120.781C32.9078 120.138 33.1585 119.37 32.8409 119.069C32.5234 118.769 31.7672 119.04 31.1488 119.683C30.5304 120.326 30.2798 121.095 30.5931 121.399C30.9065 121.704 31.6669 121.429 32.2894 120.781Z" fill="#E0E0E0"/>
</g>
<g style="mix-blend-mode:multiply" opacity="0.7">
<path d="M36.6415 118.828C37.5189 118.661 38.1665 118.176 38.083 117.746C37.9994 117.316 37.2223 117.103 36.3407 117.274C35.4591 117.446 34.8199 117.926 34.8992 118.356C34.9786 118.786 35.7432 118.999 36.6415 118.828Z" fill="#E0E0E0"/>
</g>
<g style="mix-blend-mode:multiply" opacity="0.7">
<path d="M35.7319 122.468C36.5676 122.172 37.1149 121.512 36.9311 120.994C36.7472 120.477 35.9158 120.297 35.0718 120.577C34.2278 120.857 33.693 121.533 33.8726 122.051C34.0523 122.569 34.8879 122.765 35.7319 122.468Z" fill="#E0E0E0"/>
</g>
<path d="M109.341 156.281C154.082 156.281 190.352 154.165 190.352 151.555C190.352 148.944 154.082 146.828 109.341 146.828C64.6007 146.828 28.3311 148.944 28.3311 151.555C28.3311 154.165 64.6007 156.281 109.341 156.281Z" fill="#F5F5F5"/>
<path d="M133.258 24.2861H85.1759C81.8022 24.2861 79.0674 27.0192 79.0674 30.3907V145.446C79.0674 148.817 81.8022 151.55 85.1759 151.55H133.258C136.632 151.55 139.367 148.817 139.367 145.446V30.3907C139.367 27.0192 136.632 24.2861 133.258 24.2861Z" fill="#53B175"/>
<path opacity="0.7" d="M133.258 24.2861H85.1759C81.8022 24.2861 79.0674 27.0192 79.0674 30.3907V145.446C79.0674 148.817 81.8022 151.55 85.1759 151.55H133.258C136.632 151.55 139.367 148.817 139.367 145.446V30.3907C139.367 27.0192 136.632 24.2861 133.258 24.2861Z" fill="white"/>
<path d="M134.872 24.0693H86.7901C83.4165 24.0693 80.6816 26.8024 80.6816 30.1739V145.229C80.6816 148.6 83.4165 151.334 86.7901 151.334H134.872C138.246 151.334 140.981 148.6 140.981 145.229V30.1739C140.981 26.8024 138.246 24.0693 134.872 24.0693Z" fill="#53B175"/>
<path opacity="0.2" d="M134.872 24.0693H86.7901C83.4165 24.0693 80.6816 26.8024 80.6816 30.1739V145.229C80.6816 148.6 83.4165 151.334 86.7901 151.334H134.872C138.246 151.334 140.981 148.6 140.981 145.229V30.1739C140.981 26.8024 138.246 24.0693 134.872 24.0693Z" fill="black"/>
<path d="M113.182 145.726C113.183 146.264 113.024 146.79 112.726 147.238C112.427 147.685 112.002 148.034 111.505 148.24C111.008 148.447 110.461 148.501 109.933 148.396C109.405 148.291 108.92 148.032 108.539 147.652C108.158 147.272 107.899 146.787 107.794 146.259C107.689 145.732 107.744 145.185 107.95 144.688C108.156 144.191 108.506 143.766 108.954 143.468C109.402 143.17 109.928 143.011 110.466 143.012C111.187 143.012 111.877 143.298 112.387 143.807C112.896 144.316 113.182 145.006 113.182 145.726Z" fill="#53B175"/>
<path opacity="0.4" d="M113.182 145.726C113.183 146.264 113.024 146.79 112.726 147.238C112.427 147.685 112.002 148.034 111.505 148.24C111.008 148.447 110.461 148.501 109.933 148.396C109.405 148.291 108.92 148.032 108.539 147.652C108.158 147.272 107.899 146.787 107.794 146.259C107.689 145.732 107.744 145.185 107.95 144.688C108.156 144.191 108.506 143.766 108.954 143.468C109.402 143.17 109.928 143.011 110.466 143.012C111.187 143.012 111.877 143.298 112.387 143.807C112.896 144.316 113.182 145.006 113.182 145.726Z" fill="black"/>
<path d="M140.496 141.746H80.4971V32.3823H140.913L140.496 141.746Z" fill="#53B175"/>
<path opacity="0.8" d="M141.027 141.688L80.4648 141.759V32.3908L140.973 32.3281L141.027 141.688Z" fill="white"/>
<path opacity="0.33" d="M75.9296 34.2153H75.5117V39.7354H75.9296V34.2153Z" fill="#53B175"/>
<path opacity="0.33" d="M75.9296 41.2681H75.5117V42.9966H75.9296V41.2681Z" fill="#53B175"/>
<path d="M127.936 36.9089H86.3172C84.0235 36.9089 82.1641 38.7671 82.1641 41.0594V65.8867C82.1641 68.1789 84.0235 70.0371 86.3172 70.0371H127.936C130.23 70.0371 132.089 68.1789 132.089 65.8867V41.0594C132.089 38.7671 130.23 36.9089 127.936 36.9089Z" fill="white"/>
<path opacity="0.27" d="M91.9426 49.6595C94.7592 48.4826 96.0878 45.2467 94.9102 42.432C93.7326 39.6172 90.4946 38.2894 87.678 39.4663C84.8614 40.6431 83.5328 43.879 84.7104 46.6938C85.888 49.5086 89.126 50.8364 91.9426 49.6595Z" fill="#53B175"/>
<path d="M94.3761 44.5625C94.3795 45.3213 94.1897 46.0685 93.8245 46.7337C93.2944 47.7109 92.4254 48.4609 91.3808 48.8428C90.3363 49.2246 89.1881 49.212 88.1522 48.8072C87.1163 48.4025 86.264 47.6335 85.7556 46.6449C85.2471 45.6563 85.1176 44.5161 85.3912 43.4387C85.6649 42.3614 86.3229 41.421 87.2417 40.7944C88.1604 40.1679 89.2765 39.8982 90.3801 40.0363C91.4837 40.1743 92.4989 40.7105 93.2348 41.544C93.9707 42.3775 94.3765 43.4509 94.3761 44.5625Z" fill="white"/>
<path opacity="0.27" d="M93.8248 46.7297C93.4332 47.4516 92.8538 48.0544 92.1478 48.4744C91.4418 48.8945 90.6354 49.1162 89.8138 49.1162C88.9921 49.1162 88.1857 48.8945 87.4797 48.4744C86.7737 48.0544 86.1943 47.4516 85.8027 46.7297C86.9902 45.9375 88.386 45.5146 89.8138 45.5146C91.2416 45.5146 92.6373 45.9375 93.8248 46.7297Z" fill="#53B175"/>
<path opacity="0.27" d="M89.8129 45.0261C90.9344 45.0261 91.8435 44.1175 91.8435 42.9968C91.8435 41.8761 90.9344 40.9675 89.8129 40.9675C88.6914 40.9675 87.7822 41.8761 87.7822 42.9968C87.7822 44.1175 88.6914 45.0261 89.8129 45.0261Z" fill="#53B175"/>
<path d="M129.026 73.0977H85.2267C83.5352 73.0977 82.1641 74.4679 82.1641 76.1583V81.6323C82.1641 83.3227 83.5352 84.6929 85.2267 84.6929H129.026C130.718 84.6929 132.089 83.3227 132.089 81.6323V76.1583C132.089 74.4679 130.718 73.0977 129.026 73.0977Z" fill="white"/>
<path opacity="0.6" d="M140.575 85.8158L146.478 102.075C146.63 102.5 146.608 102.969 146.416 103.378C146.225 103.787 145.879 104.103 145.455 104.259L114.482 115.487C114.057 115.639 113.589 115.617 113.18 115.427C112.77 115.236 112.453 114.891 112.297 114.468L106.393 98.2044C106.24 97.7797 106.262 97.3116 106.454 96.903C106.645 96.4943 106.992 96.1785 107.417 96.0248L138.389 84.7928C138.815 84.6407 139.283 84.6629 139.693 84.8545C140.102 85.0462 140.419 85.3917 140.575 85.8158Z" fill="#53B175"/>
<path d="M139.638 84.8309L130.785 99.3907C129.965 100.741 128.708 101.77 127.222 102.309C125.737 102.847 124.112 102.862 122.617 102.351L106.48 96.8479C106.675 96.4607 107.01 96.1621 107.416 96.0128L138.389 84.7808C138.797 84.6396 139.243 84.6575 139.638 84.8309Z" fill="#53B175"/>
<path opacity="0.5" d="M139.638 84.8309L130.785 99.3907C129.965 100.741 128.708 101.77 127.222 102.309C125.737 102.847 124.112 102.862 122.617 102.351L106.48 96.8479C106.675 96.4607 107.01 96.1621 107.416 96.0128L138.389 84.7808C138.797 84.6396 139.243 84.6575 139.638 84.8309Z" fill="white"/>
<path opacity="0.6" d="M130.859 113.763L130.575 128.41C130.567 128.792 130.407 129.155 130.132 129.42C129.856 129.686 129.487 129.831 129.105 129.826L101.199 129.283C101.009 129.279 100.823 129.238 100.649 129.162C100.476 129.086 100.319 128.977 100.188 128.84C100.057 128.704 99.9538 128.543 99.8849 128.367C99.816 128.19 99.7826 128.002 99.7864 127.813L100.066 113.165C100.071 112.967 100.117 112.772 100.199 112.592C100.282 112.412 100.4 112.251 100.547 112.117C100.819 111.875 101.172 111.743 101.537 111.75L129.443 112.289C129.826 112.297 130.19 112.457 130.456 112.734C130.721 113.01 130.866 113.38 130.859 113.763Z" fill="#53B175"/>
<path d="M130.42 112.698L118.989 121.516C117.929 122.333 116.621 122.765 115.283 122.739C113.944 122.713 112.655 122.232 111.627 121.374L100.567 112.117C100.839 111.875 101.193 111.743 101.558 111.75L129.464 112.289C129.822 112.302 130.163 112.447 130.42 112.698Z" fill="#53B175"/>
<path opacity="0.5" d="M130.42 112.698L118.989 121.516C117.929 122.333 116.621 122.765 115.283 122.739C113.944 122.713 112.655 122.232 111.627 121.374L100.567 112.117C100.839 111.875 101.193 111.743 101.558 111.75L129.464 112.289C129.822 112.302 130.163 112.447 130.42 112.698Z" fill="white"/>
<path d="M102.71 27.5143C102.711 27.3245 102.768 27.1392 102.874 26.9819C102.98 26.8245 103.13 26.7021 103.306 26.63C103.482 26.558 103.675 26.5395 103.861 26.5771C104.047 26.6146 104.218 26.7064 104.352 26.8409C104.486 26.9753 104.577 27.1464 104.614 27.3326C104.651 27.5188 104.631 27.7117 104.558 27.8869C104.486 28.0621 104.362 28.2119 104.204 28.3172C104.046 28.4225 103.861 28.4788 103.671 28.4788C103.544 28.4788 103.419 28.4538 103.302 28.4053C103.185 28.3567 103.079 28.2856 102.99 28.196C102.901 28.1064 102.83 28 102.782 27.883C102.734 27.766 102.709 27.6407 102.71 27.5143Z" fill="#53B175"/>
<path d="M106.995 26.5537H114.98C115.234 26.5548 115.478 26.6563 115.658 26.8362C115.838 27.0161 115.939 27.2597 115.941 27.5141C115.941 27.7692 115.839 28.0139 115.659 28.1947C115.479 28.3754 115.235 28.4775 114.98 28.4786H106.995C106.74 28.4775 106.495 28.3754 106.315 28.1947C106.135 28.0139 106.034 27.7692 106.034 27.5141C106.035 27.2597 106.137 27.0161 106.317 26.8362C106.497 26.6563 106.741 26.5548 106.995 26.5537Z" fill="#53B175"/>
<path opacity="0.4" d="M102.71 27.5143C102.711 27.3245 102.768 27.1392 102.874 26.9819C102.98 26.8245 103.13 26.7021 103.306 26.63C103.482 26.558 103.675 26.5395 103.861 26.5771C104.047 26.6146 104.218 26.7064 104.352 26.8409C104.486 26.9753 104.577 27.1464 104.614 27.3326C104.651 27.5188 104.631 27.7117 104.558 27.8869C104.486 28.0621 104.362 28.2119 104.204 28.3172C104.046 28.4225 103.861 28.4788 103.671 28.4788C103.544 28.4788 103.419 28.4538 103.302 28.4053C103.185 28.3567 103.079 28.2856 102.99 28.196C102.901 28.1064 102.83 28 102.782 27.883C102.734 27.766 102.709 27.6407 102.71 27.5143Z" fill="black"/>
<path opacity="0.4" d="M106.995 26.5537H114.98C115.234 26.5548 115.478 26.6563 115.658 26.8362C115.838 27.0161 115.939 27.2597 115.941 27.5141C115.941 27.7692 115.839 28.0139 115.659 28.1947C115.479 28.3754 115.235 28.4775 114.98 28.4786H106.995C106.74 28.4775 106.495 28.3754 106.315 28.1947C106.135 28.0139 106.034 27.7692 106.034 27.5141C106.035 27.2597 106.137 27.0161 106.317 26.8362C106.497 26.6563 106.741 26.5548 106.995 26.5537Z" fill="black"/>
<path d="M141.063 45.9026H137.082C136.156 45.9026 135.406 46.6522 135.406 47.5769V59.6983C135.406 60.623 136.156 61.3727 137.082 61.3727H141.063C141.989 61.3727 142.739 60.623 142.739 59.6983V47.5769C142.739 46.6522 141.989 45.9026 141.063 45.9026Z" fill="#53B175"/>
<path opacity="0.8" d="M141.063 45.9026H137.082C136.156 45.9026 135.406 46.6522 135.406 47.5769V59.6983C135.406 60.623 136.156 61.3727 137.082 61.3727H141.063C141.989 61.3727 142.739 60.623 142.739 59.6983V47.5769C142.739 46.6522 141.989 45.9026 141.063 45.9026Z" fill="white"/>
<path d="M141.481 65.8364H136.664C135.969 65.8364 135.406 66.3991 135.406 67.0933V73.3064C135.406 74.0005 135.969 74.5632 136.664 74.5632H141.481C142.176 74.5632 142.739 74.0005 142.739 73.3064V67.0933C142.739 66.3991 142.176 65.8364 141.481 65.8364Z" fill="#53B175"/>
<path opacity="0.8" d="M141.481 65.8364H136.664C135.969 65.8364 135.406 66.3991 135.406 67.0933V73.3064C135.406 74.0005 135.969 74.5632 136.664 74.5632H141.481C142.176 74.5632 142.739 74.0005 142.739 73.3064V67.0933C142.739 66.3991 142.176 65.8364 141.481 65.8364Z" fill="white"/>
<path d="M88.0254 138.69L91.0963 138.987L94.2926 131.684L91.2217 131.383L88.0254 138.69Z" fill="#E4897B"/>
<path d="M56.8525 116.322L58.6032 118.973L65.3134 115.771L63.5585 113.115L56.8525 116.322Z" fill="#E4897B"/>
<path d="M94.2932 131.684L92.647 135.45H89.4424L91.2181 131.383L94.2932 131.684Z" fill="#CE6F64"/>
<path d="M63.5592 113.12L65.3098 115.771L61.8544 117.42L60.0996 114.769L63.5592 113.12Z" fill="#CE6F64"/>
<path d="M122.559 63.9449L122.659 64.1704L122.789 64.4335C122.873 64.6088 122.969 64.7884 123.065 64.9679C123.261 65.3229 123.483 65.6819 123.691 66.0243C124.131 66.7253 124.616 67.3975 125.141 68.0369C125.676 68.6702 126.247 69.2724 126.85 69.8407C127.164 70.1163 127.469 70.4002 127.794 70.6758L128.283 71.06L128.396 71.1518C128.343 71.1353 128.288 71.1241 128.233 71.1184C128.112 71.106 127.99 71.1247 127.878 71.1727C127.81 71.1926 127.749 71.2317 127.702 71.2854C127.673 71.3272 127.748 71.2604 127.811 71.1518C127.976 70.8474 128.107 70.5252 128.2 70.1915C128.429 69.3805 128.609 68.5565 128.739 67.7238C128.881 66.8636 128.998 65.9826 129.09 65.1016C129.182 64.2205 129.278 63.3228 129.361 62.446L130.974 62.4209C131.074 63.352 131.116 64.2581 131.154 65.1851C131.191 66.112 131.175 67.0306 131.154 67.9701C131.117 68.9361 131.006 69.8978 130.824 70.847C130.718 71.3938 130.548 71.9264 130.318 72.4337C130.151 72.7927 129.922 73.1193 129.641 73.3982C129.424 73.6029 129.168 73.7631 128.889 73.8701C128.564 73.9917 128.215 74.0346 127.87 73.9953C127.59 73.9586 127.318 73.8738 127.067 73.7448C126.967 73.6943 126.869 73.6386 126.775 73.5778L126.616 73.4734L126.006 73.0558C125.588 72.7803 125.221 72.4754 124.84 72.1706C124.089 71.5433 123.384 70.8623 122.73 70.133C122.082 69.3973 121.486 68.6173 120.946 67.7989C120.679 67.3814 120.432 66.9638 120.194 66.5463C120.077 66.325 119.965 66.1078 119.856 65.8782L119.697 65.5233C119.643 65.398 119.601 65.2978 119.534 65.1266L122.559 63.9449Z" fill="#E4897B"/>
<path d="M123.971 66.104L121.163 69.9747L122.325 71.1146L125.312 67.5237L123.971 66.104Z" fill="#F5F5F5"/>
<path d="M119.566 60.9971C122.729 61.8322 124.91 66.2666 124.91 66.2666L121.258 71.3815C121.258 71.3815 116.863 65.8574 116.976 64.112C117.084 62.2832 117.661 60.4836 119.566 60.9971Z" fill="#53B175"/>
<path opacity="0.7" d="M119.566 60.9971C122.729 61.8322 124.91 66.2666 124.91 66.2666L121.258 71.3815C121.258 71.3815 116.863 65.8574 116.976 64.112C117.084 62.2832 117.661 60.4836 119.566 60.9971Z" fill="white"/>
<path d="M122.295 62.6298C122.295 62.6298 123.335 63.8574 111.294 78.4214L100.15 71.8993C102.992 67.4775 104.634 64.6841 107.913 54.1118C109.665 54.7007 111.372 55.4167 113.019 56.2538C114.767 57.134 116.459 58.1227 118.083 59.2142C120.139 60.684 122.295 62.6298 122.295 62.6298Z" fill="#53B175"/>
<path opacity="0.7" d="M122.295 62.6298C122.295 62.6298 123.335 63.8574 111.294 78.4214L100.15 71.8993C102.992 67.4775 104.634 64.6841 107.913 54.1118C109.665 54.7007 111.372 55.4167 113.019 56.2538C114.767 57.134 116.459 58.1227 118.083 59.2142C120.139 60.684 122.295 62.6298 122.295 62.6298Z" fill="white"/>
<path d="M120.849 61.3731C120.063 60.7217 119.056 59.9159 118.083 59.2144C116.467 58.109 114.775 57.1197 113.019 56.254C112.033 55.7404 111.022 55.2894 110.161 54.947C110.023 55.1767 110.136 55.8782 110.558 56.9053C112.163 58.9722 115.889 62.0161 118.998 62.6216C120.444 62.4128 120.895 61.9535 120.849 61.3731Z" fill="#F5F5F5"/>
<path d="M110.558 56.905C111.494 58.9901 112.741 60.9216 114.255 62.6338C115.832 62.7912 117.421 62.7912 118.998 62.6338C115.889 62.0159 112.162 58.9719 110.558 56.905Z" fill="#F5F5F5"/>
<path d="M111.307 78.4218C111.307 78.4218 111.487 107.032 106.41 115.291C101.129 123.88 94.2435 134.356 94.2435 134.356L88.2812 134.068C88.2812 134.068 95.2337 118.569 97.8576 111.375C101.472 101.458 103.143 73.645 103.143 73.645L111.307 78.4218Z" fill="#53B175"/>
<path opacity="0.4" d="M111.307 78.4218C111.307 78.4218 111.487 107.032 106.41 115.291C101.129 123.88 94.2435 134.356 94.2435 134.356L88.2812 134.068C88.2812 134.068 95.2337 118.569 97.8576 111.375C101.472 101.458 103.143 73.645 103.143 73.645L111.307 78.4218Z" fill="black"/>
<path opacity="0.2" d="M104.965 79.2188C104 80.0372 103.169 81.0024 102.504 82.079C102.316 84.2084 102.086 86.601 101.823 89.1063C103.641 86.6386 105.078 82.3086 104.965 79.2188Z" fill="black"/>
<path d="M108.361 76.7137C108.361 76.7137 95.7467 94.6098 87.8876 104.272C81.5368 112.059 63.1529 117.633 63.1529 117.633L60.9092 113.875C60.9092 113.875 75.5328 105.717 79.8948 100.447C93.8582 83.5782 93.6827 74.8306 100.167 71.9453L108.361 76.7137Z" fill="#53B175"/>
<path opacity="0.4" d="M108.361 76.7137C108.361 76.7137 95.7467 94.6098 87.8876 104.272C81.5368 112.059 63.1529 117.633 63.1529 117.633L60.9092 113.875C60.9092 113.875 75.5328 105.717 79.8948 100.447C93.8582 83.5782 93.6827 74.8306 100.167 71.9453L108.361 76.7137Z" fill="black"/>
<path d="M129.398 62.8384L128.562 59.498L131.75 60.425C131.75 60.425 131.663 62.6714 130.56 63.4021L129.398 62.8384Z" fill="#E4897B"/>
<path d="M129.578 56.8176L131.818 57.9492L131.763 60.4419L128.575 59.5149L129.578 56.8176Z" fill="#E4897B"/>
<path d="M89.5302 58.045L86.6055 56.2496L89.5302 54.688C89.5302 54.688 91.0301 56.3582 90.7544 57.6526L89.5302 58.045Z" fill="#E4897B"/>
<path d="M85.4463 53.6149L87.8404 52.8633L89.545 54.688L86.6078 56.2496L85.4463 53.6149Z" fill="#E4897B"/>
<path d="M59.3386 118.694L58.2983 115.278C58.28 115.22 58.2411 115.17 58.189 115.138C58.1368 115.105 58.0747 115.093 58.0142 115.103L55.1939 115.52C55.1233 115.534 55.0563 115.562 54.9972 115.603C54.9382 115.644 54.8885 115.697 54.8515 115.758C54.8144 115.82 54.7907 115.888 54.782 115.96C54.7734 116.031 54.7799 116.103 54.8011 116.172C55.1855 117.353 55.4279 117.909 55.8875 119.408C56.1674 120.335 56.6563 122.418 57.0448 123.696C57.4334 124.974 58.7161 124.656 58.6701 124.089C58.457 121.55 58.8749 120.251 59.3052 119.245C59.3786 119.07 59.3904 118.876 59.3386 118.694Z" fill="#263238"/>
<path d="M91.5078 138.039H87.7475C87.6797 138.04 87.6139 138.062 87.5603 138.104C87.5067 138.145 87.4682 138.203 87.4508 138.269L86.6152 141.254C86.5947 141.324 86.5912 141.399 86.6048 141.47C86.6185 141.542 86.649 141.61 86.6938 141.668C86.7386 141.726 86.7965 141.772 86.8627 141.803C86.929 141.834 87.0016 141.849 87.0748 141.847C88.3951 141.826 89.0385 141.751 90.6973 141.751C91.7167 141.751 94.3574 141.856 95.7654 141.856C97.1735 141.856 97.4367 140.461 96.8643 140.336C94.303 139.772 92.8323 138.991 92.0426 138.248C91.8974 138.113 91.7062 138.038 91.5078 138.039Z" fill="#263238"/>
<path d="M100.373 71.1475L99.2863 71.8531C99.2027 71.9074 99.2487 72.041 99.3782 72.1162L111.077 78.9515C111.177 79.0099 111.29 79.0099 111.332 78.9515L112.017 78.012C112.063 77.9452 112.017 77.8366 111.9 77.774L100.619 71.1725C100.584 71.1457 100.543 71.1292 100.499 71.1247C100.456 71.1203 100.412 71.1282 100.373 71.1475Z" fill="#263238"/>
<path d="M106.999 58.901C106.209 59.5315 105.457 60.0409 104.659 60.5712C103.861 61.1015 103.051 61.5566 102.215 62.0076C100.538 62.9247 98.773 63.6703 96.9464 64.2331C96.7207 64.3125 96.4784 64.3667 96.2486 64.4294C96.0188 64.492 95.7974 64.5546 95.5216 64.6131C94.9227 64.7474 94.3052 64.7785 93.6958 64.705C93.0496 64.6282 92.428 64.4116 91.8741 64.0703C91.3592 63.745 90.9076 63.329 90.5412 62.8427C89.9228 61.9812 89.4798 61.0065 89.2377 59.9741C89.1139 59.4982 89.0246 59.014 88.9702 58.5253C88.9039 58.0382 88.8718 57.547 88.8741 57.0555L90.4786 56.9177C90.6721 57.7328 90.9334 58.5303 91.2599 59.3019C91.5439 60.0087 91.9561 60.657 92.4757 61.2143C92.6621 61.4243 92.8894 61.5941 93.1437 61.7133C93.398 61.8325 93.674 61.8985 93.9548 61.9074C94.2497 61.9051 94.5427 61.8587 94.8239 61.7696C95.1874 61.6527 95.6135 61.5191 96.0021 61.3771C97.6102 60.7729 99.1656 60.0369 100.652 59.1766C101.413 58.7591 102.14 58.2789 102.875 57.8154C103.611 57.3519 104.333 56.83 104.964 56.354L106.999 58.901Z" fill="#E4897B"/>
<path d="M101.83 57.8072L103.276 62.1747L104.634 61.3605L103.363 57.0305L101.83 57.8072Z" fill="#F5F5F5"/>
<path d="M59.66 120.486C59.5896 120.485 59.5207 120.467 59.4594 120.432C59.1127 120.223 59.0166 119.484 58.9873 119.062C58.9871 119.047 58.9909 119.033 58.9983 119.02C59.0056 119.008 59.0163 118.997 59.0291 118.991C59.0419 118.984 59.0563 118.98 59.0709 118.98C59.0855 118.98 59.0998 118.984 59.1127 118.991C59.2129 119.074 60.0904 119.826 60.036 120.219C60.0303 120.264 60.0125 120.307 59.9846 120.343C59.9567 120.379 59.9196 120.407 59.8773 120.424C59.8109 120.462 59.7364 120.483 59.66 120.486ZM59.1544 119.233C59.2088 119.797 59.3466 120.19 59.5347 120.303C59.5778 120.325 59.6259 120.337 59.6746 120.337C59.7234 120.337 59.7714 120.325 59.8146 120.303C59.8731 120.273 59.8856 120.24 59.8856 120.211C59.9149 119.998 59.4971 119.542 59.1544 119.233Z" fill="#53B175"/>
<path d="M60.1862 119.579C59.7573 119.543 59.3488 119.38 59.0122 119.111C59.0055 119.101 59.002 119.089 59.002 119.076C59.002 119.063 59.0055 119.051 59.0122 119.04C59.0151 119.028 59.0213 119.016 59.0301 119.007C59.0389 118.997 59.05 118.99 59.0623 118.986C59.0999 118.986 59.9773 118.71 60.3701 118.953C60.4197 118.982 60.4623 119.022 60.4948 119.07C60.5273 119.117 60.5489 119.172 60.5581 119.228C60.5751 119.286 60.5719 119.348 60.5491 119.403C60.5263 119.458 60.4853 119.505 60.4327 119.533C60.3556 119.569 60.2709 119.585 60.1862 119.579ZM59.2253 119.091C59.547 119.312 60.1445 119.508 60.3408 119.4C60.3701 119.4 60.4077 119.35 60.391 119.254C60.3849 119.218 60.3709 119.184 60.3499 119.154C60.3289 119.124 60.3015 119.1 60.2698 119.082C59.9292 118.976 59.5641 118.979 59.2253 119.091Z" fill="#53B175"/>
<path d="M93.1774 138.661C92.8298 138.655 92.4839 138.611 92.1454 138.532C92.1301 138.528 92.1164 138.519 92.1059 138.507C92.0955 138.496 92.0889 138.481 92.0869 138.465C92.0868 138.45 92.0911 138.434 92.0992 138.421C92.1073 138.408 92.119 138.397 92.1329 138.39C92.3836 138.269 93.6704 137.688 94.013 137.918C94.0459 137.941 94.0718 137.973 94.088 138.009C94.1042 138.046 94.1101 138.087 94.105 138.127C94.1032 138.197 94.0853 138.266 94.0527 138.328C94.0201 138.39 93.9737 138.444 93.917 138.486C93.6945 138.62 93.4361 138.681 93.1774 138.661ZM92.4086 138.432C92.8265 138.507 93.5284 138.59 93.825 138.365C93.8652 138.337 93.898 138.299 93.9205 138.255C93.9431 138.212 93.9548 138.163 93.9546 138.114C93.957 138.101 93.956 138.088 93.9516 138.075C93.9472 138.063 93.9395 138.052 93.9295 138.043C93.7415 137.918 92.9685 138.185 92.4086 138.432Z" fill="#53B175"/>
<path d="M92.1622 138.531C92.1474 138.537 92.131 138.537 92.1162 138.531C92.1046 138.523 92.0958 138.512 92.0913 138.498C92.0868 138.484 92.0867 138.47 92.0911 138.456C92.0911 138.398 92.417 137.033 93.1691 137.129C93.3655 137.149 93.4157 137.25 93.4282 137.325C93.4783 137.684 92.6176 138.369 92.1747 138.544L92.1622 138.531ZM93.1023 137.258C92.651 137.258 92.3794 137.989 92.2666 138.319C92.6845 138.081 93.2945 137.538 93.2652 137.329C93.2652 137.296 93.2193 137.271 93.1399 137.262L93.1023 137.258Z" fill="#53B175"/>
<path d="M101.149 73.2991L100.848 73.1236C100.79 73.086 100.76 73.0275 100.785 72.9941L101.688 71.7782C101.713 71.7448 101.784 71.7448 101.842 71.7782L102.147 71.9579C102.206 71.9913 102.235 72.0498 102.21 72.0833L101.308 73.2991C101.283 73.3325 101.212 73.3325 101.149 73.2991Z" fill="#53B175"/>
<path d="M110.155 78.563L109.854 78.3834C109.795 78.35 109.766 78.2916 109.791 78.2582L110.694 77.0431C110.719 77.0097 110.79 77.0097 110.848 77.0431L111.153 77.2185C111.212 77.2561 111.241 77.3145 111.212 77.3479L110.314 78.563C110.288 78.5964 110.217 78.5964 110.155 78.563Z" fill="#53B175"/>
<path d="M105.652 75.9291L105.347 75.7537C105.289 75.7203 105.26 75.6619 105.289 75.6243L106.187 74.4134C106.216 74.3759 106.283 74.3759 106.346 74.4134L106.647 74.5888C106.709 74.6222 106.734 74.6807 106.709 74.7182L105.807 75.9291C105.782 75.9667 105.711 75.9667 105.652 75.9291Z" fill="#53B175"/>
<path opacity="0.4" d="M101.149 73.2991L100.848 73.1236C100.79 73.086 100.76 73.0275 100.785 72.9941L101.688 71.7782C101.713 71.7448 101.784 71.7448 101.842 71.7782L102.147 71.9579C102.206 71.9913 102.235 72.0498 102.21 72.0833L101.308 73.2991C101.283 73.3325 101.212 73.3325 101.149 73.2991Z" fill="black"/>
<path opacity="0.4" d="M110.155 78.563L109.854 78.3834C109.795 78.35 109.766 78.2916 109.791 78.2582L110.694 77.0431C110.719 77.0097 110.79 77.0097 110.848 77.0431L111.153 77.2185C111.212 77.2561 111.241 77.3145 111.212 77.3479L110.314 78.563C110.288 78.5964 110.217 78.5964 110.155 78.563Z" fill="black"/>
<path opacity="0.4" d="M105.652 75.9291L105.347 75.7537C105.289 75.7203 105.26 75.6619 105.289 75.6243L106.187 74.4134C106.216 74.3759 106.283 74.3759 106.346 74.4134L106.647 74.5888C106.709 74.6222 106.734 74.6807 106.709 74.7182L105.807 75.9291C105.782 75.9667 105.711 75.9667 105.652 75.9291Z" fill="black"/>
<path d="M114.013 57.0892C114.013 54.584 113.178 44.7257 117.289 43.8906C118.588 42.521 125.027 42.3791 126.013 45.8614C127.316 50.4335 125.386 61.5904 125.386 61.5904L114.013 57.0892Z" fill="#263238"/>
<path d="M126.245 61.6151C126.231 61.6135 126.218 61.6093 126.206 61.6025C126.194 61.5958 126.183 61.5867 126.175 61.5759C126.166 61.565 126.16 61.5525 126.156 61.5392C126.152 61.5258 126.151 61.5119 126.153 61.4982C126.153 61.3854 127.511 50.2244 126.011 45.8068C125.593 44.5959 124.432 43.7483 122.71 43.4143C120.471 42.9758 118.047 43.5228 117.375 44.2994C117.355 44.3186 117.329 44.3293 117.302 44.3293C117.274 44.3293 117.248 44.3186 117.228 44.2994C117.209 44.2792 117.198 44.2523 117.198 44.2243C117.198 44.1963 117.209 44.1693 117.228 44.1491C118.014 43.2389 120.65 42.7838 122.765 43.1971C124.561 43.5437 125.79 44.4498 126.224 45.7275C127.737 50.1994 126.387 61.398 126.375 61.5107C126.374 61.5266 126.37 61.5421 126.363 61.5564C126.356 61.5706 126.346 61.5831 126.334 61.5931C126.322 61.603 126.307 61.6101 126.292 61.614C126.277 61.6178 126.261 61.6181 126.245 61.6151Z" fill="#263238"/>
<path d="M116.864 50.8547C116.233 52.6669 114.804 55.8361 113.028 56.2536C113.028 56.2536 112.506 58.166 115.535 59.9364C118.878 61.8822 118.092 59.214 118.092 59.214C116.53 57.7192 117.361 56.3998 118.418 55.3225L116.864 50.8547Z" fill="#E4897B"/>
<path d="M117.491 52.6755L118.41 55.3186C118.161 55.5682 117.933 55.8377 117.729 56.1245C117.094 55.6193 116.413 54.3875 116.764 53.6192C116.947 53.2637 117.194 52.944 117.491 52.6755Z" fill="#CE6F64"/>
<path d="M116.889 47.2432C116.024 50.2788 115.593 51.544 116.559 53.5941C118.008 56.684 121.923 57.0806 123.662 54.3666C125.241 51.9239 126.386 47.3727 123.896 45.1806C123.35 44.6952 122.689 44.3567 121.976 44.1972C121.262 44.0376 120.52 44.0622 119.819 44.2685C119.118 44.4749 118.481 44.8563 117.969 45.3767C117.456 45.8972 117.084 46.5395 116.889 47.2432Z" fill="#E4897B"/>
<path d="M115.998 49.1555C118.158 49.9614 123.234 47.2849 124.617 45.6439C124.801 43.1136 118.864 44.1115 118.864 44.1115C118.864 44.1115 115.697 43.1386 115.998 49.1555Z" fill="#263238"/>
<path d="M115.484 49.7611C115.343 50.3543 115.444 50.979 115.764 51.4981C116.182 52.1829 116.95 51.9156 117.285 51.2392C117.585 50.6213 117.723 49.5148 117.076 49.068C116.932 48.9732 116.766 48.9158 116.595 48.901C116.423 48.8863 116.25 48.9146 116.092 48.9834C115.934 49.0522 115.795 49.1594 115.689 49.2952C115.583 49.431 115.512 49.5912 115.484 49.7611Z" fill="#E4897B"/>
<path d="M121.104 49.6609C121.017 49.9032 121.075 50.1455 121.234 50.1999C121.393 50.2542 121.589 50.1038 121.677 49.8614C121.764 49.6191 121.702 49.3809 121.543 49.3224C121.384 49.264 121.188 49.4185 121.104 49.6609Z" fill="#263238"/>
<path d="M123.838 50.6259C123.754 50.8682 123.813 51.1064 123.972 51.1649C124.13 51.2234 124.327 51.0688 124.41 50.8264C124.494 50.5841 124.435 50.3418 124.281 50.2875C124.126 50.2331 123.926 50.3836 123.838 50.6259Z" fill="#263238"/>
<path d="M124.205 50.2744L124.844 50.312C124.844 50.312 124.385 50.663 124.205 50.2744Z" fill="#263238"/>
<path d="M122.968 50.7839C122.99 51.4106 123.097 52.0314 123.285 52.6295C123.131 52.6747 122.969 52.6855 122.81 52.6609C122.651 52.6364 122.5 52.5772 122.366 52.4875L122.968 50.7839Z" fill="#DE5753"/>
<path d="M121.204 53.1484H121.179C120.851 53.0418 120.553 52.8585 120.311 52.6135C120.068 52.3686 119.887 52.0692 119.784 51.7403C119.78 51.7204 119.784 51.6998 119.795 51.6828C119.806 51.6657 119.823 51.6534 119.842 51.6484C119.852 51.646 119.862 51.6456 119.872 51.6473C119.881 51.6489 119.891 51.6527 119.899 51.6582C119.907 51.6637 119.914 51.6709 119.92 51.6793C119.925 51.6877 119.928 51.6971 119.93 51.7069C120.031 52.0093 120.201 52.2841 120.427 52.5096C120.652 52.735 120.927 52.9051 121.229 53.0063C121.246 53.0122 121.26 53.0238 121.269 53.0391C121.278 53.0545 121.282 53.0725 121.279 53.0901C121.276 53.1076 121.267 53.1235 121.253 53.135C121.239 53.1464 121.222 53.1526 121.204 53.1526V53.1484Z" fill="#263238"/>
<path d="M120.983 48.7048C120.949 48.7053 120.916 48.6943 120.889 48.6736C120.862 48.653 120.843 48.6238 120.835 48.5909C120.826 48.558 120.829 48.5233 120.843 48.4924C120.857 48.4615 120.881 48.4362 120.912 48.4207C121.119 48.3033 121.352 48.2372 121.59 48.2277C121.829 48.2183 122.066 48.2658 122.282 48.3664C122.302 48.3744 122.319 48.3864 122.334 48.4016C122.348 48.4169 122.36 48.435 122.367 48.4549C122.374 48.4748 122.377 48.4959 122.375 48.517C122.374 48.538 122.368 48.5585 122.358 48.5771C122.347 48.5956 122.334 48.6119 122.317 48.6248C122.3 48.6377 122.281 48.6469 122.26 48.6518C122.24 48.6568 122.219 48.6574 122.198 48.6535C122.177 48.6497 122.157 48.6416 122.14 48.6296C121.967 48.553 121.779 48.5184 121.59 48.5286C121.401 48.5387 121.217 48.5934 121.054 48.6881C121.032 48.6996 121.007 48.7053 120.983 48.7048Z" fill="#263238"/>
<path d="M125.571 49.8118C125.538 49.8117 125.506 49.8005 125.48 49.7801C125.454 49.7596 125.436 49.731 125.429 49.699C125.387 49.5151 125.302 49.3436 125.181 49.1985C125.061 49.0533 124.908 48.9385 124.735 48.8633C124.697 48.85 124.666 48.8225 124.648 48.7867C124.63 48.7508 124.627 48.7094 124.639 48.6711C124.645 48.6521 124.655 48.6346 124.668 48.6195C124.681 48.6045 124.697 48.5923 124.715 48.5837C124.733 48.575 124.753 48.5702 124.773 48.5694C124.793 48.5687 124.813 48.572 124.831 48.5792C125.052 48.67 125.248 48.8127 125.402 48.9953C125.556 49.1778 125.664 49.3949 125.717 49.628C125.722 49.6472 125.723 49.6672 125.72 49.6868C125.718 49.7065 125.711 49.7254 125.701 49.7425C125.691 49.7596 125.677 49.7745 125.662 49.7864C125.646 49.7983 125.628 49.8069 125.608 49.8118H125.571Z" fill="#263238"/>
<path d="M121.46 49.314L122.099 49.3516C122.099 49.3516 121.652 49.6984 121.46 49.314Z" fill="#263238"/>
<path d="M107.921 54.1117C106.605 53.7985 102.557 56.8801 102.557 56.8801L104.274 62.3541C104.274 62.3541 108.506 60.0117 108.899 58.2872C109.288 56.5001 109.421 54.4708 107.921 54.1117Z" fill="#53B175"/>
<path opacity="0.7" d="M107.921 54.1117C106.605 53.7985 102.557 56.8801 102.557 56.8801L104.274 62.3541C104.274 62.3541 108.506 60.0117 108.899 58.2872C109.288 56.5001 109.421 54.4708 107.921 54.1117Z" fill="white"/>
<path d="M156.138 19.2756H125.136C123.806 19.2756 122.531 19.8035 121.591 20.7432C120.65 21.6829 120.122 22.9573 120.122 24.2862V33.8898C120.122 35.2187 120.65 36.4931 121.591 37.4328C122.531 38.3724 123.806 38.9003 125.136 38.9003H127.726V43.8274L132.657 38.9003H156.138C157.468 38.9003 158.743 38.3724 159.683 37.4328C160.623 36.4931 161.152 35.2187 161.152 33.8898V24.2862C161.152 22.9573 160.623 21.6829 159.683 20.7432C158.743 19.8035 157.468 19.2756 156.138 19.2756Z" fill="#53B175"/>
<path opacity="0.3" d="M156.138 19.2756H125.136C123.806 19.2756 122.531 19.8035 121.591 20.7432C120.65 21.6829 120.122 22.9573 120.122 24.2862V33.8898C120.122 35.2187 120.65 36.4931 121.591 37.4328C122.531 38.3724 123.806 38.9003 125.136 38.9003H127.726V43.8274L132.657 38.9003H156.138C157.468 38.9003 158.743 38.3724 159.683 37.4328C160.623 36.4931 161.152 35.2187 161.152 33.8898V24.2862C161.152 22.9573 160.623 21.6829 159.683 20.7432C158.743 19.8035 157.468 19.2756 156.138 19.2756Z" fill="black"/>
<g opacity="0.54">
<path opacity="0.54" d="M155.411 23.2676H125.855C125.22 23.2676 124.706 23.7817 124.706 24.4158C124.706 25.05 125.22 25.5641 125.855 25.5641H155.411C156.046 25.5641 156.56 25.05 156.56 24.4158C156.56 23.7817 156.046 23.2676 155.411 23.2676Z" fill="#F5F5F5"/>
</g>
<g opacity="0.54">
<path opacity="0.54" d="M155.407 30.1279H136.463C136.157 30.1268 135.865 30.005 135.649 29.7891C135.433 29.5732 135.311 29.2807 135.31 28.9754C135.311 28.6705 135.433 28.3784 135.649 28.1632C135.865 27.948 136.158 27.8271 136.463 27.8271H155.407C155.711 27.8271 156.004 27.9481 156.219 28.1635C156.434 28.3788 156.556 28.6709 156.556 28.9754C156.556 29.2803 156.435 29.5728 156.219 29.7889C156.004 30.0049 155.712 30.1268 155.407 30.1279Z" fill="#F5F5F5"/>
</g>
<g opacity="0.54">
<path opacity="0.54" d="M130.84 30.1279H125.855C125.55 30.1268 125.258 30.0049 125.042 29.7889C124.827 29.5728 124.706 29.2803 124.706 28.9754C124.706 28.6709 124.827 28.3788 125.043 28.1635C125.258 27.9481 125.55 27.8271 125.855 27.8271H130.84C131.144 27.8271 131.437 27.9481 131.652 28.1635C131.868 28.3788 131.989 28.6709 131.989 28.9754C131.989 29.2803 131.868 29.5728 131.652 29.7889C131.437 30.0049 131.145 30.1268 130.84 30.1279Z" fill="#F5F5F5"/>
</g>
<g opacity="0.54">
<path opacity="0.54" d="M148.029 34.687H125.855C125.55 34.687 125.258 34.566 125.043 34.3506C124.827 34.1353 124.706 33.8432 124.706 33.5387C124.706 33.2338 124.827 32.9413 125.042 32.7253C125.258 32.5092 125.55 32.3873 125.855 32.3862H148.029C148.334 32.3873 148.626 32.5092 148.841 32.7253C149.057 32.9413 149.178 33.2338 149.178 33.5387C149.178 33.8432 149.057 34.1353 148.841 34.3506C148.626 34.566 148.333 34.687 148.029 34.687Z" fill="#F5F5F5"/>
</g>
</g>
<defs>
<filter id="filter0_d_178_659" x="0.888672" y="0.719971" width="216.908" height="163.561" filterUnits="userSpaceOnUse" color-interpolation-filters="sRGB">
<feFlood flood-opacity="0" result="BackgroundImageFix"/>
<feColorMatrix in="SourceAlpha" type="matrix" values="0 0 0 0 0 0 0 0 0 0 0 0 0 0 0 0 0 0 127 0" result="hardAlpha"/>
<feOffset dy="4"/>
<feGaussianBlur stdDeviation="2"/>
<feComposite in2="hardAlpha" operator="out"/>
<feColorMatrix type="matrix" values="0 0 0 0 0 0 0 0 0 0 0 0 0 0 0 0 0 0 0.25 0"/>
<feBlend mode="normal" in2="BackgroundImageFix" result="effect1_dropShadow_178_659"/>
<feBlend mode="normal" in="SourceGraphic" in2="effect1_dropShadow_178_659" result="shape"/>
</filter>
</defs>
</svg>
