<svg width="114" height="140" viewBox="0 0 114 140" fill="none" xmlns="http://www.w3.org/2000/svg">
<path d="M56.799 125.948C88.16 125.948 113.583 100.525 113.583 69.1639C113.583 37.8029 88.16 12.3797 56.799 12.3797C25.438 12.3797 0.0148926 37.8029 0.0148926 69.1639C0.0148926 100.525 25.438 125.948 56.799 125.948Z" fill="#53B175"/>
<path d="M43.8212 136.172C42.8895 135.06 41.3324 134.611 39.8859 134.731C38.4394 134.851 37.2803 135.496 36.0138 136.203C34.9083 136.819 34.5293 137.823 33.206 138.281L32.0974 138.597C32.3746 138.741 32.6605 138.868 32.9533 138.976C35.9506 139.384 38.9921 139.238 42.0147 139.096C42.8453 139.055 43.8181 138.932 44.2255 138.206C44.5856 137.571 44.2981 136.737 43.8212 136.172Z" fill="#05220E"/>
<path d="M100.554 22.082C102.466 13.8052 97.3066 5.5453 89.0298 3.63294C80.7531 1.72058 72.4932 6.87994 70.5808 15.1567C68.6684 23.4334 73.8278 31.6933 82.1045 33.6057C90.3813 35.5181 98.6412 30.3587 100.554 22.082Z" fill="#DDFAE8"/>
<path d="M99.1516 21.9024C100.966 14.3982 96.3529 6.84427 88.8487 5.03021C81.3445 3.21615 73.7906 7.82889 71.9765 15.3331C70.1625 22.8372 74.7752 30.3912 82.2794 32.2052C89.7836 34.0193 97.3375 29.4065 99.1516 21.9024Z" fill="#F8F4D9"/>
<path d="M98.7483 23.2571C98.9349 22.728 99.0889 22.1879 99.2095 21.64H97.8419V11.9312C97.3833 11.0938 96.8404 10.3054 96.2217 9.57825V21.64H77.0346V15.4844H93.7139V7.27265C93.1978 6.8997 92.6564 6.56305 92.0937 6.26514V13.8768H81.1626V5.34921C80.6107 5.53269 80.0707 5.74997 79.5455 5.99983V13.8673H75.4144V19.047H71.5959C71.6116 19.5893 71.658 20.1302 71.7349 20.6672H75.4144V28.222C75.9162 28.7512 76.4579 29.2412 77.0346 29.6875V23.2571H98.7483Z" fill="#E5E5E5"/>
<path d="M91.5881 23.4719L85.5998 17.1362L79.6147 23.4719H81.4434V29.6591H89.7562V23.4719H91.5881Z" fill="#53B175"/>
<path d="M88.4014 10.1815C88.4014 11.7607 85.5588 14.4958 85.5588 14.4958C85.5588 14.4958 82.7163 11.7607 82.7163 10.1815C82.7163 9.42428 83.0171 8.69806 83.5526 8.16261C84.088 7.62717 84.8142 7.32635 85.5715 7.32635C86.3287 7.32635 87.0549 7.62717 87.5904 8.16261C88.1258 8.69806 88.4266 9.42428 88.4266 10.1815H88.4014Z" fill="#FF6363"/>
<path d="M85.562 11.4101C85.8287 11.4101 86.0895 11.331 86.3112 11.1828C86.533 11.0346 86.7059 10.824 86.808 10.5776C86.91 10.3312 86.9367 10.06 86.8847 9.79839C86.8327 9.53679 86.7042 9.29649 86.5156 9.10788C86.327 8.91927 86.0867 8.79083 85.8251 8.73879C85.5635 8.68675 85.2923 8.71346 85.0459 8.81553C84.7995 8.91761 84.5888 9.09046 84.4407 9.31224C84.2925 9.53402 84.2134 9.79476 84.2134 10.0615C84.2134 10.4192 84.3555 10.7622 84.6084 11.0151C84.8613 11.268 85.2043 11.4101 85.562 11.4101Z" fill="#F8F4D9"/>
<path d="M48.6126 38.2909C48.9569 38.0572 49.3012 37.7066 49.2443 37.2928C49.1717 36.778 48.5495 36.5633 48.0347 36.478C44.5352 35.8968 40.9378 36.1337 37.4478 36.778C33.9579 37.4223 30.5595 38.4678 27.1674 39.51C26.5863 39.69 25.904 39.9996 25.8535 40.6091C25.8546 40.7914 25.9044 40.97 25.9977 41.1266C26.091 41.2832 26.2244 41.412 26.3841 41.4998C26.7079 41.6682 27.0624 41.7692 27.4264 41.7967C29.5899 42.0778 31.7881 41.9135 33.9547 41.6609C37.9145 41.2042 41.8366 40.4654 45.6912 39.45C46.7233 39.2309 47.711 38.839 48.6126 38.2909Z" fill="#05220E"/>
<path d="M82.41 56.1482C82.2331 53.252 81.8541 50.3274 82.3405 47.4659L76.9524 46.8785C76.5523 48.7735 76.0775 50.6485 75.528 52.5035C75.3953 52.2319 75.2658 51.9571 75.1458 51.6792C74.413 49.9768 73.9488 48.1734 73.2855 46.4426C72.6223 44.7118 71.7253 43.0126 70.3167 41.8125C69.7987 41.3703 69.126 40.985 68.4659 41.1587C68.0536 41.3025 67.696 41.5706 67.4426 41.9262C66.7068 42.9017 66.1703 44.0124 65.8634 45.1951C65.3138 47.068 65.0738 49.0735 65.5286 50.9717C66.4035 54.6354 69.6092 57.2126 71.5105 60.4657C72.0316 61.3532 72.5496 62.0133 73.0392 62.9198C73.9014 64.5905 73.813 64.9253 74.2804 65.6707C75.1711 67.092 77.3408 67.4868 78.9769 67.1299C80.4676 66.814 80.635 66.056 81.2951 64.679C82.5395 62.0639 82.5806 59.0413 82.41 56.1482Z" fill="#A6BEBD"/>
<path d="M78.26 48.2271C78.2718 48.1852 78.2664 48.1404 78.2451 48.1025C78.2237 48.0646 78.1882 48.0367 78.1463 48.025C78.1045 48.0132 78.0596 48.0186 78.0217 48.0399C77.9838 48.0613 77.9559 48.0968 77.9442 48.1387C76.6831 52.4631 75.9638 56.9274 75.8028 61.429C75.7713 62.3765 75.7649 63.4062 76.1187 64.3316C76.1597 64.4421 76.2039 64.5495 76.2513 64.6474C76.4152 64.9585 76.5049 65.3034 76.5135 65.6549C76.5014 65.7767 76.4601 65.8937 76.393 65.996C76.3259 66.0983 76.235 66.1828 76.1281 66.2424C76.0629 66.2796 75.9884 66.2972 75.9134 66.2929C76.0173 66.0815 76.0795 65.852 76.0966 65.617C76.1109 65.448 76.0744 65.2786 75.9916 65.1306C75.9089 64.9826 75.7837 64.8627 75.6323 64.7864C75.5314 64.7466 75.4248 64.7231 75.3165 64.7169C75.2564 64.7169 75.1996 64.7169 75.1427 64.6885C74.6753 64.5684 74.5111 63.9368 74.3974 63.3556C73.9426 61.0342 72.7487 58.9781 71.5991 56.9915L70.6294 55.3176C70.6195 55.4587 70.6005 55.599 70.5726 55.7377C70.5682 55.766 70.5574 55.793 70.541 55.8166L71.318 57.1558C72.4581 59.1171 73.633 61.1511 74.0815 63.4188C74.1826 63.9431 74.3563 64.8243 75.0606 64.998C75.1322 65.0157 75.2051 65.0273 75.2786 65.0327C75.3581 65.039 75.4366 65.0549 75.5123 65.0801C75.6019 65.1325 75.6748 65.2093 75.7223 65.3016C75.7698 65.3939 75.7901 65.4978 75.7807 65.6012C75.752 65.8526 75.6747 66.0961 75.5533 66.3182C75.536 66.354 75.5329 66.3951 75.5446 66.4332C75.5563 66.4713 75.582 66.5035 75.6165 66.5235C75.7113 66.5825 75.8206 66.6142 75.9323 66.615C76.0515 66.6138 76.1686 66.5834 76.2734 66.5266C76.4289 66.4409 76.5608 66.3183 76.6578 66.1696C76.7547 66.0209 76.8136 65.8507 76.8293 65.6739C76.827 65.2711 76.7285 64.8748 76.5419 64.5179C76.4977 64.4137 76.4535 64.3094 76.4124 64.2021C76.0966 63.3335 76.0966 62.3544 76.125 61.4227C76.2872 56.9527 77.0044 52.5202 78.26 48.2271Z" fill="#E8E8E8"/>
<path d="M69.3313 59.4329C70.232 54.8592 70.5409 50.1887 70.2504 45.5362C70.9136 47.3775 71.58 49.2409 71.7601 51.1865C72.0185 54.1431 71.151 57.0883 69.3313 59.4329Z" fill="#05220E"/>
<path d="M77.3 49.0293C77.8095 49.3746 78.4035 49.5744 79.0181 49.6073C79.7809 49.6239 80.5353 49.4456 81.21 49.0893C81.6407 48.9239 81.9882 48.5945 82.1765 48.1734C82.2507 47.8683 82.2507 47.5499 82.1765 47.2448C82.0944 46.7679 82.0122 46.2973 81.9333 45.8109C81.9185 45.6468 81.8619 45.4891 81.769 45.353C81.609 45.1965 81.3958 45.1063 81.1721 45.1003C80.2803 44.9748 79.3736 45.0015 78.4907 45.1793C77.9316 45.2898 77.3252 45.5141 77.0789 46.0289C76.9833 46.2736 76.933 46.5336 76.9304 46.7963L76.8483 48.0597C76.8261 48.2169 76.8357 48.3769 76.8767 48.5303C76.9614 48.7373 77.1096 48.912 77.3 49.0293Z" fill="#05220E"/>
<path d="M79.1065 39.8259C79.1929 39.8507 79.2855 39.8416 79.3655 39.8006L81.0268 39.2163C80.3902 38.1829 79.6332 37.2287 78.7717 36.3738C78.8286 37.4097 78.8875 38.4457 78.9486 39.4816C78.9518 39.6111 78.9802 39.7753 79.1065 39.8259Z" fill="#FFC088"/>
<path d="M78.5505 33.3954H73.7751C73.4943 33.3954 73.2666 33.6231 73.2666 33.9039V43.5116C73.2666 43.7925 73.4943 44.0201 73.7751 44.0201H78.5505C78.8314 44.0201 79.059 43.7925 79.059 43.5116V33.9039C79.059 33.6231 78.8314 33.3954 78.5505 33.3954Z" fill="#A6BEBD"/>
<path d="M73.7971 43.3253C73.9298 43.5811 74.2709 43.6254 74.5583 43.6411C75.6587 43.6406 76.7583 43.5815 77.8525 43.4643C77.9735 43.464 78.0919 43.4289 78.1936 43.3632C78.2889 43.2668 78.349 43.1411 78.3641 43.0063C78.7908 41.1193 78.8976 39.1741 78.68 37.2518L74.2898 36.8317C74.1976 36.8095 74.1017 36.8072 74.0085 36.8252C73.9153 36.8432 73.8271 36.881 73.7498 36.936C73.6948 37.0076 73.6548 37.0894 73.632 37.1768C73.6092 37.2641 73.6042 37.3551 73.6171 37.4445L73.7308 42.9653C73.7259 43.0887 73.7485 43.2117 73.7971 43.3253Z" fill="#05220E"/>
<path d="M81.472 45.094C81.4562 43.6064 81.4309 41.0766 81.4183 39.6995C81.4183 38.9857 80.8593 38.6636 80.2402 38.5025C79.6844 38.3572 73.7688 37.1349 73.7719 37.1223C73.7543 37.2744 73.7678 37.4285 73.8118 37.5751C73.8558 37.7217 73.9293 37.8578 74.0278 37.9751C74.2277 38.2082 74.4583 38.4132 74.7131 38.5846C74.4266 38.7725 74.1645 38.9953 73.933 39.2479C73.7003 39.5081 73.574 39.8463 73.5793 40.1954C73.5851 40.3672 73.6437 40.533 73.7472 40.6703C73.8506 40.8076 73.9937 40.9098 74.1572 40.9629C73.9285 41.2057 73.7749 41.5095 73.7151 41.8377C73.6898 42.1694 73.9393 42.5421 74.2709 42.5136C74.1483 42.9118 74.0845 43.3257 74.0814 43.7422C74.486 43.9249 74.8406 44.2021 75.1155 44.5506C75.3903 44.8991 75.5773 45.3087 75.6606 45.7446C75.7615 45.7377 75.8588 45.7051 75.9435 45.6498C76.0281 45.5945 76.0971 45.5184 76.1438 45.4288C76.1438 45.4288 76.1439 45.4004 76.1596 45.3877C76.6874 45.8133 77.1671 46.2952 77.5904 46.8248C78.9071 47.036 80.2568 46.8639 81.4783 46.3289C81.4783 45.9025 81.4752 45.4951 81.472 45.094Z" fill="#FFC088"/>
<path d="M21.1662 42.6494C19.1132 44.8855 18.3647 48.0375 18.1752 51.0695C17.9004 55.4912 18.6458 59.9129 19.6533 64.2178C20.3924 67.3761 21.2862 70.5566 22.8117 73.4339C24.3371 76.3111 26.5417 78.9041 29.4158 80.4359C33.7838 82.7668 39.093 82.3847 43.9442 81.3171C48.7955 80.2496 53.5362 78.5567 58.4727 78.4525C60.1498 78.4146 62.1206 78.4335 63.1155 77.0849C63.7945 76.1658 63.7471 74.9183 63.6808 73.7781C63.4176 69.7291 63.0849 65.6906 62.6828 61.6627C62.288 57.6958 61.8174 53.7131 60.6456 49.9041C59.4739 46.0951 57.5536 42.4378 54.6226 39.7374C53.2121 38.3784 51.4934 37.3814 49.6135 36.8317C47.649 36.3137 45.5739 36.4527 43.5526 36.6453C39.1814 37.0664 34.8397 37.6918 30.5275 38.5214C27.1165 39.172 23.5191 40.0911 21.1662 42.6494Z" fill="#DDFAE8"/>
<path d="M18.4848 26.9492L19.4323 38.4298C19.4576 38.7799 19.5543 39.1211 19.7166 39.4323C19.8789 39.7435 20.1033 40.0182 20.3759 40.2393C20.6485 40.4604 20.9636 40.6232 21.3016 40.7178C21.6396 40.8124 21.9934 40.8367 22.3412 40.7891L50.2168 36.7496C50.8685 36.6501 51.4576 36.306 51.8643 35.7872C52.271 35.2684 52.4646 34.6141 52.4056 33.9576L51.5275 23.3455C51.5024 23.0012 51.4082 22.6655 51.2504 22.3584C51.0926 22.0514 50.8745 21.7793 50.6091 21.5585C50.3438 21.3377 50.0366 21.1726 49.706 21.0732C49.3754 20.9738 49.0282 20.942 48.685 20.9799L20.7462 24.1383C20.0781 24.2215 19.4686 24.5614 19.0465 25.086C18.6245 25.6106 18.4231 26.2788 18.4848 26.9492Z" fill="#05220E"/>
<path d="M20.2881 27.3029L21.1978 38.2245C21.2262 38.5601 21.3229 38.8864 21.4818 39.1834C21.6407 39.4804 21.8585 39.7418 22.1219 39.9517C22.3853 40.1616 22.6888 40.3156 23.0138 40.4042C23.3387 40.4928 23.6783 40.5141 24.0118 40.467L50.9621 36.6232C51.587 36.5351 52.1544 36.2111 52.548 35.7177C52.9415 35.2244 53.1312 34.5991 53.0782 33.9702L52.2286 23.8635C52.2007 23.5344 52.1072 23.2142 51.9535 22.9219C51.7998 22.6295 51.5892 22.3709 51.3339 22.1613C51.0787 21.9517 50.7841 21.7954 50.4674 21.7015C50.1508 21.6076 49.8185 21.5781 49.4903 21.6147L22.4769 24.6278C21.835 24.6995 21.2466 25.0196 20.8376 25.5195C20.4285 26.0194 20.2314 26.6595 20.2881 27.3029Z" fill="#A6BEBD"/>
<path d="M50.242 40.4322C44 40.7974 37.8158 41.8362 31.7972 43.5306C31.7079 43.5556 31.6267 43.6035 31.5616 43.6695C31.4965 43.7355 31.4497 43.8172 31.4258 43.9068C31.4019 43.9964 31.4017 44.0906 31.4253 44.1803C31.4489 44.2699 31.4954 44.3519 31.5603 44.4181C31.9203 44.7954 32.2508 45.1998 32.5488 45.6277C36.2157 50.8453 36.1273 57.8127 36.3168 63.9083C36.4715 68.9206 36.2947 73.9361 36.1115 78.9484C36.0862 79.6053 36.1115 80.3791 36.6326 80.7739C37.0273 81.0006 37.4859 81.0905 37.937 81.0298C46.5839 80.7525 55.1922 79.7499 63.6713 78.0325C64.1135 66.3718 63.1154 56.0345 59.4833 47.3711C58.9969 46.2152 55.6143 41.7619 54.5468 41.1018C53.2929 40.3248 51.7169 40.347 50.242 40.4322Z" fill="#05220E"/>
<path d="M31.8162 48.3155C31.2595 46.9329 30.5156 45.6332 29.6054 44.4528C28.7685 43.3165 27.5646 42.5042 26.1975 42.1536C23.8161 41.6419 21.3179 43.1295 20.1177 45.2487C21.6242 43.9412 23.8603 43.6696 25.7585 44.2823C27.6567 44.895 29.2327 46.31 30.3255 47.9713C31.4183 49.6325 32.1131 51.537 32.6627 53.4542C35.1609 62.1965 35.0535 71.4568 34.3271 80.5244C35.7168 69.6692 35.7926 58.5044 31.8162 48.3155Z" fill="#FFC088"/>
<path d="M69.3155 72.4801H45.5488V77.5335H69.3155V72.4801Z" fill="#05220E"/>
<path d="M70.2062 41.9388C70.1192 41.4918 69.9216 41.0737 69.6314 40.7228C68.9713 40.0438 67.8848 40.1733 66.9436 40.0627C65.2065 39.8606 63.7126 38.6794 62.7209 37.2202C59.2973 38.7836 55.3083 39.0836 52.2415 36.6169C51.92 36.916 51.5826 37.1975 51.2308 37.4602C49.4274 38.812 47.3018 39.6711 45.1415 40.3027C44.3898 40.5238 43.5876 40.7449 43.0507 41.3166C42.1032 42.3178 42.3716 43.9096 42.6496 45.2582C44.4438 53.9713 44.3738 62.9654 42.4443 71.6494C42.3705 71.988 42.3658 72.3379 42.4306 72.6783C42.4953 73.0187 42.6281 73.3425 42.8209 73.6304C43.0138 73.9182 43.2628 74.1642 43.553 74.3534C43.8432 74.5427 44.1687 74.6715 44.5098 74.732C53.1854 76.3214 62.1062 75.9567 70.6231 73.6645C68.0017 63.3682 72.9982 52.2129 70.2062 41.9388Z" fill="#A6BEBD"/>
<path d="M57.8 48.8651C55.902 49.4736 53.9015 49.6969 51.916 49.522C51.916 48.7577 51.916 47.9902 51.916 47.2227C53.8679 47.0627 55.8113 46.8111 57.7463 46.4679L57.8 48.8651Z" fill="white"/>
<path d="M57.7527 38.812C59.2497 40.4101 59.2908 42.8421 59.2529 45.034C59.0803 55.6397 59.1476 66.2455 59.455 76.8513L62.2976 76.6081C62.0744 66.6466 61.8491 56.6862 61.6217 46.7268C61.5617 44.0201 61.4953 41.2787 60.7658 38.6699L57.7527 38.812Z" fill="#05220E"/>
<path d="M61.0026 63.6999C60.7404 58.2391 60.472 52.5888 60.8952 46.9922C61.1257 43.9286 60.5256 41.5187 59.8466 39.0268C59.7392 39.0521 59.6318 39.071 59.5308 39.09C60.2067 41.563 60.7941 43.9475 60.5762 46.9701C60.1498 52.5856 60.4214 58.2422 60.6836 63.7094C60.7657 65.4686 60.8541 67.2878 60.9173 69.0786C60.9962 71.3463 61.0784 73.6898 60.7531 75.9669C60.7476 76.0096 60.7591 76.0527 60.7851 76.0869C60.8111 76.1212 60.8495 76.1439 60.892 76.1501H60.9141C60.9531 76.1498 60.9907 76.1357 61.0202 76.1102C61.0497 76.0848 61.0692 76.0497 61.0752 76.0112C61.391 73.7056 61.3216 71.3463 61.2426 69.0628C61.1731 67.2815 61.1036 65.4528 61.0026 63.6999Z" fill="#A6BEBD"/>
<path d="M51.313 37.3781C53.0891 38.7627 55.2431 39.5765 57.4911 39.7124C59.739 39.8482 61.9754 39.2998 63.9054 38.1393C63.4392 37.7415 63.0834 37.2303 62.8726 36.6549C61.2334 37.375 59.4458 37.8424 57.6613 37.694C55.8768 37.5455 54.0987 36.7275 53.0532 35.2747C52.6673 36.1161 52.0672 36.8414 51.313 37.3781Z" fill="#05220E"/>
<path d="M59.256 102.014H55.9081C51.6633 102.014 48.2207 109.145 48.2207 117.942C48.2207 126.738 51.6633 133.869 55.9081 133.869H59.256C63.504 133.869 66.9434 126.738 66.9434 117.942C66.9434 109.145 63.504 102.014 59.256 102.014Z" fill="#05220E"/>
<path d="M54.3228 129.166C56.3026 129.166 57.9075 124.141 57.9075 117.942C57.9075 111.742 56.3026 106.717 54.3228 106.717C52.343 106.717 50.738 111.742 50.738 117.942C50.738 124.141 52.343 129.166 54.3228 129.166Z" fill="#A6BEBD"/>
<path d="M53.5112 125.111C55.17 125.111 56.5148 120.903 56.5148 115.712C56.5148 110.521 55.17 106.312 53.5112 106.312C51.8523 106.312 50.5076 110.521 50.5076 115.712C50.5076 120.903 51.8523 125.111 53.5112 125.111Z" fill="#05220E"/>
<path d="M81.1309 87.6592C77.9288 83.6182 73.2969 80.9615 68.192 80.238C63.0872 79.5144 57.8995 80.7793 53.7005 83.7712C52.2066 84.8356 50.8296 86.1495 50.1 87.8297C49.0293 90.2964 49.5062 93.1263 50.0021 95.7667C51.3118 102.751 52.6235 109.733 53.9374 116.713C54.089 117.525 54.2533 118.368 54.746 119.031C55.3776 119.906 56.4736 120.317 57.5158 120.61C65.2664 122.821 73.5382 121.242 81.4372 119.619C83.0322 119.303 84.7882 118.864 85.6978 117.515C86.1969 116.776 86.3579 115.866 86.4811 114.988C87.1096 110.525 87.1096 105.995 86.4811 101.531C85.7926 96.5689 84.2482 91.5913 81.1309 87.6592Z" fill="#05220E"/>
<path d="M54.8534 95.8362C53.7164 92.9936 52.0709 89.4436 48.9094 88.5719C46.2437 87.836 43.3444 89.232 41.5788 91.3608C39.8133 93.4895 38.9764 96.2215 38.3289 98.9092C36.5919 106.168 36.9767 113.773 39.4375 120.819C45.83 121.529 50.9908 121.918 57.6959 121.637C58.1034 121.621 58.1318 114.313 58.1192 113.608C58.0659 110.893 57.8125 108.185 57.3612 105.507C56.8274 102.349 56.1389 99.064 54.9324 96.032C54.9071 95.9656 54.8818 95.9025 54.8534 95.8362Z" fill="#DDFAE8"/>
<path d="M54.787 97.7438C56.2019 101.262 56.1672 105.232 55.3681 108.94C54.569 112.648 53.0467 116.157 51.5338 119.634C51.2812 120.219 50.8106 120.913 50.1979 120.749C49.7399 120.626 49.5662 120.092 49.4367 119.631C48.5713 116.195 47.6996 112.74 47.3932 109.209C47.0869 105.678 47.3648 102.036 48.7261 98.7608C49.1682 97.6996 49.7557 96.6415 50.7127 96.0035C51.6697 95.3655 53.072 95.2771 53.9058 96.0667L54.787 97.7438Z" fill="#05220E"/>
<path d="M61.7891 120.061C59.1045 119.764 56.1577 119.338 54.3732 117.307C54.029 118.415 54.5185 119.657 55.3365 120.484C56.1546 121.311 57.2505 121.795 58.3433 122.193C66.2613 125.092 75.0163 124.492 83.3417 123.159C83.7523 121.962 82.3942 123.529 82.8111 122.332C75.4711 124.482 69.3912 120.901 61.7891 120.061Z" fill="#DDFAE8"/>
<path d="M32.4226 123.102C36.5285 126.03 41.7777 127.281 46.591 125.799C42.1535 123.699 37.3117 122.524 32.4226 123.102Z" fill="#05220E"/>
<path d="M43.7329 129.94L44.3961 122.938C41.4563 123.072 38.5106 122.89 35.6096 122.395C35.4422 124.552 35.1394 126.696 34.7031 128.816L43.7329 129.94Z" fill="white"/>
<path d="M94.7244 95.814C92.9052 91.4934 91.8503 86.8601 91.2502 82.1983C90.5522 76.6902 90.4827 71.122 90.4132 65.5696C86.1741 65.123 81.8889 65.4754 77.7798 66.6087C80.5812 76.9902 83.9702 87.7697 90.0595 97.1374C91.6292 96.7773 93.1831 96.3004 94.7244 95.814Z" fill="#FFC088"/>
<path d="M40.6029 126.409C41.6051 126.547 42.5254 127.038 43.1991 127.792C44.3045 129.113 44.2413 131.033 44.0234 132.742C43.8055 134.45 43.5086 136.282 44.2887 137.82C40.3439 137.82 36.3928 137.984 32.4701 138.357C32.0627 135.575 32.2301 132.599 33.6198 130.145C35.0095 127.691 37.8299 125.935 40.6029 126.409Z" fill="#0C4E5F"/>
<path d="M39.5542 126.093C39.0646 126.144 38.534 126.299 38.2687 126.725C38.1434 126.958 38.0701 127.216 38.054 127.48C37.8265 129.337 38.0253 131.222 38.6351 132.991C38.6658 133.13 38.7238 133.261 38.8056 133.377C38.8875 133.493 38.9917 133.592 39.112 133.667C39.2897 133.727 39.4794 133.743 39.6647 133.714C40.9148 133.642 42.1659 133.837 43.3347 134.286C43.2046 132.445 43.2691 130.596 43.5274 128.768C43.5969 128.276 43.6727 127.732 43.4074 127.309C43.236 127.067 43.0055 126.872 42.7378 126.744C41.7664 126.211 40.6567 125.984 39.5542 126.093Z" fill="#DDFAE8"/>
<path d="M34.1631 130.689C34.4315 130.373 34.7948 130.057 35.218 130.117C35.3872 130.162 35.544 130.244 35.6765 130.359C35.809 130.473 35.9136 130.616 35.9823 130.777C36.2981 131.409 36.4024 132.123 36.5729 132.808C36.7435 133.493 37.0309 134.207 37.6215 134.599C36.5354 135.486 35.257 136.107 33.8883 136.412C33.625 136.482 33.3504 136.502 33.0798 136.468C32.9439 136.449 32.815 136.396 32.7047 136.315C32.5943 136.233 32.5062 136.125 32.4481 136.001C32.3864 135.782 32.3864 135.55 32.4481 135.331C32.7576 133.692 33.0987 131.974 34.1631 130.689Z" fill="#A6BEBD"/>
<path d="M44.5919 136.216C44.5351 134.952 44.2319 133.61 43.2496 132.83C42.0968 131.911 40.3787 132.11 39.0585 132.77C38.0478 133.272 37.1635 134.002 36.216 134.618C35.2685 135.234 34.2041 135.755 33.0766 135.755C32.7165 135.755 32.3217 135.71 32.0343 135.928C31.7469 136.146 31.6711 136.636 31.6616 137.04C31.6616 137.495 31.6616 137.988 31.9364 138.344C32.2112 138.701 32.767 138.809 33.2503 138.862C36.3202 139.178 39.4217 138.989 42.5074 138.787C42.9621 138.794 43.4111 138.686 43.8118 138.471C44.5161 138.019 44.6298 137.05 44.5919 136.216Z" fill="#FFC088"/>
<path d="M65.5822 23.2445C66.0682 24.9774 66.1657 26.7962 65.8676 28.5711C65.5695 30.346 64.8832 32.0333 63.8577 33.5123C63.4573 34.1543 62.8968 34.6811 62.2312 35.0409C60.9678 35.6316 59.4929 35.1578 58.1853 34.6809C56.7104 34.144 55.1817 33.5692 54.1079 32.429C53.0941 31.3551 52.6014 29.9023 52.355 28.4305C52.0644 26.6903 52.115 24.8079 53.0183 23.295C54.1458 21.4 56.423 20.4525 58.6149 20.3451C60.8068 20.2377 62.9671 20.8441 65.08 21.4474L65.5822 23.2445Z" fill="#05220E"/>
<path d="M63.0555 37.694C62.8913 37.4855 62.7397 37.2707 62.5913 37.0623C61.6027 35.5305 61.0879 33.7523 60.5857 32.0089L55.0744 32.091C54.6683 33.5612 53.9093 34.9099 52.8635 36.02C55.6776 38.1804 59.6129 38.4046 63.0555 37.694Z" fill="#FFC088"/>
<path d="M65.0391 27.2366L65.0012 27.0408C64.8938 26.5576 64.6854 25.9827 64.9191 25.5027C65.3044 24.751 65.2349 24.571 64.7454 23.0202L64.2053 21.8137C62.942 20.4556 61.0469 19.8113 59.2025 19.7892C57.358 19.7671 55.5388 20.3198 53.8333 21.0525C53.2679 21.2957 52.652 21.621 52.4625 22.2053C52.382 22.5481 52.382 22.9049 52.4625 23.2476C52.6868 24.6215 52.9584 25.9859 53.23 27.3535C53.391 28.4639 53.7101 29.5455 54.1775 30.5655C54.8376 31.8289 55.9209 32.8016 56.9853 33.7491C57.3985 34.1564 57.8714 34.4982 58.3876 34.763C58.9038 34.9659 59.4604 35.045 60.0127 34.994C60.5651 34.943 61.0977 34.7633 61.5681 34.4692C62.4994 33.8674 63.2606 33.0366 63.7789 32.0563C64.3741 31.0286 64.8007 29.9122 65.0423 28.7495C65.14 28.2498 65.1389 27.7359 65.0391 27.2366Z" fill="#FFC088"/>
<path d="M56.998 25.9228C57.3142 25.5878 57.702 25.3286 58.1324 25.1645C58.5628 25.0004 59.0247 24.9357 59.4836 24.9752C59.5172 24.8311 59.588 24.6982 59.6889 24.5899C59.1488 24.5353 58.6034 24.6119 58.0992 24.8131C57.595 25.0144 57.1468 25.3344 56.7927 25.7459C56.8721 25.7908 56.9419 25.8509 56.998 25.9228Z" fill="#0C4E5F"/>
<path d="M58.5771 27.4135C58.48 27.431 58.3799 27.4189 58.2897 27.3788C58.2136 27.3285 58.1585 27.2521 58.1349 27.164C58.0745 26.9964 58.069 26.8139 58.1191 26.6429C58.1679 26.473 58.2813 26.329 58.435 26.2418C58.5096 26.1976 58.5946 26.1743 58.6813 26.1743C58.768 26.1743 58.8531 26.1976 58.9277 26.2418C59.0086 26.3109 59.0739 26.3966 59.1191 26.493C59.1643 26.5894 59.1884 26.6943 59.1898 26.8008C59.2058 26.8989 59.1993 26.9993 59.1709 27.0945C59.1476 27.1484 59.1138 27.1971 59.0715 27.2377C59.0292 27.2784 58.9793 27.3102 58.9245 27.3314C58.814 27.3776 58.6966 27.4053 58.5771 27.4135Z" fill="#0C4E5F"/>
<path d="M58.9468 26.7155C58.9233 26.6639 58.8848 26.6207 58.8364 26.5914C58.7879 26.5621 58.7317 26.5481 58.6751 26.5513C58.5551 26.5734 58.4951 26.7092 58.4762 26.8292C58.4539 26.9119 58.4539 26.9991 58.4762 27.0819C58.4875 27.1235 58.5086 27.1618 58.5377 27.1937C58.5668 27.2255 58.6031 27.25 58.6436 27.265C58.7067 27.2792 58.7728 27.2708 58.8305 27.2414C58.8882 27.212 58.9337 27.1634 58.9594 27.104C58.9875 27.0427 59.001 26.9757 58.9988 26.9082C58.9966 26.8408 58.9788 26.7748 58.9468 26.7155Z" fill="#05220E"/>
<path d="M58.435 26.8134C58.4556 26.8137 58.4759 26.8092 58.4945 26.8005C58.5131 26.7917 58.5295 26.7789 58.5424 26.7629C58.5702 26.734 58.5857 26.6955 58.5857 26.6555C58.5857 26.6154 58.5702 26.5769 58.5424 26.5481C58.5222 26.5348 58.4986 26.5277 58.4745 26.5277C58.4503 26.5277 58.4267 26.5348 58.4066 26.5481C58.3856 26.5598 58.3676 26.5761 58.354 26.5958C58.3403 26.6155 58.3313 26.6381 58.3276 26.6618C58.3221 26.6961 58.3303 26.7312 58.3503 26.7595C58.3704 26.7879 58.4008 26.8072 58.435 26.8134Z" fill="white"/>
<path d="M63.7157 24.9531C63.8941 24.9544 64.0688 25.005 64.2203 25.0991C64.3719 25.1933 64.4945 25.3275 64.5748 25.4869C64.6103 25.4712 64.6401 25.4449 64.6599 25.4115C64.6797 25.378 64.6886 25.3393 64.6853 25.3006C64.6676 25.2078 64.6199 25.1234 64.5495 25.0605C64.421 24.9152 64.2654 24.7961 64.0915 24.71C63.9175 24.6239 63.72 24.5972 63.5293 24.6342C63.4643 24.6437 63.4022 24.6677 63.3475 24.7043C63.2929 24.7409 63.2471 24.7892 63.2135 24.8458C63.1964 24.8818 63.1875 24.9212 63.1875 24.961C63.1875 25.0009 63.1964 25.0403 63.2135 25.0763C63.3662 24.9895 63.5401 24.9469 63.7157 24.9531Z" fill="#0C4E5F"/>
<path d="M63.6303 26.6523C63.6241 26.5294 63.6597 26.4081 63.7314 26.3081C63.7734 26.2318 63.8366 26.1694 63.9135 26.1284C63.9903 26.0875 64.0774 26.0698 64.1641 26.0775C64.221 26.0941 64.2734 26.1235 64.3172 26.1635C64.361 26.2034 64.395 26.2529 64.4168 26.3081C64.4564 26.4187 64.4788 26.5349 64.4831 26.6523C64.4974 26.721 64.4957 26.792 64.4781 26.8599C64.4606 26.9278 64.4277 26.9908 64.382 27.044C64.3314 27.0766 64.2735 27.0963 64.2135 27.1013C64.1534 27.1063 64.0931 27.0963 64.0378 27.0724C63.9374 27.0475 63.8459 26.995 63.7739 26.9207C63.7019 26.8464 63.6521 26.7535 63.6303 26.6523Z" fill="#0C4E5F"/>
<path d="M64.2368 26.4471C64.2171 26.4176 64.1894 26.3945 64.1569 26.3805C64.1244 26.3664 64.0885 26.3622 64.0536 26.3681C64.0287 26.3804 64.0066 26.3976 63.9887 26.4188C63.9707 26.44 63.9574 26.4647 63.9494 26.4913C63.9142 26.5683 63.9 26.6533 63.9083 26.7376C63.9145 26.7794 63.9314 26.8188 63.9574 26.852C63.9835 26.8853 64.0177 26.9111 64.0568 26.9271C64.1132 26.9397 64.1723 26.9299 64.2218 26.8999C64.2712 26.8699 64.3071 26.8219 64.3221 26.7661C64.3349 26.71 64.3338 26.6516 64.3189 26.596C64.3041 26.5404 64.2759 26.4893 64.2368 26.4471Z" fill="#05220E"/>
<path d="M63.962 26.5197C63.9777 26.5205 63.9934 26.5174 64.0077 26.5108C64.022 26.5042 64.0345 26.4943 64.0441 26.4818C64.0657 26.4599 64.0778 26.4304 64.0778 26.3997C64.0778 26.3689 64.0657 26.3394 64.0441 26.3176C64.0283 26.3084 64.0103 26.3036 63.992 26.3036C63.9737 26.3036 63.9557 26.3084 63.9399 26.3176C63.924 26.327 63.9104 26.3398 63.9001 26.3551C63.8897 26.3704 63.8828 26.3878 63.8799 26.406C63.8776 26.4189 63.878 26.4321 63.8809 26.4448C63.8838 26.4576 63.8893 26.4696 63.8969 26.4802C63.9046 26.4908 63.9143 26.4997 63.9255 26.5065C63.9367 26.5133 63.9491 26.5178 63.962 26.5197Z" fill="white"/>
<path d="M64.215 27.1703C63.198 26.586 61.3535 26.8355 60.2544 27.0218C59.1553 27.2082 57.8382 27.8683 56.8465 28.3768C56.5542 28.4894 56.3114 28.702 56.1612 28.9769C56.1033 29.1485 56.0797 29.3299 56.0917 29.5106C56.0917 30.4329 56.1422 31.352 56.218 32.271C56.2281 32.5718 56.289 32.8686 56.398 33.1491C56.5416 33.4228 56.7393 33.6646 56.9792 33.8597C57.3283 34.1797 57.7343 34.4315 58.1762 34.6019C58.8931 34.8577 60.8355 35.2746 61.543 34.9967C62.2505 34.7188 62.1747 34.6809 62.7053 34.1345C63.7235 33.0838 64.5289 31.8462 65.0772 30.4897C65.3204 29.858 65.5952 28.7589 65.3488 28.4115C65.0215 27.9542 64.6409 27.5375 64.215 27.1703Z" fill="#05220E"/>
<path d="M61.009 27.2588C59.4227 27.3882 57.9195 28.0224 56.72 29.0685C56.8716 30.5845 56.9095 31.9331 57.1053 33.4491C57.3268 33.8427 57.6105 34.1978 57.9454 34.5009C58.7697 35.1325 59.5878 35.262 60.6079 35.4168C62.2155 35.6631 63.2894 34.624 64.1705 33.2596C65.0517 31.8952 65.4339 29.9339 65.6013 28.32C64.1547 27.1766 62.8472 27.1198 61.009 27.2588Z" fill="white"/>
<path d="M56.9536 29.5391C55.6902 28.8664 54.8628 28.3958 54.0574 27.9441L53.5583 27.663L53.7163 27.3788L54.2153 27.6599C55.0207 28.1147 55.8545 28.5821 57.1052 29.239L56.9536 29.5391Z" fill="white"/>
<path d="M54.2963 31.0387L54.1538 31.3312L57.3113 32.8691L57.4537 32.5767L54.2963 31.0387Z" fill="white"/>
<path d="M55.6587 25.3101C57.1589 24.1099 62.0955 24.391 65.1338 24.1636C65.0706 23.8477 64.9222 23.6077 64.7327 23.0139L64.1926 21.8074C62.9293 20.4493 61.0342 19.805 59.1898 19.7829C57.3453 19.7608 55.5261 20.3135 53.8206 21.0463C53.2552 21.2895 52.6393 21.6148 52.4498 22.1991C52.3693 22.5418 52.3693 22.8986 52.4498 23.2413C52.6741 24.6152 52.9457 25.9796 53.2173 27.3472C53.3783 28.4576 53.6974 29.5392 54.1648 30.5592C54.3671 30.9406 54.6062 31.3013 54.8786 31.6362C54.5028 29.1506 54.1553 26.8103 55.6587 25.3101Z" fill="#05220E"/>
<path d="M55.466 15.8666C53.7037 16.3498 52.0203 17.272 50.8738 18.7091C49.7273 20.1461 49.1588 22.0412 48.9567 23.8983C48.7349 25.5875 48.8804 27.3048 49.383 28.9327C49.9257 30.682 51.1075 32.1627 52.693 33.0796C52.9592 33.2381 53.2689 33.3078 53.5773 33.2786C54.4269 33.168 54.5943 32.2963 54.6259 31.5731C54.6943 29.859 54.5469 28.1432 54.1869 26.466C54.1231 26.1799 54.1225 25.8833 54.1852 25.5969C54.2478 25.3105 54.3722 25.0413 54.5496 24.8079C54.727 24.5746 54.9532 24.3827 55.2124 24.2458C55.4716 24.1089 55.7576 24.0302 56.0503 24.0151C59.4171 23.8572 62.7618 23.8225 66.1571 23.5824C66.3149 23.587 66.47 23.5405 66.5992 23.4498C66.6598 23.3783 66.705 23.2952 66.7322 23.2056C66.7593 23.1159 66.7678 23.0217 66.7572 22.9286C66.7572 20.3609 65.1622 17.9258 62.9355 16.653C60.7089 15.3802 57.9453 15.2033 55.466 15.8666Z" fill="#DDFAE8"/>
<path d="M53.3153 33.3386C53.1138 33.3425 52.918 33.2716 52.7658 33.1396C52.7495 33.1257 52.7362 33.1086 52.7267 33.0894C52.7171 33.0703 52.7115 33.0494 52.7101 33.028C52.7087 33.0066 52.7115 32.9852 52.7185 32.9649C52.7255 32.9447 52.7365 32.9261 52.7508 32.9101C52.765 32.8941 52.7824 32.8812 52.8017 32.872C52.8211 32.8628 52.842 32.8576 52.8634 32.8566C52.8848 32.8556 52.9062 32.8589 52.9263 32.8663C52.9464 32.8737 52.9649 32.885 52.9805 32.8996C53.0321 32.9431 53.0921 32.9757 53.1567 32.9952C53.2213 33.0148 53.2893 33.0209 53.3564 33.0133C53.5694 32.9974 53.7678 32.8988 53.9091 32.7385C54.1433 32.4086 54.2722 32.0155 54.2786 31.611C54.3962 30.427 54.3031 29.2315 54.0038 28.0799C53.9723 27.9599 53.9375 27.8367 53.9028 27.7136C53.6722 26.8671 53.429 25.9891 53.7733 25.1869C53.9322 24.8571 54.159 24.5645 54.4387 24.3283C54.7185 24.0921 55.0449 23.9176 55.3967 23.8161C56.0707 23.6266 56.7684 23.5341 57.4686 23.5414L64.8623 23.2698C65.5222 23.2854 66.1783 23.1639 66.7889 22.9129C66.8274 22.894 66.8718 22.8912 66.9124 22.9052C66.953 22.9191 66.9864 22.9485 67.0052 22.9871C67.0241 23.0256 67.0268 23.0701 67.0129 23.1106C66.999 23.1512 66.9695 23.1846 66.931 23.2034C66.2759 23.4744 65.5709 23.6035 64.8623 23.5824L57.4654 23.854C56.7963 23.845 56.1294 23.9322 55.4851 24.113C55.1777 24.2002 54.8921 24.3509 54.6467 24.5555C54.4013 24.76 54.2017 25.0139 54.0607 25.3006C53.7449 26.0144 53.9849 26.8324 54.2028 27.6251C54.2376 27.7515 54.2723 27.8778 54.3039 28.001C54.6142 29.1883 54.7105 30.4214 54.5881 31.6426C54.5764 32.1136 54.421 32.5698 54.1428 32.9501C53.9446 33.1762 53.6657 33.3157 53.3659 33.3386H53.3153Z" fill="#A6BEBD"/>
<path d="M59.8403 16.1223C58.3589 15.7989 56.8175 15.8839 55.3806 16.3681C53.9437 16.8523 52.6653 17.7176 51.6818 18.8717C50.6983 20.0257 50.0467 21.4252 49.7964 22.9207C49.5462 24.4162 49.7068 25.9516 50.261 27.3629C50.0038 26.1641 49.9898 24.9258 50.2201 23.7215C50.4503 22.5172 50.9199 21.3714 51.6012 20.352C52.2825 19.3326 53.1615 18.4603 54.1862 17.7869C55.2108 17.1136 56.3603 16.6528 57.5663 16.4319L59.8403 16.1223Z" fill="#FFC088"/>
<path d="M46.3953 43.0632C46.6016 42.9537 46.8356 42.9073 47.0681 42.9297C47.3006 42.9522 47.5213 43.0425 47.7029 43.1895C48.06 43.4916 48.3376 43.8765 48.5114 44.3107C49.56 46.569 49.7147 49.1588 49.38 51.6255C49.0452 54.0922 48.2493 56.4672 47.4565 58.8297C50.4549 60.6681 53.596 62.2629 56.8495 63.5988C51.5801 64.7212 46.0856 64.0137 41.2725 61.5933C44.3266 56.4641 44.8414 50.2769 45.7763 44.3802C45.8552 43.8844 45.9753 43.3443 46.3953 43.0632Z" fill="#05220E"/>
<path d="M50.1441 70.124C51.5211 70.4714 53.0214 70.7556 54.3289 70.2029C55.3933 69.7513 56.1576 68.8101 56.8556 67.8784C57.5536 66.9467 58.2548 65.696 57.7368 64.6348C57.2693 63.6873 56.0692 63.3904 55.0301 63.1535C51.792 62.4129 48.7139 61.0948 45.9435 59.2624C46.3825 57.0515 47.3047 54.9733 48.0627 52.8509C48.8207 50.7285 49.424 48.4892 49.1903 46.2468C48.9565 44.0044 47.7216 41.7651 45.6687 40.8176C44.9987 40.4768 44.2278 40.3904 43.4989 40.5744C42.4945 40.8902 41.8471 41.8377 41.3291 42.7537C38.1708 48.3787 38.6698 54.269 36.8127 61.388C36.5815 62.4734 36.782 63.6062 37.3717 64.5463C37.9876 65.5886 39.1341 66.176 40.2332 66.6751C43.4268 68.1194 46.7438 69.2736 50.1441 70.124Z" fill="#A6BEBD"/>
<path d="M53.9849 67.951C53.8775 68.5827 53.9186 69.3281 54.3702 69.7986C54.7001 70.091 55.0972 70.2971 55.5262 70.3987C55.8892 70.5469 56.2817 70.6085 56.6726 70.5788C57.0712 70.4858 57.4324 70.2744 57.7086 69.9724C58.4537 69.2554 58.985 68.3457 59.2435 67.3446C59.4255 66.7892 59.3951 66.186 59.1583 65.6517C59.0151 65.4147 58.8225 65.2113 58.5935 65.0554C58.3646 64.8995 58.1048 64.7948 57.8318 64.7484C57.3711 64.6705 56.8987 64.6991 56.4509 64.8321C56.003 64.9652 55.5916 65.1991 55.2482 65.5159C54.5663 66.1632 54.1214 67.0207 53.9849 67.951Z" fill="#05220E"/>
<path d="M53.8395 70.1903C53.8095 70.1906 53.7799 70.1824 53.7543 70.1668C53.7286 70.1512 53.7078 70.1287 53.6942 70.1018C53.5205 69.7639 53.3058 69.786 52.8731 69.8492C52.533 69.9275 52.1786 69.9177 51.8434 69.8207C50.4248 69.3589 48.9826 68.973 47.5228 68.6648C46.0788 68.3656 44.6514 67.9914 43.2464 67.5436C40.5965 66.6497 37.9751 65.4211 36.7433 62.5091C36.7264 62.4693 36.7258 62.4244 36.7418 62.3842C36.7578 62.344 36.789 62.3117 36.8286 62.2944C36.8685 62.2786 36.9129 62.279 36.9524 62.2955C36.9919 62.3121 37.0235 62.3434 37.0402 62.3828C38.2246 65.178 40.7734 66.3687 43.3569 67.2372C44.7516 67.6812 46.1685 68.0523 47.6018 68.3489C49.0687 68.6562 50.5183 69.041 51.9445 69.5017C52.2301 69.581 52.5311 69.5865 52.8194 69.5175C53.2268 69.4512 53.6911 69.3817 53.9785 69.9408C53.9883 69.9596 53.9943 69.9802 53.9962 70.0014C53.998 70.0226 53.9956 70.0439 53.9892 70.0642C53.9827 70.0845 53.9723 70.1032 53.9585 70.1195C53.9448 70.1357 53.9279 70.149 53.909 70.1587C53.8886 70.1744 53.8648 70.1852 53.8395 70.1903Z" fill="#E8E8E8"/>
<path d="M37.6908 129.391C38.6479 128.856 39.7138 128.546 40.8081 128.484C41.9071 128.423 42.9885 128.78 43.8339 129.485C44.1003 129.751 44.258 130.107 44.276 130.483C44.2765 130.507 44.2698 130.53 44.2568 130.55C44.2437 130.57 44.2251 130.585 44.2032 130.594C44.1813 130.603 44.1572 130.605 44.1341 130.6C44.111 130.595 44.09 130.583 44.0739 130.565C43.6391 130.136 43.1222 129.798 42.5541 129.572C41.986 129.346 41.3782 129.237 40.7671 129.252C39.4311 129.334 38.1583 129.85 37.1413 130.72C37.0254 130.633 36.9472 130.504 36.9226 130.361C36.898 130.218 36.9287 130.071 37.0086 129.95C37.1809 129.705 37.4168 129.511 37.6908 129.391Z" fill="#05220E"/>
<path d="M37.7509 130.515C38.7083 129.981 39.774 129.672 40.8682 129.608C41.9674 129.545 43.0494 129.903 43.8939 130.61C44.1604 130.874 44.3181 131.229 44.336 131.605C44.3372 131.628 44.3309 131.652 44.3182 131.672C44.3054 131.693 44.2868 131.708 44.2647 131.718C44.2427 131.727 44.2183 131.729 44.1949 131.724C44.1715 131.719 44.1502 131.707 44.1339 131.69C43.7003 131.258 43.1838 130.919 42.6155 130.692C42.0472 130.465 41.4389 130.355 40.8271 130.37C39.4914 130.451 38.2186 130.966 37.2013 131.835C37.0857 131.748 37.0076 131.62 36.9829 131.478C36.9583 131.335 36.9889 131.188 37.0687 131.068C37.2409 130.824 37.4769 130.633 37.7509 130.515Z" fill="#05220E"/>
<path d="M37.3308 132.502C38.1496 131.608 39.28 131.062 40.4891 130.976C41.6989 130.903 42.8983 131.237 43.897 131.924C44.0981 132.035 44.2609 132.205 44.3644 132.41C44.4104 132.512 44.4158 132.628 44.3794 132.734C44.3431 132.841 44.2677 132.929 44.1686 132.982C43.216 132.285 42.0737 131.897 40.8943 131.867C39.7148 131.837 38.5543 132.167 37.5677 132.814C37.4792 132.871 37.3624 132.931 37.2771 132.868C37.1918 132.805 37.2392 132.603 37.3308 132.502Z" fill="#05220E"/>
<path d="M61.6374 76.2196H51.1264C48.9566 76.5828 46.1425 75.5248 44.5475 76.886C42.0492 79.0306 41.5123 84.2039 41.9071 87.2675C41.9426 87.8374 42.1533 88.3823 42.5104 88.8278C43.3189 89.7058 44.8065 89.6584 46.0825 89.6616C48.4262 89.6664 50.7492 90.101 52.9361 90.9439C54.2184 91.4429 55.5828 92.0967 56.9377 91.784C57.9579 91.5503 58.719 90.8144 59.4139 90.1101C61.0468 88.4614 62.6923 86.7748 63.6903 84.7661C64.6883 82.7574 64.9536 80.3444 63.8166 78.4052C63.2693 77.5177 62.5233 76.7695 61.6374 76.2196Z" fill="#A6BEBD"/>
<path d="M59.5909 79.7791C58.9276 78.9863 58.1159 78.1399 57.08 78.1241C56.3094 78.1241 55.6145 78.5757 55.005 79.0495C50.7475 82.3342 47.6776 86.9075 44.9993 91.5724C39.3362 101.438 35.0917 112.052 32.3911 123.102C37.1824 123.642 41.9246 124.552 46.5753 125.825C50.0495 113.804 53.5679 101.651 59.7804 90.7891C60.99 88.6698 62.3513 86.3674 61.9312 83.9576C61.6533 82.3658 60.6268 81.0203 59.5909 79.7791Z" fill="#A6BEBD"/>
<path d="M42.4094 88.673C42.7317 89.0667 43.1537 89.3668 43.6315 89.5418C44.1093 89.7168 44.6253 89.7603 45.1256 89.6679C46.1264 89.4613 47.0318 88.9321 47.7028 88.1613C48.3636 87.3945 48.9386 86.5578 49.4178 85.6662C47.5427 87.5139 45.0405 88.5874 42.4094 88.673Z" fill="#05220E"/>
<path d="M34.0272 123.402H33.9861C33.9653 123.397 33.9457 123.388 33.9286 123.375C33.9115 123.362 33.8972 123.346 33.8865 123.327C33.8759 123.309 33.8692 123.288 33.8667 123.267C33.8643 123.245 33.8663 123.224 33.8724 123.203C36.2381 114.344 39.8733 105.055 45.0246 94.8128C46.3227 92.2261 47.7976 89.5826 50.2485 88.1803C50.2918 88.1561 50.3284 88.1215 50.3549 88.0796C50.3814 88.0376 50.3969 87.9897 50.4001 87.9403C50.405 87.8926 50.3974 87.8446 50.378 87.8008C50.3586 87.757 50.3281 87.7191 50.2896 87.6907L49.8853 87.3749C49.7909 87.3004 49.7162 87.2038 49.6677 87.0937C49.6193 86.9836 49.5985 86.8632 49.6074 86.7432C49.6188 86.625 49.6594 86.5114 49.7255 86.4127C49.7917 86.314 49.8813 86.2333 49.9864 86.1779C50.8004 85.7562 51.6753 85.4642 52.5794 85.3125C52.0328 85.1957 51.4719 85.1605 50.9149 85.2083C50.8308 85.2147 50.7468 85.1939 50.6755 85.1487C50.6042 85.1036 50.5494 85.0366 50.5192 84.9578C50.489 84.879 50.4851 84.7926 50.508 84.7113C50.531 84.6301 50.5795 84.5585 50.6465 84.5071C51.2363 84.0607 51.8715 83.6774 52.5415 83.3638L46.8154 84.4566C45.9061 84.6813 44.9653 84.7507 44.0329 84.6619C42.9559 84.4976 42.1758 83.9639 41.822 83.1585C41.8137 83.139 41.8094 83.1181 41.8092 83.0969C41.809 83.0757 41.8129 83.0547 41.8208 83.035C41.8288 83.0154 41.8405 82.9975 41.8553 82.9824C41.8701 82.9672 41.8878 82.9552 41.9073 82.9469C41.9268 82.9386 41.9477 82.9342 41.9689 82.934C41.9901 82.9338 42.0111 82.9378 42.0308 82.9457C42.0504 82.9536 42.0683 82.9653 42.0834 82.9802C42.0986 82.995 42.1106 83.0127 42.1189 83.0322C42.4979 83.926 43.3823 84.2387 44.0708 84.3429C44.9656 84.4246 45.8678 84.3552 46.7396 84.1376L54.9797 82.5584C55.0204 82.5534 55.0614 82.564 55.0944 82.5881C55.1275 82.6122 55.1502 82.648 55.1578 82.6882C55.1655 82.7284 55.1575 82.77 55.1356 82.8046C55.1136 82.8391 55.0794 82.864 55.0398 82.8743C53.5121 83.1674 52.0732 83.8107 50.836 84.7535C50.8248 84.7621 50.8168 84.7743 50.8134 84.7881C50.8099 84.8018 50.8112 84.8163 50.817 84.8293C50.8213 84.8431 50.8303 84.8551 50.8423 84.8632C50.8544 84.8712 50.8689 84.8749 50.8834 84.8735C51.4718 84.8222 52.0647 84.8584 52.6426 84.9809C52.7263 84.9809 52.8067 85.0142 52.8659 85.0734C52.9251 85.1326 52.9584 85.2129 52.9584 85.2967C52.9584 85.3805 52.9251 85.4608 52.8659 85.52C52.8067 85.5793 52.7263 85.6125 52.6426 85.6125C51.7722 85.7576 50.9301 86.039 50.1475 86.4464C50.0885 86.4763 50.0384 86.5212 50.0024 86.5767C49.9663 86.6322 49.9456 86.6961 49.9422 86.7622C49.935 86.8301 49.9451 86.8988 49.9716 86.9617C49.9981 87.0247 50.0401 87.0799 50.0938 87.1222L50.5012 87.4381C50.5792 87.5011 50.6411 87.5818 50.6818 87.6736C50.7224 87.7653 50.7406 87.8654 50.7349 87.9655C50.7269 88.0681 50.6939 88.1672 50.6389 88.2542C50.5839 88.3412 50.5084 88.4134 50.4191 88.4645C48.044 89.8289 46.6006 92.4251 45.3246 94.9676C40.1955 105.191 36.5539 114.458 34.1946 123.298C34.1817 123.331 34.1585 123.359 34.1283 123.378C34.0981 123.397 34.0626 123.405 34.0272 123.402Z" fill="#E8E8E8"/>
<path d="M101.177 77.1703C100.45 74.8173 99.6641 72.3696 97.9301 70.6262C95.6056 68.289 92.0682 67.7015 88.7709 67.5499C82.3089 67.2499 75.6858 68.2005 69.9155 71.1283C67.932 72.1359 66.0181 73.4087 64.7168 75.2153C63.065 77.5082 62.5628 80.4265 62.3733 83.247C61.7227 93.0379 64.322 102.737 65.4243 112.5C65.7559 115.409 65.8602 118.649 64.0252 120.929C63.4598 121.634 62.6797 122.483 63.0776 123.292C63.3745 123.886 64.142 124.028 64.8053 124.091C74.454 125.038 84.4597 125.07 93.5242 121.63C98.6471 119.685 103.561 116.426 105.978 111.508C107.667 108.072 107.999 104.095 107.573 100.289C107.146 96.4836 106.012 92.7978 104.879 89.1373L101.177 77.1703Z" fill="#DDFAE8"/>
<path d="M102.604 103.577C100.893 100.236 97.8038 97.4343 94.099 96.8279C90.6849 96.2657 87.1317 97.6396 84.5798 99.9863C82.0278 102.333 80.3886 105.517 79.4095 108.83C78.4304 112.143 78.0577 115.611 77.6945 119.05C77.5398 120.535 77.4798 122.278 78.6168 123.248C79.6338 124.113 81.1435 123.949 82.4542 123.69C86.8922 122.813 91.2075 121.402 95.3055 119.486C98.8429 117.831 102.472 115.484 103.653 111.764C104.506 109.067 103.893 106.085 102.604 103.577Z" fill="#05220E"/>
<path d="M70.1272 76.008C70.0315 75.8492 69.9021 75.7133 69.7481 75.6101C69.594 75.5069 69.4192 75.4389 69.2359 75.4109C69.0526 75.3828 68.8654 75.3955 68.6876 75.4479C68.5097 75.5003 68.3456 75.5913 68.2069 75.7143C66.3971 77.3282 65.3644 79.7917 65.0801 82.2394C64.7295 85.2872 65.3738 88.354 66.0276 91.3513L69.4102 90.8049C69.1733 88.7298 69.0281 86.6138 69.4418 84.5703C69.7624 82.7958 70.6227 81.1634 71.9053 79.8959C72.095 79.7186 72.2073 79.4738 72.2179 79.2143C72.2285 78.9549 72.1367 78.7017 71.9622 78.5094C71.2679 77.7395 70.6531 76.9014 70.1272 76.008Z" fill="white"/>
<path d="M96.9543 73.6645C96.9178 74.1351 96.8332 74.6008 96.7016 75.0542C96.6493 75.2298 96.647 75.4165 96.695 75.5934C96.743 75.7703 96.8394 75.9302 96.9732 76.0554C98.5925 77.5415 99.8029 79.4185 100.489 81.5067C100.654 81.5359 100.824 81.5017 100.965 81.4109C101.106 81.3202 101.208 81.1796 101.25 81.0171C101.319 80.689 101.303 80.3486 101.202 80.0286C100.586 77.575 99.4126 75.2966 97.7723 73.3708C97.7097 73.302 97.6281 73.2533 97.5379 73.2309C97.4477 73.2085 97.3528 73.2132 97.2653 73.2447C97.1778 73.2761 97.1015 73.3327 97.0462 73.4075C96.9908 73.4822 96.9589 73.5716 96.9543 73.6645Z" fill="white"/>
<path d="M66.1257 108.975C66.4195 104.427 65.4719 99.9041 64.6729 95.4161C63.8738 90.9281 63.2327 86.3042 64.1265 81.8351C65.0203 77.3661 67.7365 73.0328 71.9434 71.2926C67.4996 72.657 64.7771 76.5607 63.6717 81.0835C62.5663 85.6062 63.04 90.6564 63.9559 95.2108C64.8719 99.7651 65.8952 104.332 66.1257 108.975Z" fill="#FFC088"/>
<path d="M90.4764 69.3786C90.4533 68.1153 90.4343 66.8519 90.4196 65.5886C85.7816 65.0961 81.0924 65.4785 76.5955 66.7161C76.8639 67.7078 77.1387 68.7059 77.4198 69.7008C78.5821 75.7237 84.4092 98.824 84.4092 98.824L90.2143 97.4343L82.6342 70.8378C85.29 70.6108 87.9168 70.122 90.4764 69.3786Z" fill="#05220E"/>
<path d="M90.4765 69.0375C86.7066 70.1559 82.7753 70.6321 78.8474 70.4461C81.4594 79.6054 84.722 88.9099 90.0627 97.1374C91.6419 96.7774 93.1832 96.3004 94.7245 95.8141C92.9053 91.4934 91.8504 86.8601 91.2503 82.1984C90.7538 77.8287 90.4955 73.4353 90.4765 69.0375Z" fill="#FFC088"/>
<path d="M101.689 61.5964C101.689 62.5123 101.145 63.2546 100.473 63.2546C99.7998 63.2546 99.2598 62.5123 99.2598 61.5964C99.2598 60.6805 99.803 59.9351 100.473 59.9351C101.142 59.9351 101.689 60.6773 101.689 61.5964Z" fill="#05220E"/>
<path d="M105.346 62.3576C105.28 62.4899 105.184 62.6046 105.064 62.692C104.945 62.7793 104.807 62.8369 104.661 62.8598C104.37 62.9086 104.073 62.9086 103.783 62.8598L99.4714 62.3418L99.5757 60.7626L103.615 60.9932C104.053 60.9832 104.486 61.0785 104.879 61.2711C105.068 61.3723 105.218 61.535 105.303 61.7324C105.388 61.9299 105.403 62.1503 105.346 62.3576Z" fill="#05220E"/>
<path d="M100.122 60.0836C98.2081 60.2573 96.7363 59.6572 95.3529 58.3212C94.5349 57.5284 93.9032 56.5178 92.9304 55.9208C91.3513 54.9449 89.3015 55.3302 87.4412 55.5229C84.6903 55.8071 81.8035 55.6176 79.28 56.7452C77.4166 57.579 75.9353 59.0539 74.3498 60.3362C71.6061 62.5542 68.4793 64.2508 65.1243 65.3422C65.7379 66.0457 66.2126 66.8592 66.5234 67.7394C69.2049 67.193 72.0158 67.1298 74.7636 67.2341C79.0431 67.3983 83.3417 67.9194 87.596 67.4425C89.3457 67.2467 91.1081 66.8709 92.6493 66.0086C93.8874 65.3138 94.9392 64.3221 96.1488 63.5735C97.3585 62.825 98.4512 62.4555 99.8125 62.8692C100.675 62.2376 100.744 60.75 100.122 60.0836Z" fill="#DDFAE8"/>
<path d="M74.9248 62.0575C75.0947 62.028 75.2563 61.9623 75.3986 61.8649C76.0903 61.3722 75.9292 60.2415 76.5103 59.6193L73.0867 62.2313C73.6425 61.9533 74.3184 62.1807 74.9248 62.0575Z" fill="#FFC088"/>
<path d="M69.2459 69.9629C69.4133 69.888 69.5484 69.756 69.6272 69.5904C69.7059 69.4249 69.723 69.2367 69.6755 69.0596C69.5858 68.7381 69.5632 68.4016 69.6091 68.0711C69.6986 67.6937 69.7619 67.3106 69.7986 66.9246C69.7503 66.3603 69.5298 65.8244 69.167 65.3896C68.947 65.0359 68.6391 64.7453 68.2732 64.5463C67.7047 64.2873 67.0446 64.4642 66.4445 64.6411C66.0592 64.7579 65.6107 64.9285 65.497 65.3201C65.4602 65.5047 65.4744 65.6957 65.538 65.8728C65.7523 66.5998 66.1858 67.2429 66.7793 67.7142C67.1456 68.0047 67.6004 68.2732 67.692 68.7312C67.7143 68.9014 67.6955 69.0745 67.6373 69.236C67.579 69.3976 67.483 69.5428 67.3572 69.6597C67.1032 69.8915 66.8184 70.0871 66.5108 70.2408C64.082 71.6242 62.0607 73.6329 60.3488 75.8406C60.3046 75.8975 60.2636 75.9575 60.2225 76.0206L60.2036 76.0427C60.0959 76.1819 60.0381 76.3532 60.0393 76.5291C60.0688 76.675 60.142 76.8085 60.2492 76.9117C60.3564 77.015 60.4925 77.0831 60.6394 77.1071C60.8542 77.1576 61.129 77.1261 61.2205 76.9271C61.2648 76.7797 61.2581 76.6217 61.2016 76.4786C61.168 76.3326 61.1531 76.183 61.1574 76.0333C63.3793 73.4449 66.1398 71.3731 69.2459 69.9629Z" fill="white"/>
<path d="M93.4834 63.7504C94.1845 62.6292 94.115 61.2016 93.8782 59.9003C93.7139 58.9528 93.4518 57.958 92.7348 57.3231C92.0716 56.7388 91.1557 56.5746 90.265 56.4862C87.4754 56.2113 84.659 56.4674 81.9648 57.241C80.2972 57.7211 78.5412 58.5265 77.8053 60.0993C77.0315 61.7543 77.521 64.2052 78.8696 65.4401C80.2183 66.675 82.0627 66.5866 83.8883 66.6276C86.0849 66.6664 88.2737 66.3551 90.3724 65.7054C92.5232 65.0327 92.8296 64.7926 93.4834 63.7504Z" fill="white"/>
<path d="M91.0229 56.982C91.8846 57.9109 92.4622 59.0672 92.6874 60.3141C92.906 61.5536 93.0064 62.811 92.9874 64.0694C93.733 62.2543 93.733 60.2184 92.9874 58.4033C92.8338 57.9835 92.5865 57.6044 92.2642 57.2947C92.1001 57.1426 91.9005 57.0343 91.6836 56.9796C91.4666 56.925 91.2395 56.9258 91.0229 56.982Z" fill="#05220E"/>
<path d="M100.331 64.0757C100.558 64.1148 100.79 64.1222 101.019 64.0978C102.807 64.1862 104.282 64.0378 105.734 64.7295C105.684 64.7894 105.65 64.8613 105.636 64.9382C105.621 65.0151 105.627 65.0944 105.652 65.1685C105.699 65.2076 105.755 65.2347 105.814 65.2474C105.874 65.26 105.936 65.2578 105.995 65.241C106.053 65.2241 106.107 65.1932 106.151 65.1508C106.195 65.1084 106.227 65.0559 106.246 64.9979C106.273 64.8748 106.261 64.7465 106.212 64.6306C106.162 64.5146 106.078 64.4168 105.971 64.3505C105.713 64.1779 105.428 64.0498 105.128 63.9715C103.688 63.7061 102.383 63.5767 100.943 63.3114C100.564 63.1913 100.444 62.6986 100.514 62.307C100.637 61.93 100.727 61.5433 100.785 61.151C100.77 60.8316 100.636 60.5292 100.411 60.3019C100.186 60.0746 99.8855 59.9383 99.5662 59.9193C99.5303 59.9172 99.4945 59.924 99.4619 59.9392C99.4292 59.9543 99.4009 59.9773 99.3793 60.0061C99.3577 60.0349 99.3436 60.0685 99.3382 60.1041C99.3328 60.1396 99.3363 60.176 99.3483 60.2098C99.4996 60.6211 99.5587 61.0605 99.5216 61.4971C99.4845 61.9336 99.352 62.3567 99.1335 62.7365C99.1134 62.7697 99.1002 62.8066 99.0947 62.845C99.0892 62.8834 99.0915 62.9225 99.1016 62.96C99.1116 62.9975 99.1291 63.0326 99.1531 63.0631C99.177 63.0936 99.2069 63.119 99.2409 63.1376C99.6357 63.3429 99.8852 63.9146 100.331 64.0757Z" fill="white"/>
<path d="M101.655 53.198C103.517 52.4332 104.406 50.3038 103.642 48.4418C102.877 46.5798 100.747 45.6903 98.8853 46.4551C97.0234 47.2199 96.1339 49.3494 96.8987 51.2114C97.6635 53.0733 99.7929 53.9628 101.655 53.198Z" fill="white"/>
<path d="M100.021 61.0311C99.9439 61.0317 99.8692 61.0041 99.8111 60.9535C99.7529 60.9029 99.7152 60.8327 99.7052 60.7563L98.9851 56.2588C98.8978 55.7191 98.9433 55.1662 99.1177 54.648L100.498 50.5422C100.511 50.5017 100.532 50.4642 100.559 50.432C100.587 50.3997 100.621 50.3734 100.659 50.3545C100.697 50.3356 100.738 50.3246 100.781 50.3221C100.823 50.3196 100.865 50.3257 100.905 50.34C100.947 50.3525 100.985 50.3732 101.018 50.4009C101.05 50.4286 101.077 50.4627 101.096 50.5011C101.116 50.5395 101.127 50.5815 101.129 50.6244C101.132 50.6673 101.125 50.7102 101.111 50.7506L99.7305 54.8565C99.5909 55.2753 99.5541 55.7216 99.6231 56.1577L100.346 60.6552C100.354 60.6972 100.353 60.7403 100.344 60.782C100.334 60.8236 100.316 60.8628 100.291 60.8974C100.266 60.9319 100.234 60.961 100.198 60.9829C100.161 61.0048 100.12 61.019 100.078 61.0247L100.021 61.0311Z" fill="white"/>
<path d="M59.1424 59.6098C61.6909 59.6098 63.7568 57.5439 63.7568 54.9954C63.7568 52.447 61.6909 50.3811 59.1424 50.3811C56.594 50.3811 54.5281 52.447 54.5281 54.9954C54.5281 57.5439 56.594 59.6098 59.1424 59.6098Z" fill="white"/>
<path d="M67.4203 65.737C67.3469 65.7386 67.2752 65.7146 67.2175 65.6691C67.1599 65.6235 67.1199 65.5593 67.1045 65.4875L65.6959 59.5751C65.6227 59.2722 65.4872 58.988 65.2979 58.7406C65.1087 58.4931 64.8699 58.2879 64.5968 58.138L59.6539 55.4439C59.6154 55.4244 59.5813 55.3972 59.5537 55.364C59.5261 55.3308 59.5056 55.2923 59.4934 55.2509C59.4813 55.2094 59.4778 55.1659 59.4831 55.1231C59.4885 55.0803 59.5025 55.039 59.5245 55.0018C59.5443 54.9639 59.5715 54.9305 59.6046 54.9035C59.6377 54.8765 59.6759 54.8565 59.7169 54.8447C59.758 54.8329 59.801 54.8295 59.8434 54.8348C59.8857 54.8401 59.9266 54.8539 59.9635 54.8754L64.9126 57.5569C65.2658 57.7498 65.5746 58.0149 65.8189 58.3348C66.0632 58.6547 66.2376 59.0224 66.3307 59.414L67.7362 65.3391C67.7469 65.3804 67.7492 65.4234 67.7428 65.4656C67.7365 65.5078 67.7216 65.5483 67.6992 65.5846C67.6768 65.6209 67.6472 65.6523 67.6123 65.6769C67.5774 65.7014 67.5379 65.7187 67.4961 65.7275C67.4714 65.7337 67.4459 65.7369 67.4203 65.737Z" fill="white"/>
<path d="M54.4426 69.3754L55.1912 71.2041C58.6981 69.7253 62.303 68.4906 65.9801 67.5088C65.7576 66.8299 65.4293 66.1903 65.0073 65.6138L54.4426 69.3754Z" fill="#05220E"/>
<path d="M63.8355 65.7907C63.8336 65.5767 63.9 65.3677 64.0249 65.1939C64.1499 65.0201 64.3269 64.8907 64.5303 64.8242C64.7346 64.7637 64.9496 64.7488 65.1602 64.7804C65.3709 64.8121 65.572 64.8896 65.7495 65.0074C66.1054 65.2448 66.399 65.5644 66.6054 65.9391C66.8932 66.385 67.0667 66.8948 67.1107 67.4236C67.1054 67.7065 67.0317 67.9839 66.8959 68.2321C66.8286 68.3672 66.7309 68.4849 66.6106 68.5761C66.4902 68.6672 66.3504 68.7292 66.2021 68.7573C66.0538 68.7855 65.901 68.7789 65.7556 68.7382C65.6103 68.6975 65.4763 68.6238 65.3641 68.5227C64.5777 67.7994 63.8892 66.5645 63.8355 65.7907Z" fill="#05220E"/>
<path d="M55.8481 70.1555C56.2808 70.9767 56.0913 71.9242 55.428 72.2716C54.7648 72.619 53.8773 72.2369 53.4477 71.4157C53.0182 70.5945 53.2046 69.6439 53.8678 69.2965C54.5311 68.949 55.4186 69.3312 55.8481 70.1555Z" fill="#05220E"/>
<path d="M96.9006 102.308L93.259 102.785C88.6446 103.391 85.919 111.628 87.1697 121.198C88.4204 130.768 93.1706 138.025 97.7975 137.422C98.4292 137.34 100.811 137.024 101.439 136.945C106.053 136.339 108.779 128.102 107.525 118.532C106.271 108.962 101.531 101.704 96.9006 102.308Z" fill="#05220E"/>
<path d="M94.5799 131.951C96.5399 131.693 97.4376 126.221 96.5849 119.728C95.7323 113.235 93.4522 108.18 91.4922 108.437C89.5323 108.695 88.6345 114.167 89.4872 120.66C90.3398 127.153 92.6199 132.208 94.5799 131.951Z" fill="#A6BEBD"/>
<path d="M104.102 102.98C102.715 101.057 100.924 99.3735 98.7607 98.4007C94.3011 96.4015 90.1163 98.0849 87.9813 102.342C86.4905 105.321 85.2114 109.291 85.404 112.645C85.6188 116.394 85.7009 120.623 86.5221 124.29C93.6379 123.456 103.846 121.763 110.087 119.445C109.202 113.829 107.427 107.592 104.102 102.98Z" fill="#DDFAE8"/>
<path d="M91.0545 99.6641C89.7602 100.369 88.7825 101.54 88.3193 102.939C88.6267 102.617 89.0208 102.391 89.454 102.287C89.8873 102.184 90.3411 102.209 90.7607 102.358C91.6003 102.673 92.3002 103.276 92.7347 104.06C93.163 104.839 93.498 105.664 93.7328 106.521C95.0424 110.665 96.3542 114.807 97.6681 118.949C97.7917 119.498 98.055 120.006 98.4324 120.424C99.1999 121.135 100.41 120.948 101.433 120.718C101.165 120.753 100.893 120.715 100.645 120.609C100.397 120.502 100.183 120.33 100.024 120.111C99.7144 119.668 99.4895 119.171 99.3609 118.646C97.6491 113.083 96.1152 107.459 94.7592 101.774C94.5445 100.874 94.2539 99.8788 93.4359 99.4272C92.7031 99.045 91.7872 99.2693 91.0545 99.6641Z" fill="#FFC088"/>
<path d="M87.1854 109.556C86.7937 114.414 88.4834 119.161 89.6331 123.895C89.8636 124.843 90.0816 125.812 90.6185 126.621C91.1554 127.429 92.0935 128.055 93.0536 127.919C94.1085 127.767 94.8665 126.744 95.056 125.708C95.2455 124.672 94.996 123.585 94.7402 122.55C93.4515 117.182 92.1608 111.813 90.868 106.442C90.1542 105.715 88.8403 105.965 88.1518 106.72C87.4633 107.475 87.2643 108.539 87.1854 109.556Z" fill="#05220E"/>
<path d="M92.0116 122.36C92.0116 124.505 91.4146 126.245 90.6756 126.245C89.9365 126.245 89.3396 124.505 89.3396 122.36C89.3396 120.215 89.9397 118.472 90.6756 118.472C91.4115 118.472 92.0116 120.212 92.0116 122.36Z" fill="#A6BEBD"/>
<path d="M93.1706 126.652C93.2716 126.758 93.4029 126.831 93.5466 126.859C93.6903 126.887 93.8392 126.87 93.9729 126.81C94.2381 126.685 94.4498 126.468 94.5698 126.201C94.9867 125.376 94.8098 124.391 94.6014 123.491C93.4391 118.453 91.6483 113.558 90.7608 108.463C90.7222 108.034 90.5838 107.62 90.3565 107.254C90.2738 107.086 90.1357 106.953 89.9657 106.876C89.7957 106.799 89.6043 106.783 89.424 106.831C89.2436 106.879 89.0854 106.988 88.9761 107.139C88.8669 107.29 88.8134 107.475 88.8247 107.661C88.8288 107.957 88.8788 108.25 88.9732 108.53C89.8174 111.528 90.4725 114.577 90.9345 117.657C91.5851 117.825 92.002 118.45 92.2989 119.056C93.2838 121.099 93.5659 123.41 93.1011 125.629C93.0253 125.976 92.9464 126.377 93.1706 126.652Z" fill="#A6BEBD"/>
<path d="M89.9585 118.062C89.5178 118.612 89.1953 119.247 89.011 119.928C88.9863 119.561 89.0612 119.193 89.228 118.865C89.3948 118.536 89.6471 118.259 89.9585 118.062Z" fill="#A6BEBD"/>
<path d="M64.322 69.0312C64.0978 68.3648 63.7062 66.6498 63.0808 66.3308C62.3007 65.9328 61.3879 65.8886 60.532 65.8413C59.6193 65.7876 58.6907 65.6707 57.7906 65.8728C57.1404 66.0007 56.5519 66.3433 56.1198 66.8456C55.6334 67.4015 55.3618 67.831 55.3902 68.5701C55.4186 69.3091 56.6346 70.5977 57.3737 70.6262C57.2705 70.6903 57.1937 70.7893 57.1572 70.9052C57.1207 71.021 57.1269 71.1461 57.1747 71.2578C57.2757 71.4784 57.4285 71.6712 57.62 71.82L58.817 72.9033C59.0865 73.1938 59.429 73.4065 59.8088 73.5192C60.316 73.5615 60.8199 73.4053 61.2142 73.0834C61.9628 72.5812 62.7934 72.2306 63.3524 71.5042C64.0094 70.6578 64.6695 70.0513 64.322 69.0312Z" fill="#FFC088"/>
</svg>
