<svg width="391" height="378" viewBox="0 0 391 378" fill="none" xmlns="http://www.w3.org/2000/svg">
<path fill-rule="evenodd" clip-rule="evenodd" d="M0.839142 73.4331L15.4351 272.109L232.128 277.16L229.867 70.8193L290.057 20.4677L35.7138 6.07727L0.839142 73.4331Z" fill="#FFDAA2"/>
<path fill-rule="evenodd" clip-rule="evenodd" d="M232.127 277.159L229.866 70.8187L225.314 70.7747L229.675 277.174L232.127 277.159Z" fill="#829187"/>
<path fill-rule="evenodd" clip-rule="evenodd" d="M225.314 70.7747L221.79 72.1403L227.428 277.145L229.675 277.174L225.314 70.7747Z" fill="#05220E"/>
<path fill-rule="evenodd" clip-rule="evenodd" d="M19.1059 277.571L8.82703 72.1114L4.30434 72.0674L16.6536 277.586L19.1059 277.571Z" fill="#829187"/>
<path fill-rule="evenodd" clip-rule="evenodd" d="M4.30458 72.0674L0.839142 73.433L14.4366 277.556L16.6539 277.586L4.30458 72.0674Z" fill="#05220E"/>
<g opacity="0.5">
<path opacity="0.5" fill-rule="evenodd" clip-rule="evenodd" d="M48.8409 338.216L34.7149 338.554L16.2129 49.8501L32.1011 49.439L48.8409 338.216Z" fill="#53B175"/>
<path opacity="0.5" fill-rule="evenodd" clip-rule="evenodd" d="M82.5408 337.408L68.4001 337.746L54.0831 48.8658L69.9859 48.4399L82.5408 337.408Z" fill="#53B175"/>
<path opacity="0.5" fill-rule="evenodd" clip-rule="evenodd" d="M116.241 336.601L102.1 336.939L91.9829 47.8679L107.886 47.442L116.241 336.601Z" fill="#53B175"/>
<path opacity="0.5" fill-rule="evenodd" clip-rule="evenodd" d="M149.956 335.778L135.801 336.116L129.883 46.8689L145.8 46.4578L149.956 335.778Z" fill="#53B175"/>
<path opacity="0.5" fill-rule="evenodd" clip-rule="evenodd" d="M183.699 334.971L169.544 335.309L167.826 45.8709L183.743 45.4597L183.699 334.971Z" fill="#53B175"/>
<path opacity="0.5" fill-rule="evenodd" clip-rule="evenodd" d="M217.458 334.148L203.288 334.501L205.77 44.8721L221.717 44.4609L217.458 334.148Z" fill="#53B175"/>
</g>
<path fill-rule="evenodd" clip-rule="evenodd" d="M53.5547 243.871C53.0701 239.774 78.826 233.445 83.4515 235.53C87.8567 237.483 86.6086 244.062 82.2327 246.617C77.8569 249.172 55.449 246.705 53.5547 243.871Z" fill="#D1472F"/>
<path fill-rule="evenodd" clip-rule="evenodd" d="M177.664 248.834C174.918 240.464 220.659 231.213 224.903 231.316C229.147 231.419 232.465 239.04 224.727 242.916C216.988 246.793 179.5 254.399 177.664 248.834Z" fill="#B3B67C"/>
<path fill-rule="evenodd" clip-rule="evenodd" d="M206.519 244.385C205.916 235.575 252.773 237.41 256.885 238.511C260.996 239.613 262.333 247.762 253.845 249.701C245.358 251.639 206.93 250.2 206.519 244.385Z" fill="#DDD37C"/>
<path fill-rule="evenodd" clip-rule="evenodd" d="M157.122 239.011C158.311 230.332 203.876 241.434 207.679 243.284C211.482 245.134 211.115 253.386 202.407 253.563C193.7 253.739 156.314 244.752 157.122 239.011Z" fill="#DDD37C"/>
<path fill-rule="evenodd" clip-rule="evenodd" d="M27.1087 246.074C26.6095 241.977 52.336 235.663 56.9615 237.733C61.2933 239.686 60.1332 246.265 55.7574 248.82C51.3815 251.375 29.0177 248.908 27.1087 246.074Z" fill="#D1472F"/>
<path fill-rule="evenodd" clip-rule="evenodd" d="M67.71 243.239C67.2254 239.128 93.0106 232.799 97.6361 234.884C102.041 236.837 100.779 243.43 96.4027 245.97C92.0268 248.511 69.6042 246.073 67.71 243.239Z" fill="#FF662F"/>
<path fill-rule="evenodd" clip-rule="evenodd" d="M100.206 238.129L120.176 232.256L120.279 234.987L105.037 238.878L119.295 237.615L118.708 243.929L100.441 243.078L114.391 244.018L113.877 244.84L98.7817 243.856C99.6979 242.085 100.186 240.123 100.206 238.129V238.129Z" fill="#686D1D"/>
<path fill-rule="evenodd" clip-rule="evenodd" d="M71.9686 256.94C68.8262 259.598 48.2538 242.491 47.2406 237.63C46.3008 233.078 52.4975 230.288 57.2258 232.432C61.9541 234.576 73.2167 253.842 71.9686 256.94Z" fill="#FF662F"/>
<path fill-rule="evenodd" clip-rule="evenodd" d="M48.4008 233.724L31.6169 221.037L33.8342 219.422L46.1247 229.51L36.5948 218.791L42.2188 215.707L52.4242 230.788L44.906 219.04H45.9045L54.0541 231.698C52.0413 231.94 50.1089 232.632 48.4008 233.724V233.724Z" fill="#686D1D"/>
<path fill-rule="evenodd" clip-rule="evenodd" d="M126.182 259.921C122.379 258.085 130.117 233.196 134.302 230.552C138.223 228.012 143.333 232.608 143.304 237.645C143.274 242.682 129.603 259.906 126.182 259.921Z" fill="#FF662F"/>
<path fill-rule="evenodd" clip-rule="evenodd" d="M138.429 230.112L143.641 210.289L146.079 211.757L141.556 226.603L147.812 214.033L153.01 217.983L142.834 232.741L150.851 221.625L151.306 222.52L142.658 234.547C141.603 232.766 140.157 231.25 138.429 230.112V230.112Z" fill="#686D1D"/>
<path fill-rule="evenodd" clip-rule="evenodd" d="M119.325 334.853L91.6306 335.411L91.8362 343.737L119.516 343.561L119.325 334.853Z" fill="#7A1341"/>
<path fill-rule="evenodd" clip-rule="evenodd" d="M119.516 343.561L121.483 367.026L351.128 366.982L353.668 339.567L119.516 343.561Z" fill="#829187"/>
<path fill-rule="evenodd" clip-rule="evenodd" d="M272.891 273.738L274.007 243.577L67.3137 244.106L68.1213 273.797L272.891 273.738Z" fill="#E3592F"/>
<path fill-rule="evenodd" clip-rule="evenodd" d="M67.3135 244.105L13.7754 246.631L14.6564 274.384L68.1211 273.797L67.3135 244.105Z" fill="#891D2F"/>
<path fill-rule="evenodd" clip-rule="evenodd" d="M67.3578 250.772L273.552 251.859L273.713 251.506L67.4753 249.847L67.3578 250.772Z" fill="#B53E38"/>
<g style="mix-blend-mode:multiply" opacity="0.2">
<g style="mix-blend-mode:multiply" opacity="0.2">
<path fill-rule="evenodd" clip-rule="evenodd" d="M99.1779 250.538L106.887 274.194L114.038 274.047L111.527 250.817L99.1779 250.538Z" fill="#A9579F"/>
</g>
<g style="mix-blend-mode:multiply" opacity="0.2">
<path fill-rule="evenodd" clip-rule="evenodd" d="M240.027 273.239L231.202 251.169L234.374 251.654L251.202 273.915L240.027 273.239Z" fill="#A9579F"/>
</g>
</g>
<path fill-rule="evenodd" clip-rule="evenodd" d="M91.8362 343.737L92.4235 367.041L121.483 367.026L119.516 343.561L91.8362 343.737Z" fill="#7A1341"/>
<path fill-rule="evenodd" clip-rule="evenodd" d="M67.8277 311.858L67.5781 303.106L302.083 302.769L302.156 311.564L67.8277 311.858Z" fill="#05220E"/>
<path fill-rule="evenodd" clip-rule="evenodd" d="M67.5783 303.107L37.843 303.151L40.1191 312.049L67.8279 311.858L67.5783 303.107Z" fill="#7A1341"/>
<path fill-rule="evenodd" clip-rule="evenodd" d="M67.8275 311.858L68.4589 335.426L301.128 335.235L302.156 311.564L67.8275 311.858Z" fill="#829187"/>
<path fill-rule="evenodd" clip-rule="evenodd" d="M40.119 312.049L40.8092 335.441L68.4593 335.426L67.8279 311.858L40.119 312.049Z" fill="#7A1341"/>
<path fill-rule="evenodd" clip-rule="evenodd" d="M37.1378 279.465L36.8735 270.67L271.789 274.605L271.877 283.43L37.1378 279.465Z" fill="#05220E"/>
<path fill-rule="evenodd" clip-rule="evenodd" d="M36.8739 270.67L9.16505 272.52L9.38532 279.671L37.1382 279.465L36.8739 270.67Z" fill="#7A1341"/>
<path fill-rule="evenodd" clip-rule="evenodd" d="M37.1379 279.466L37.8427 303.151L270.879 302.813L271.877 283.43L37.1379 279.466Z" fill="#829187"/>
<path fill-rule="evenodd" clip-rule="evenodd" d="M9.38519 279.671L12.9094 303.18L37.8429 303.151L37.1381 279.466L9.38519 279.671Z" fill="#7A1341"/>
<path fill-rule="evenodd" clip-rule="evenodd" d="M9.16505 272.52L18.1664 367.056L121.484 367.026L119.325 334.854L68.4593 335.426L67.5783 303.107L37.843 303.151L36.8739 270.67L9.16505 272.52Z" fill="#05220E"/>
<path fill-rule="evenodd" clip-rule="evenodd" d="M121.483 367.026L121.704 377.246H129.662L133.745 367.026H121.483Z" fill="#829187"/>
<path fill-rule="evenodd" clip-rule="evenodd" d="M165.242 267.747C164.684 269.979 160.763 274.047 158.414 274.003L125.801 273.371C124.229 273.371 120.309 271.257 119.472 269.641C118.282 267.395 123.877 264.326 125.463 264.282L158.972 263.401C160.44 263.298 165.844 265.545 165.242 267.747Z" fill="#686D1D"/>
<path fill-rule="evenodd" clip-rule="evenodd" d="M115.786 367.041L117.636 377.246H121.703L121.483 367.026L115.786 367.041Z" fill="#05220E"/>
<path fill-rule="evenodd" clip-rule="evenodd" d="M120.235 274.516C119.325 276.616 114.773 279.993 112.467 279.568L80.309 273.694C78.8406 273.415 75.2284 270.757 74.6557 269.024C73.848 266.631 79.8685 264.502 81.4691 264.707L114.714 269.201C116.168 269.377 121.19 272.446 120.235 274.516Z" fill="#686D1D"/>
<path fill-rule="evenodd" clip-rule="evenodd" d="M237.649 267.908C237.649 272.666 233.023 276.528 227.194 276.543C221.364 276.557 216.592 272.71 216.518 267.952C216.445 263.195 221.129 259.318 226.959 259.304C232.788 259.289 237.575 263.092 237.649 267.908Z" fill="#FFC71D"/>
<path fill-rule="evenodd" clip-rule="evenodd" d="M237.414 266.176C237.414 266.176 242.362 267.028 237.414 269.642V266.176Z" fill="#FFC71D"/>
<path fill-rule="evenodd" clip-rule="evenodd" d="M216.71 266.22C216.71 266.22 211.555 267.174 216.71 269.685V266.22Z" fill="#FFC71D"/>
<path fill-rule="evenodd" clip-rule="evenodd" d="M289.131 274.839C290.203 279.494 286.473 284.237 280.776 285.456C275.079 286.675 269.587 283.885 268.5 279.245C267.414 274.605 271.158 269.832 276.855 268.613C282.553 267.395 288.045 270.214 289.131 274.839Z" fill="#FFC71D"/>
<path fill-rule="evenodd" clip-rule="evenodd" d="M288.588 273.225C288.588 273.225 293.61 273.034 289.366 276.602L288.588 273.225Z" fill="#FFC71D"/>
<path fill-rule="evenodd" clip-rule="evenodd" d="M268.324 277.542C268.324 277.542 263.493 279.539 269.102 280.919L268.324 277.542Z" fill="#FFC71D"/>
<path fill-rule="evenodd" clip-rule="evenodd" d="M149.926 270.787C149.383 273.004 145.521 277.086 143.113 277.027L110.485 276.308C108.914 276.308 104.993 274.193 104.156 272.593C102.966 270.346 108.561 267.277 110.132 267.233L143.612 266.352C145.08 266.337 150.558 268.584 149.926 270.787Z" fill="#8B901D"/>
<path fill-rule="evenodd" clip-rule="evenodd" d="M220.704 269.465C220.704 274.223 216.093 278.085 210.278 278.1C204.463 278.114 199.676 274.252 199.603 269.51C199.529 264.767 204.184 260.875 210.014 260.861C215.843 260.846 220.63 264.693 220.704 269.465Z" fill="#FFE61D"/>
<path fill-rule="evenodd" clip-rule="evenodd" d="M220.468 267.733C220.468 267.733 225.417 268.57 220.468 271.183V267.733Z" fill="#FFE61D"/>
<path fill-rule="evenodd" clip-rule="evenodd" d="M199.779 267.777C199.779 267.777 194.639 268.731 199.779 271.228V267.777Z" fill="#FFE61D"/>
<path fill-rule="evenodd" clip-rule="evenodd" d="M205.535 271.213C205.608 275.97 200.954 279.832 195.124 279.847C189.294 279.861 184.522 276.014 184.449 271.257C184.375 266.499 189.015 262.637 194.845 262.622C200.675 262.608 205.462 266.455 205.535 271.213Z" fill="#FFE61D"/>
<path fill-rule="evenodd" clip-rule="evenodd" d="M205.3 269.495C205.3 269.495 210.248 270.332 205.3 272.946V269.495Z" fill="#FFE61D"/>
<path fill-rule="evenodd" clip-rule="evenodd" d="M184.625 269.539C184.625 269.539 179.486 270.493 184.625 272.989V269.539Z" fill="#FFE61D"/>
<path fill-rule="evenodd" clip-rule="evenodd" d="M263.625 268.129C265.269 272.623 262.156 277.777 256.635 279.627C251.114 281.477 245.358 279.333 243.713 274.84C242.069 270.347 245.182 265.192 250.688 263.328C256.195 261.463 262.024 263.621 263.625 268.129Z" fill="#FFE61D"/>
<path fill-rule="evenodd" clip-rule="evenodd" d="M262.862 266.558C262.862 266.558 267.825 265.794 264.051 269.832L262.862 266.558Z" fill="#FFE61D"/>
<path fill-rule="evenodd" clip-rule="evenodd" d="M243.346 273.136C243.346 273.136 238.809 275.676 244.536 276.411L243.346 273.136Z" fill="#FFE61D"/>
<path fill-rule="evenodd" clip-rule="evenodd" d="M119.515 343.561L119.324 334.854L354.226 333.224L353.668 339.567L119.515 343.561Z" fill="#05220E"/>
<path fill-rule="evenodd" clip-rule="evenodd" d="M199.192 273.269C200.851 277.762 197.723 282.902 192.275 284.752C186.828 286.602 181.027 284.458 179.368 279.965C177.709 275.471 180.836 270.332 186.27 268.482C191.703 266.632 197.547 268.775 199.192 273.269Z" fill="#FFE61D"/>
<path fill-rule="evenodd" clip-rule="evenodd" d="M198.384 271.697C198.384 271.697 203.332 270.934 199.588 274.972L198.384 271.697Z" fill="#FFE61D"/>
<path fill-rule="evenodd" clip-rule="evenodd" d="M178.957 278.261C178.957 278.261 174.449 280.801 180.175 281.52L178.957 278.261Z" fill="#FFE61D"/>
<path fill-rule="evenodd" clip-rule="evenodd" d="M100.353 279.612C99.2369 281.609 94.3617 284.532 92.1151 283.9L60.6471 275.002C59.1787 274.576 55.8748 271.58 55.4636 269.833C54.9056 267.366 61.1023 265.824 62.6735 266.191L95.375 273.797C96.7993 274.135 101.454 277.645 100.353 279.612Z" fill="#8B901D"/>
<path fill-rule="evenodd" clip-rule="evenodd" d="M24.0985 367.056L24.4068 377.247H32.3215L36.3156 367.056H24.0985Z" fill="#829187"/>
<path fill-rule="evenodd" clip-rule="evenodd" d="M18.4303 367.056L20.3539 377.247H24.4067L24.0983 367.056H18.4303Z" fill="#05220E"/>
<path fill-rule="evenodd" clip-rule="evenodd" d="M351.128 366.982L350.158 377.246H341.744L340.276 366.982H351.128Z" fill="#829187"/>
<g style="mix-blend-mode:multiply" opacity="0.31">
<path fill-rule="evenodd" clip-rule="evenodd" d="M9.66405 187.881L230.821 142.478L232.744 66.0767L3.37927 91.4214L9.66405 187.881Z" fill="#53B175"/>
</g>
<path fill-rule="evenodd" clip-rule="evenodd" d="M340.276 366.982L334.564 366.997L338.954 377.246H341.744L340.276 366.982Z" fill="#05220E"/>
<g style="mix-blend-mode:multiply" opacity="0.2">
<g style="mix-blend-mode:multiply" opacity="0.2">
<path fill-rule="evenodd" clip-rule="evenodd" d="M254.169 333.884L251.041 311.784L258.618 311.608L258.853 333.884H254.169Z" fill="#A9579F"/>
</g>
<g style="mix-blend-mode:multiply" opacity="0.2">
<path fill-rule="evenodd" clip-rule="evenodd" d="M262.92 333.884L263.933 311.608H265.475L263.992 333.884H262.92Z" fill="#A9579F"/>
</g>
<g style="mix-blend-mode:multiply" opacity="0.2">
<path fill-rule="evenodd" clip-rule="evenodd" d="M137.577 303.004L150.528 281.374H154.273L138.59 303.004H137.577Z" fill="#A9579F"/>
</g>
<g style="mix-blend-mode:multiply" opacity="0.2">
<path fill-rule="evenodd" clip-rule="evenodd" d="M142.041 303.003L162.32 281.579L169.221 281.697L151.821 302.989L142.041 303.003Z" fill="#A9579F"/>
</g>
<g style="mix-blend-mode:multiply" opacity="0.2">
<path fill-rule="evenodd" clip-rule="evenodd" d="M227.282 341.726L228.824 334.311L241.79 333.899L240.41 341.711L227.282 341.726Z" fill="#A9579F"/>
</g>
<g style="mix-blend-mode:multiply" opacity="0.2">
<path fill-rule="evenodd" clip-rule="evenodd" d="M242.186 341.477L243.875 333.988H245.299L243.904 341.712L242.186 341.477Z" fill="#A9579F"/>
</g>
</g>
<path fill-rule="evenodd" clip-rule="evenodd" d="M242.201 367.011L241.349 377.246H232.965L231.408 367.011H242.201Z" fill="#829187"/>
<path fill-rule="evenodd" clip-rule="evenodd" d="M300.673 302.768L301.862 272.754L95.4481 273.165L96.1823 302.724L300.673 302.768Z" fill="#E3592F"/>
<path fill-rule="evenodd" clip-rule="evenodd" d="M95.4486 273.165L41.9839 275.647L42.7915 303.282L96.1828 302.724L95.4486 273.165Z" fill="#891D2F"/>
<path fill-rule="evenodd" clip-rule="evenodd" d="M95.4774 279.803L301.378 280.992L301.554 280.64L95.5949 278.878L95.4774 279.803Z" fill="#B53E38"/>
<g style="mix-blend-mode:multiply" opacity="0.2">
<g style="mix-blend-mode:multiply" opacity="0.2">
<path fill-rule="evenodd" clip-rule="evenodd" d="M127.254 279.583L134.89 303.151L142.041 303.004L139.589 279.876L127.254 279.583Z" fill="#A9579F"/>
</g>
<g style="mix-blend-mode:multiply" opacity="0.2">
<path fill-rule="evenodd" clip-rule="evenodd" d="M267.854 302.27L259.088 280.288L262.259 280.772L279.014 302.945L267.854 302.27Z" fill="#A9579F"/>
</g>
</g>
<path fill-rule="evenodd" clip-rule="evenodd" d="M231.834 299.45C232.119 300.577 232.173 301.75 231.995 302.898C231.817 304.047 231.41 305.148 230.797 306.135C230.185 307.123 229.38 307.978 228.43 308.648C227.481 309.318 226.406 309.791 225.27 310.037C222.959 310.587 220.525 310.22 218.479 309.012C216.434 307.804 214.936 305.851 214.301 303.561C214.012 302.436 213.953 301.263 214.127 300.113C214.301 298.964 214.706 297.862 215.316 296.872C215.926 295.882 216.729 295.026 217.677 294.354C218.626 293.681 219.7 293.207 220.836 292.96C223.152 292.409 225.592 292.778 227.643 293.988C229.694 295.198 231.196 297.156 231.834 299.45V299.45Z" fill="#A4181D"/>
<path fill-rule="evenodd" clip-rule="evenodd" d="M223.009 293.533C223.657 293.455 224.313 293.513 224.938 293.703C225.562 293.892 226.14 294.209 226.636 294.634C226.636 294.634 223.39 296.073 223.009 293.533Z" fill="#FF471D"/>
<path fill-rule="evenodd" clip-rule="evenodd" d="M255.608 300.933C255.892 302.061 255.946 303.235 255.767 304.384C255.588 305.533 255.18 306.635 254.566 307.623C253.952 308.611 253.145 309.465 252.194 310.135C251.243 310.804 250.166 311.276 249.029 311.52C246.716 312.075 244.278 311.709 242.229 310.501C240.18 309.293 238.68 307.337 238.046 305.045C237.763 303.916 237.71 302.742 237.89 301.592C238.07 300.443 238.479 299.341 239.092 298.352C239.706 297.364 240.511 296.508 241.462 295.837C242.412 295.165 243.487 294.691 244.624 294.443C246.939 293.889 249.379 294.256 251.428 295.467C253.477 296.678 254.976 298.638 255.608 300.933V300.933Z" fill="#A4181D"/>
<path fill-rule="evenodd" clip-rule="evenodd" d="M246.797 295.031C247.444 294.948 248.101 295.002 248.726 295.189C249.351 295.376 249.929 295.692 250.424 296.117C250.424 296.117 247.179 297.557 246.797 295.031Z" fill="#FF471D"/>
<path fill-rule="evenodd" clip-rule="evenodd" d="M296.87 300.875C297.15 302.007 297.199 303.183 297.016 304.334C296.832 305.486 296.419 306.588 295.802 307.577C295.184 308.566 294.374 309.42 293.42 310.09C292.466 310.76 291.387 311.232 290.247 311.477C287.934 312.034 285.495 311.668 283.447 310.456C281.399 309.244 279.904 307.282 279.278 304.986C278.997 303.855 278.946 302.678 279.128 301.526C279.311 300.374 279.723 299.27 280.341 298.281C280.959 297.292 281.77 296.437 282.725 295.768C283.68 295.098 284.76 294.628 285.901 294.385C288.215 293.823 290.656 294.188 292.705 295.4C294.754 296.612 296.248 298.577 296.87 300.875V300.875Z" fill="#A4181D"/>
<path fill-rule="evenodd" clip-rule="evenodd" d="M288.059 294.957C288.71 294.874 289.37 294.93 289.997 295.12C290.625 295.309 291.205 295.629 291.701 296.058C291.701 296.058 288.441 297.497 288.059 294.957Z" fill="#FF471D"/>
<path fill-rule="evenodd" clip-rule="evenodd" d="M138.811 306.866C138.841 309.491 138.343 312.096 137.349 314.525C136.354 316.955 134.883 319.161 133.021 321.012C131.159 322.863 128.944 324.322 126.509 325.302C124.073 326.282 121.465 326.764 118.84 326.718C113.472 326.769 108.294 324.731 104.401 321.035C100.507 317.338 98.2026 312.273 97.9743 306.91C97.9365 304.281 98.4273 301.671 99.4173 299.235C100.407 296.799 101.877 294.587 103.738 292.73C105.599 290.873 107.814 289.409 110.252 288.424C112.69 287.439 115.301 286.955 117.93 286.998C123.312 286.94 128.504 288.984 132.403 292.694C136.302 296.404 138.601 301.488 138.811 306.866V306.866Z" fill="url(#paint0_linear_113_1190)"/>
<path fill-rule="evenodd" clip-rule="evenodd" d="M120.294 326.718C120.294 326.718 129.104 314.971 127.636 301.183C126.168 287.394 110.955 285.471 110.955 285.471C107.303 286.99 104.14 289.484 101.809 292.68C99.4784 295.875 98.0705 299.65 97.7392 303.591C96.3442 317.57 102.746 325.529 120.294 326.718Z" fill="url(#paint1_linear_113_1190)"/>
<path fill-rule="evenodd" clip-rule="evenodd" d="M120.294 326.718C120.294 326.718 126.843 320.845 130.103 307.291C133.363 293.738 127.504 288.349 127.504 288.349C127.504 288.349 141.821 295.074 138.825 310.243C135.83 325.412 120.294 326.718 120.294 326.718Z" fill="url(#paint2_linear_113_1190)"/>
<path fill-rule="evenodd" clip-rule="evenodd" d="M96.3591 307.599C96.3591 307.599 103.51 298.128 120.779 298.906C138.047 299.685 136.682 317.629 136.682 317.629C136.682 317.629 134.494 329.288 117.901 327.907C101.308 326.527 96.227 314.633 96.3591 307.599Z" fill="url(#paint3_linear_113_1190)"/>
<path fill-rule="evenodd" clip-rule="evenodd" d="M241.687 299.435C241.972 300.562 242.027 301.735 241.849 302.883C241.67 304.032 241.263 305.133 240.651 306.121C240.038 307.109 239.233 307.963 238.284 308.634C237.334 309.304 236.259 309.776 235.124 310.023C232.812 310.576 230.376 310.211 228.33 309.002C226.283 307.794 224.786 305.838 224.155 303.547C223.866 302.42 223.807 301.246 223.982 300.096C224.157 298.946 224.563 297.843 225.174 296.853C225.786 295.863 226.59 295.007 227.541 294.335C228.491 293.664 229.567 293.191 230.704 292.945C233.019 292.391 235.458 292.759 237.508 293.97C239.557 295.18 241.056 297.14 241.687 299.435V299.435Z" fill="#D3181D"/>
<path fill-rule="evenodd" clip-rule="evenodd" d="M232.877 293.517C233.524 293.44 234.181 293.498 234.806 293.687C235.43 293.877 236.008 294.194 236.504 294.619C236.504 294.619 233.258 296.058 232.877 293.517Z" fill="#FF471D"/>
<path fill-rule="evenodd" clip-rule="evenodd" d="M229.47 293.238L227.282 291.138L230.527 292.269L229.778 289.332L233.904 288.363L233.552 292.269L235.769 291.74L234.301 292.812C232.68 292.781 231.06 292.924 229.47 293.238V293.238Z" fill="#B69D00"/>
<path fill-rule="evenodd" clip-rule="evenodd" d="M267.105 301.535C267.105 302.709 266.871 303.872 266.415 304.955C265.96 306.037 265.292 307.018 264.452 307.839C263.612 308.659 262.617 309.304 261.524 309.735C260.431 310.165 259.263 310.373 258.089 310.345C255.722 310.361 253.442 309.447 251.742 307.799C250.042 306.151 249.057 303.902 249 301.535C248.999 300.362 249.233 299.2 249.688 298.119C250.143 297.037 250.809 296.057 251.647 295.236C252.486 294.416 253.48 293.771 254.571 293.339C255.662 292.908 256.828 292.699 258.001 292.724C260.371 292.704 262.654 293.617 264.357 295.265C266.06 296.914 267.047 299.165 267.105 301.535V301.535Z" fill="#D3181D"/>
<path fill-rule="evenodd" clip-rule="evenodd" d="M259.969 293.767C260.618 293.837 261.246 294.043 261.81 294.372C262.374 294.701 262.863 295.146 263.243 295.676C263.243 295.676 259.719 296.322 259.969 293.767Z" fill="#FF471D"/>
<path fill-rule="evenodd" clip-rule="evenodd" d="M256.724 292.71L255.108 290.17L258.045 292.02V289.01H262.304L260.997 292.71H263.287L261.657 293.429C260.043 293.013 258.389 292.772 256.724 292.71V292.71Z" fill="#B69D00"/>
<path fill-rule="evenodd" clip-rule="evenodd" d="M282.538 307.879C282.483 309.68 281.892 311.423 280.84 312.887C279.789 314.35 278.325 315.467 276.636 316.094C274.947 316.721 273.11 316.83 271.358 316.408C269.606 315.985 268.021 315.05 266.803 313.722C265.586 312.394 264.792 310.733 264.524 308.951C264.255 307.169 264.524 305.348 265.295 303.72C266.067 302.092 267.307 300.731 268.856 299.811C270.405 298.891 272.193 298.453 273.992 298.555C276.359 298.665 278.586 299.708 280.188 301.455C281.789 303.202 282.634 305.511 282.538 307.879V307.879Z" fill="#D3181D"/>
<path fill-rule="evenodd" clip-rule="evenodd" d="M275.886 299.802C276.528 299.906 277.141 300.144 277.685 300.501C278.229 300.857 278.692 301.325 279.043 301.873C279.043 301.873 275.49 302.254 275.886 299.802Z" fill="#FF471D"/>
<path fill-rule="evenodd" clip-rule="evenodd" d="M272.7 298.48L271.232 295.852L274.007 297.864L274.183 294.927L278.442 295.191L276.973 298.789L279.264 298.936L277.59 299.552C276.004 299.016 274.364 298.657 272.7 298.48V298.48Z" fill="#B69D00"/>
<path fill-rule="evenodd" clip-rule="evenodd" d="M306.473 304.501C305.862 306.794 304.374 308.754 302.33 309.96C300.287 311.166 297.851 311.521 295.548 310.947C294.403 310.701 293.319 310.229 292.358 309.559C291.397 308.889 290.58 308.034 289.954 307.044C289.328 306.054 288.905 304.949 288.711 303.794C288.517 302.639 288.555 301.456 288.823 300.316C289.431 298.021 290.918 296.057 292.962 294.848C295.006 293.639 297.443 293.282 299.748 293.855C300.895 294.101 301.981 294.574 302.943 295.245C303.904 295.916 304.723 296.773 305.349 297.764C305.975 298.756 306.397 299.862 306.591 301.019C306.784 302.176 306.744 303.36 306.473 304.501V304.501Z" fill="#D3181D"/>
<path fill-rule="evenodd" clip-rule="evenodd" d="M301.422 295.398C302.031 295.613 302.588 295.954 303.057 296.399C303.525 296.845 303.893 297.384 304.138 297.982C304.138 297.982 300.555 297.762 301.422 295.398Z" fill="#FF471D"/>
<path fill-rule="evenodd" clip-rule="evenodd" d="M298.5 293.561L297.56 290.727L299.924 293.179L300.644 290.243L304.799 291.226L302.611 294.516L304.843 295.044L303.081 295.367C301.623 294.603 300.087 293.998 298.5 293.561V293.561Z" fill="#B69D00"/>
<path fill-rule="evenodd" clip-rule="evenodd" d="M169.647 306.822C169.839 312.189 172.123 317.269 176.011 320.973C179.9 324.678 185.084 326.714 190.454 326.645C193.09 326.688 195.707 326.205 198.153 325.225C200.6 324.244 202.826 322.785 204.702 320.934C206.578 319.083 208.066 316.876 209.079 314.443C210.092 312.009 210.609 309.399 210.601 306.763C210.428 301.38 208.15 296.28 204.256 292.559C200.363 288.838 195.164 286.794 189.779 286.866C187.139 286.825 184.517 287.312 182.067 288.298C179.618 289.284 177.39 290.749 175.515 292.608C173.639 294.467 172.154 296.682 171.147 299.123C170.139 301.564 169.629 304.181 169.647 306.822V306.822Z" fill="url(#paint4_linear_113_1190)"/>
<path fill-rule="evenodd" clip-rule="evenodd" d="M188.986 326.645C187.885 317.984 187.58 309.239 188.076 300.522C188.957 286.646 196.651 285.324 196.651 285.324C200.372 286.836 203.624 289.309 206.075 292.49C208.526 295.672 210.088 299.447 210.601 303.43C212.657 317.424 206.548 325.426 188.986 326.645Z" fill="url(#paint5_linear_113_1190)"/>
<path fill-rule="evenodd" clip-rule="evenodd" d="M188.986 326.645C188.986 326.645 191.57 319.567 187.782 306.087C183.993 292.607 187.459 287.071 187.459 287.071C187.459 287.071 163.303 288.995 169.838 310.257C174.316 325.103 188.986 326.645 188.986 326.645Z" fill="url(#paint6_linear_113_1190)"/>
<path fill-rule="evenodd" clip-rule="evenodd" d="M212.231 307.453C212.231 307.453 204.683 297.982 187.4 298.804C170.117 299.627 172.202 317.585 172.202 317.585C172.202 317.585 174.845 329.259 191.423 327.864C208.002 326.469 212.642 314.487 212.231 307.453Z" fill="url(#paint7_linear_113_1190)"/>
<path fill-rule="evenodd" clip-rule="evenodd" d="M167.209 307.467C167.231 310.097 166.727 312.705 165.725 315.137C164.723 317.569 163.245 319.776 161.377 321.627C159.509 323.479 157.289 324.938 154.848 325.918C152.408 326.898 149.795 327.38 147.166 327.335C141.799 327.389 136.622 325.351 132.733 321.653C128.843 317.955 126.546 312.888 126.329 307.526C126.299 304.892 126.798 302.279 127.795 299.841C128.792 297.404 130.268 295.191 132.135 293.333C134.003 291.475 136.223 290.011 138.666 289.026C141.109 288.041 143.725 287.556 146.358 287.6C151.743 287.52 156.945 289.556 160.844 293.272C164.744 296.987 167.029 302.084 167.209 307.467V307.467Z" fill="url(#paint8_linear_113_1190)"/>
<path fill-rule="evenodd" clip-rule="evenodd" d="M148.693 327.335C148.693 327.335 157.503 315.588 156.152 301.799C154.801 288.011 139.5 286.073 139.5 286.073C135.855 287.601 132.696 290.097 130.367 293.291C128.037 296.484 126.626 300.255 126.285 304.193C124.743 318.187 131.13 326.146 148.693 327.335Z" fill="url(#paint9_linear_113_1190)"/>
<path fill-rule="evenodd" clip-rule="evenodd" d="M148.693 327.335C148.693 327.335 155.256 321.462 158.56 307.893C161.864 294.325 155.991 288.951 155.991 288.951C155.991 288.951 170.308 295.676 167.283 310.86C164.258 326.043 148.693 327.335 148.693 327.335Z" fill="url(#paint10_linear_113_1190)"/>
<path fill-rule="evenodd" clip-rule="evenodd" d="M124.773 308.217C124.773 308.217 131.953 298.731 149.236 299.509C166.519 300.287 165.11 318.231 165.11 318.231C165.11 318.231 162.892 329.905 146.285 328.51C129.677 327.115 124.64 315.25 124.773 308.217Z" fill="url(#paint11_linear_113_1190)"/>
<path fill-rule="evenodd" clip-rule="evenodd" d="M340.129 333.238L341.348 305.03L135.183 305.323L135.815 334.736L340.129 333.238Z" fill="#E3592F"/>
<path fill-rule="evenodd" clip-rule="evenodd" d="M135.183 305.323L81.7628 307.761L82.4823 335.264L135.815 334.736L135.183 305.323Z" fill="#891D2F"/>
<path fill-rule="evenodd" clip-rule="evenodd" d="M135.183 311.932L340.834 313.239L341.01 312.901L135.301 311.007L135.183 311.932Z" fill="#B53E38"/>
<g style="mix-blend-mode:multiply" opacity="0.2">
<g style="mix-blend-mode:multiply" opacity="0.2">
<path fill-rule="evenodd" clip-rule="evenodd" d="M166.931 311.726L174.478 335.191L195.961 333.943L189.456 312.269L166.931 311.726Z" fill="#A9579F"/>
</g>
</g>
<path fill-rule="evenodd" clip-rule="evenodd" d="M231.408 367.011H225.725L230.189 377.246H232.965L231.408 367.011Z" fill="#05220E"/>
<path fill-rule="evenodd" clip-rule="evenodd" d="M123.466 335.382L114.817 59.5269L110.265 59.4976L121.028 335.382H123.466Z" fill="#829187"/>
<path fill-rule="evenodd" clip-rule="evenodd" d="M110.265 59.4976L106.784 60.8632L118.796 335.353L121.028 335.382L110.265 59.4976Z" fill="#05220E"/>
<path fill-rule="evenodd" clip-rule="evenodd" d="M353.301 333.224L364.696 56.5614L360.1 56.5173L350.849 333.224H353.301Z" fill="#829187"/>
<path fill-rule="evenodd" clip-rule="evenodd" d="M360.099 56.5173L356.546 57.883L348.602 333.195L350.848 333.224L360.099 56.5173Z" fill="#05220E"/>
<path fill-rule="evenodd" clip-rule="evenodd" d="M35.7138 6.07727L113.099 40.1003L390.319 34.4616L290.057 20.4677L35.7138 6.07727Z" fill="#CAC587"/>
<path fill-rule="evenodd" clip-rule="evenodd" d="M35.7138 6.07727L0.839142 73.4331L3.70254 116.413L114.832 106.56L112.57 38.7493L35.7138 6.07727Z" fill="#53B175"/>
<path fill-rule="evenodd" clip-rule="evenodd" d="M145.374 39.439L59.5461 7.42773L91.249 9.21919L178.502 38.7782L145.374 39.439Z" fill="#53B175"/>
<path fill-rule="evenodd" clip-rule="evenodd" d="M212.04 38.0886L134.743 11.6866L161.321 13.4341L246.239 37.3985L212.04 38.0886Z" fill="#53B175"/>
<path fill-rule="evenodd" clip-rule="evenodd" d="M281.114 36.6785L216.812 16.3264L242.348 18.4116L316.693 35.959L281.114 36.6785Z" fill="#53B175"/>
<path fill-rule="evenodd" clip-rule="evenodd" d="M352.993 35.2252L279.631 19.8804L290.057 20.4677L390.32 34.4617L352.993 35.2252Z" fill="#53B175"/>
<g style="mix-blend-mode:soft-light">
<path fill-rule="evenodd" clip-rule="evenodd" d="M113.098 40.1002L390.319 34.4615L326.943 25.9888L113.098 40.1002Z" fill="#FFFFC2"/>
</g>
<path fill-rule="evenodd" clip-rule="evenodd" d="M35.7138 6.077L38.8709 0.555786L285.916 15.8566L285.945 19.836L35.7138 6.077Z" fill="#829187"/>
<path fill-rule="evenodd" clip-rule="evenodd" d="M35.552 0.570473L38.8706 0.555786L39.0321 6.34131L35.7135 6.077L35.552 0.570473Z" fill="#05220E"/>
<path opacity="0.51" fill-rule="evenodd" clip-rule="evenodd" d="M357.72 128.234L361.847 126.266L362.243 114.475L358.249 115.767L357.72 128.234Z" fill="#6B0041"/>
<path opacity="0.51" fill-rule="evenodd" clip-rule="evenodd" d="M112.276 125.781L116.858 124.768L116.432 105.664L111.85 106.824L112.276 125.781Z" fill="#6B0041"/>
<path fill-rule="evenodd" clip-rule="evenodd" d="M130.895 123.183C122.085 123.183 114.743 112.742 114.464 99.8792L113.098 40.1004L145.609 39.4396L146.578 99.7911C146.784 112.772 139.75 123.227 130.895 123.183Z" fill="url(#paint12_linear_113_1190)"/>
<path fill-rule="evenodd" clip-rule="evenodd" d="M162.921 123.314C153.95 123.314 146.549 112.771 146.343 99.8196L145.374 39.468L178.501 38.8073L179.059 99.7315C179.177 112.815 171.938 123.358 162.921 123.314Z" fill="#53B175"/>
<path fill-rule="evenodd" clip-rule="evenodd" d="M195.799 123.461C186.651 123.461 179.177 112.815 179.059 99.7025L178.457 38.7783L212.231 38.0881L212.363 99.6144C212.451 112.859 204.991 123.505 195.799 123.461Z" fill="url(#paint13_linear_113_1190)"/>
<path fill-rule="evenodd" clip-rule="evenodd" d="M229.059 123.594C219.749 123.594 212.202 112.845 212.172 99.6002L212.04 38.074L246.489 37.3691L246.181 99.5121C246.122 112.904 238.427 123.594 229.059 123.594Z" fill="#53B175"/>
<path fill-rule="evenodd" clip-rule="evenodd" d="M262.979 123.74C253.478 123.74 245.872 112.903 245.931 99.5261L246.239 37.3978L281.378 36.6782L280.615 99.438C280.438 112.933 272.524 123.784 262.979 123.74Z" fill="url(#paint14_linear_113_1190)"/>
<path fill-rule="evenodd" clip-rule="evenodd" d="M297.56 123.902C287.869 123.902 280.189 112.933 280.35 99.4384L281.114 36.6786L316.958 35.9591L315.724 99.3503C315.445 112.977 307.296 123.931 297.56 123.902Z" fill="#53B175"/>
<path fill-rule="evenodd" clip-rule="evenodd" d="M332.831 124.049C322.949 124.049 315.21 112.977 315.46 99.35L316.693 35.9589L353.271 35.21L351.524 99.2619C351.157 113.021 342.758 124.093 332.831 124.049Z" fill="url(#paint15_linear_113_1190)"/>
<path fill-rule="evenodd" clip-rule="evenodd" d="M368.792 124.196C358.719 124.196 350.892 113.021 351.259 99.233L352.992 35.1957L390.319 34.4321L388.058 99.1302C387.573 113.065 378.924 124.24 368.792 124.196Z" fill="#53B175"/>
<path style="mix-blend-mode:multiply" opacity="0.2" fill-rule="evenodd" clip-rule="evenodd" d="M390.319 34.4614C390.319 34.4614 335.474 64.0205 267.164 67.4272C267.164 67.4272 337.647 53.1102 390.319 34.4614Z" fill="url(#paint16_linear_113_1190)"/>
<path fill-rule="evenodd" clip-rule="evenodd" d="M231.452 371.314L242.025 369.214L242.201 367.011H231.408L231.452 371.314Z" fill="#05220E"/>
<path fill-rule="evenodd" clip-rule="evenodd" d="M24.2159 370.947L35.3171 369.596L36.3156 367.056H24.0985L24.2159 370.947Z" fill="#05220E"/>
<defs>
<linearGradient id="paint0_linear_113_1190" x1="118.341" y1="326.718" x2="118.341" y2="286.998" gradientUnits="userSpaceOnUse">
<stop stop-color="#88B056"/>
<stop offset="1" stop-color="#B8AE43"/>
</linearGradient>
<linearGradient id="paint1_linear_113_1190" x1="112.732" y1="326.718" x2="112.732" y2="285.471" gradientUnits="userSpaceOnUse">
<stop stop-color="#88B056"/>
<stop offset="1" stop-color="#DDEA77"/>
</linearGradient>
<linearGradient id="paint2_linear_113_1190" x1="2523.08" y1="11965.3" x2="2523.08" y2="10962.7" gradientUnits="userSpaceOnUse">
<stop stop-color="#88B056"/>
<stop offset="1" stop-color="#DDEA77"/>
</linearGradient>
<linearGradient id="paint3_linear_113_1190" x1="116.535" y1="327.996" x2="116.535" y2="298.862" gradientUnits="userSpaceOnUse">
<stop stop-color="#97BA6B"/>
<stop offset="1" stop-color="#DDEA77"/>
</linearGradient>
<linearGradient id="paint4_linear_113_1190" x1="26005.1" y1="12392.4" x2="26005.1" y2="11314.6" gradientUnits="userSpaceOnUse">
<stop stop-color="#88B056"/>
<stop offset="1" stop-color="#B8AE43"/>
</linearGradient>
<linearGradient id="paint5_linear_113_1190" x1="14381.9" y1="12858.5" x2="14381.9" y2="11695.7" gradientUnits="userSpaceOnUse">
<stop stop-color="#88B056"/>
<stop offset="1" stop-color="#DDEA77"/>
</linearGradient>
<linearGradient id="paint6_linear_113_1190" x1="12774.6" y1="12328.5" x2="12774.6" y2="11260.4" gradientUnits="userSpaceOnUse">
<stop stop-color="#88B056"/>
<stop offset="1" stop-color="#DDEA77"/>
</linearGradient>
<linearGradient id="paint7_linear_113_1190" x1="25515.3" y1="9217.4" x2="25515.3" y2="8636.67" gradientUnits="userSpaceOnUse">
<stop stop-color="#97BA6B"/>
<stop offset="1" stop-color="#DDEA77"/>
</linearGradient>
<linearGradient id="paint8_linear_113_1190" x1="5785.27" y1="12398.6" x2="5785.27" y2="11323.2" gradientUnits="userSpaceOnUse">
<stop stop-color="#88B056"/>
<stop offset="1" stop-color="#B8AE43"/>
</linearGradient>
<linearGradient id="paint9_linear_113_1190" x1="4195.35" y1="12860.7" x2="4195.35" y2="11701.3" gradientUnits="userSpaceOnUse">
<stop stop-color="#88B056"/>
<stop offset="1" stop-color="#DDEA77"/>
</linearGradient>
<linearGradient id="paint10_linear_113_1190" x1="2927.92" y1="11986.5" x2="2927.92" y2="10983.2" gradientUnits="userSpaceOnUse">
<stop stop-color="#88B056"/>
<stop offset="1" stop-color="#DDEA77"/>
</linearGradient>
<linearGradient id="paint11_linear_113_1190" x1="5662.77" y1="9212.01" x2="5662.77" y2="8633.15" gradientUnits="userSpaceOnUse">
<stop stop-color="#97BA6B"/>
<stop offset="1" stop-color="#DDEA77"/>
</linearGradient>
<linearGradient id="paint12_linear_113_1190" x1="4361.89" y1="13917.4" x2="4361.89" y2="9141.51" gradientUnits="userSpaceOnUse">
<stop stop-color="#FFCCA2"/>
<stop offset="1" stop-color="#FFD9A1"/>
</linearGradient>
<linearGradient id="paint13_linear_113_1190" x1="5996.1" y1="14202.4" x2="5996.1" y2="9238.77" gradientUnits="userSpaceOnUse">
<stop stop-color="#FFCCA2"/>
<stop offset="1" stop-color="#FFD9A1"/>
</linearGradient>
<linearGradient id="paint14_linear_113_1190" x1="7974.24" y1="14497.7" x2="7974.24" y2="9335.77" gradientUnits="userSpaceOnUse">
<stop stop-color="#FFCCA2"/>
<stop offset="1" stop-color="#FFD9A1"/>
</linearGradient>
<linearGradient id="paint15_linear_113_1190" x1="10381.3" y1="14810" x2="10381.3" y2="9435.24" gradientUnits="userSpaceOnUse">
<stop stop-color="#FFCCA2"/>
<stop offset="1" stop-color="#FFD9A1"/>
</linearGradient>
<linearGradient id="paint16_linear_113_1190" x1="27411.8" y1="3875.96" x2="37740.9" y2="3875.96" gradientUnits="userSpaceOnUse">
<stop stop-color="white"/>
<stop offset="1" stop-color="#A20079"/>
</linearGradient>
</defs>
</svg>
