<svg width="18" height="22" viewBox="0 0 18 22" fill="none" xmlns="http://www.w3.org/2000/svg">
<path d="M16.5428 9.88836C16.7845 9.88837 17.0179 9.97588 17.2 10.1347C17.3822 10.2935 17.5006 10.513 17.5335 10.7524L17.5428 10.8884V17.8884C17.5429 18.8221 17.1867 19.7206 16.5469 20.4008C15.9072 21.0809 15.0321 21.4913 14.1001 21.5484L13.8761 21.555H3.87614C2.94242 21.5551 2.04386 21.1989 1.36374 20.5592C0.683622 19.9194 0.273181 19.0443 0.216139 18.1124L0.209473 17.8884V10.8884C0.20955 10.635 0.305799 10.3911 0.47877 10.206C0.651741 10.0208 0.888538 9.90826 1.14131 9.89099C1.39409 9.87372 1.644 9.95304 1.84054 10.1129C2.03708 10.2728 2.1656 10.5014 2.20014 10.7524L2.20947 10.8884V17.8884C2.20947 18.751 2.86547 19.4617 3.70547 19.547L3.87614 19.555H13.8761C14.2885 19.5549 14.6862 19.4019 14.9923 19.1255C15.2984 18.8492 15.4912 18.4692 15.5335 18.059L15.5428 17.8884V10.8884C15.5428 10.6231 15.6482 10.3688 15.8357 10.1812C16.0232 9.99371 16.2776 9.88836 16.5428 9.88836ZM2.51214 6.17102L8.16947 0.515022C8.33879 0.345666 8.56326 0.242695 8.80207 0.224833C9.04089 0.206971 9.27818 0.275404 9.47081 0.417689L9.58281 0.515022L15.2401 6.17102C15.4214 6.34895 15.5281 6.58915 15.5387 6.84289C15.5493 7.09663 15.4629 7.34489 15.2971 7.53729C15.1314 7.72969 14.8986 7.85182 14.6461 7.87888C14.3936 7.90595 14.1402 7.83592 13.9375 7.68302L13.8255 7.58569L9.87614 3.63502V13.8884C9.87613 14.13 9.78862 14.3635 9.62978 14.5456C9.47095 14.7277 9.25154 14.8462 9.01214 14.879L8.87614 14.8884C8.63449 14.8883 8.40102 14.8008 8.2189 14.642C8.03678 14.4832 7.91834 14.2638 7.88547 14.0244L7.87614 13.8884V3.63502L3.92681 7.58569C3.75741 7.75539 3.53268 7.85858 3.29356 7.87645C3.05445 7.89432 2.81687 7.82567 2.62414 7.68302L2.51214 7.58569C2.34243 7.41629 2.23924 7.19156 2.22138 6.95244C2.20351 6.71333 2.27216 6.47576 2.41481 6.28302L2.51214 6.17102L8.16947 0.515022L2.51214 6.17102Z" fill="#53B175"/>
</svg>
