<svg width="37" height="33" viewBox="0 0 37 33" fill="none" xmlns="http://www.w3.org/2000/svg">
<path d="M35.5043 6.56704C34.95 5.28376 34.1509 4.12087 33.1516 3.14346C32.1515 2.16313 30.9724 1.38408 29.6784 0.848664C28.3365 0.291269 26.8974 0.00596215 25.4444 0.00930641C23.4059 0.00930641 21.4171 0.567499 19.6888 1.62186C19.2753 1.87408 18.8825 2.15111 18.5104 2.45295C18.1382 2.15111 17.7454 1.87408 17.332 1.62186C15.6036 0.567499 13.6148 0.00930641 11.5764 0.00930641C10.1085 0.00930641 8.68617 0.290471 7.34238 0.848664C6.04406 1.38618 4.87392 2.15938 3.86917 3.14346C2.86855 4.11977 2.06922 5.28294 1.51649 6.56704C0.941762 7.90257 0.648193 9.32079 0.648193 10.7804C0.648193 12.1572 0.929357 13.592 1.48755 15.0516C1.95478 16.2713 2.62461 17.5366 3.48051 18.8142C4.83671 20.8361 6.70149 22.9448 9.01695 25.0825C12.854 28.626 16.6539 31.0738 16.8151 31.173L17.7951 31.8015C18.2292 32.0785 18.7874 32.0785 19.2216 31.8015L20.2015 31.173C20.3627 31.0697 24.1585 28.626 27.9997 25.0825C30.3151 22.9448 32.1799 20.8361 33.5361 18.8142C34.392 17.5366 35.066 16.2713 35.5291 15.0516C36.0873 13.592 36.3684 12.1572 36.3684 10.7804C36.3726 9.32079 36.079 7.90257 35.5043 6.56704V6.56704ZM18.5104 28.5309C18.5104 28.5309 3.79061 19.0995 3.79061 10.7804C3.79061 6.56704 7.27622 3.15173 11.5764 3.15173C14.5989 3.15173 17.2203 4.83871 18.5104 7.30303C19.8004 4.83871 22.4219 3.15173 25.4444 3.15173C29.7445 3.15173 33.2301 6.56704 33.2301 10.7804C33.2301 19.0995 18.5104 28.5309 18.5104 28.5309Z" fill="#53B175"/>
<path d="M25.4445 3.15161C22.422 3.15161 19.8006 4.83859 18.5105 7.30291C17.2205 4.83859 14.599 3.15161 11.5765 3.15161C7.27638 3.15161 3.79077 6.56693 3.79077 10.7802C3.79077 19.0994 18.5105 28.5308 18.5105 28.5308C18.5105 28.5308 33.2303 19.0994 33.2303 10.7802C33.2303 6.56693 29.7447 3.15161 25.4445 3.15161Z" fill="#DDFAE8"/>
</svg>
