<svg width="106" height="66" viewBox="0 0 106 66" fill="none" xmlns="http://www.w3.org/2000/svg">
<path d="M67.1489 59.0198H38.8545V7.91732H67.1489V59.0198Z" fill="#F1511B"/>
<path d="M40.6512 33.4685C40.6512 23.101 45.481 13.868 53.002 7.9171C47.5017 3.56508 40.561 0.968507 33.018 0.968507C15.1603 0.968507 0.683594 15.5191 0.683594 33.4685C0.683594 51.4172 15.1603 65.9685 33.018 65.9685C40.561 65.9685 47.5017 63.3719 53.002 59.0196C45.481 53.0686 40.6512 43.8353 40.6512 33.4685Z" fill="#E71B25"/>
<path d="M105.32 33.4685C105.32 51.4172 90.8432 65.9685 72.9861 65.9685C65.443 65.9685 58.5027 63.3719 53.0024 59.0196C60.5231 53.0686 65.3525 43.8353 65.3525 33.4685C65.3525 23.101 60.5231 13.868 53.0024 7.9171C58.5027 3.56508 65.443 0.968507 72.9861 0.968507C90.8432 0.968507 105.32 15.5191 105.32 33.4685Z" fill="#F79410"/>
<path d="M104.31 53.6072V52.3458H103.982L103.605 53.2133L103.229 52.3458H102.901V53.6072H103.132V52.6561L103.486 53.476H103.725L104.079 52.6537V53.6072H104.31ZM102.234 53.6072V52.5609H102.655V52.3486H101.585V52.5609H102.005V53.6072H102.234Z" fill="#231F20"/>
</svg>
