<svg width="129" height="81" viewBox="0 0 129 81" fill="none" xmlns="http://www.w3.org/2000/svg">
<path d="M64.9854 56.4556C69.2288 56.4556 73.2985 54.7699 76.2991 51.7693C79.2996 48.7687 80.9854 44.699 80.9854 40.4556C80.9854 36.2121 79.2996 32.1424 76.2991 29.1419C73.2985 26.1413 69.2288 24.4556 64.9854 24.4556C60.7419 24.4556 56.6722 26.1413 53.6716 29.1419C50.6711 32.1424 48.9854 36.2121 48.9854 40.4556C48.9854 44.699 50.6711 48.7687 53.6716 51.7693C56.6722 54.7699 60.7419 56.4556 64.9854 56.4556Z" fill="#53B175"/>
<path d="M0.985352 8.45508C0.985352 6.33335 1.82821 4.29851 3.3285 2.79822C4.82879 1.29793 6.86362 0.455078 8.98535 0.455078H120.985C123.107 0.455078 125.142 1.29793 126.642 2.79822C128.143 4.29851 128.985 6.33335 128.985 8.45508V72.4551C128.985 74.5768 128.143 76.6116 126.642 78.1119C125.142 79.6122 123.107 80.4551 120.985 80.4551H8.98535C6.86362 80.4551 4.82879 79.6122 3.3285 78.1119C1.82821 76.6116 0.985352 74.5768 0.985352 72.4551V8.45508ZM24.9854 8.45508C24.9854 12.6985 23.2996 16.7682 20.2991 19.7688C17.2985 22.7694 13.2288 24.4551 8.98535 24.4551V56.4551C13.2288 56.4551 17.2985 58.1408 20.2991 61.1414C23.2996 64.142 24.9854 68.2116 24.9854 72.4551H104.985C104.985 68.2116 106.671 64.142 109.672 61.1414C112.672 58.1408 116.742 56.4551 120.985 56.4551V24.4551C116.742 24.4551 112.672 22.7694 109.672 19.7688C106.671 16.7682 104.985 12.6985 104.985 8.45508H24.9854Z" fill="#53B175"/>
</svg>
