<svg width="122" height="36" viewBox="0 0 122 36" fill="none" xmlns="http://www.w3.org/2000/svg">
<path d="M47.2571 35.0153L53.0352 1.10821H62.2771L56.4948 35.0153H47.2571V35.0153ZM89.8852 1.83915C88.0546 1.15221 85.1852 0.415039 81.6022 0.415039C72.4697 0.415039 66.0373 5.01387 65.9822 11.6049C65.9308 16.4771 70.5748 19.1952 74.0804 20.817C77.6781 22.4794 78.8872 23.5391 78.8699 25.0229C78.8469 27.2959 75.9971 28.3338 73.3404 28.3338C69.6416 28.3338 67.6764 27.8199 64.6411 26.5544L63.4498 26.0156L62.153 33.6059C64.3116 34.5528 68.3032 35.3724 72.4481 35.415C82.1633 35.415 88.4701 30.8687 88.5418 23.8301C88.5763 19.9727 86.1141 17.0377 80.7819 14.6175C77.5516 13.049 75.5732 12.0023 75.5942 10.414C75.5942 9.00456 77.2688 7.49749 80.8874 7.49749C83.9092 7.45055 86.0989 8.1096 87.8046 8.79654L88.6327 9.18782L89.8852 1.83915V1.83915ZM113.668 1.10769H106.527C104.315 1.10769 102.659 1.7115 101.688 3.91954L87.9617 34.9929H97.6667C97.6667 34.9929 99.2531 30.815 99.612 29.8975C100.673 29.8975 110.101 29.9121 111.448 29.9121C111.725 31.0992 112.573 34.9929 112.573 34.9929H121.149L113.668 1.10666V1.10769ZM102.338 23.0028C103.102 21.0492 106.02 13.5242 106.02 13.5242C105.966 13.6145 106.779 11.5611 107.245 10.288L107.87 13.2114C107.87 13.2114 109.639 21.3052 110.009 23.0023H102.338V23.0028V23.0028ZM39.4114 1.10769L30.3632 24.2309L29.3993 19.5319C27.7147 14.115 22.4667 8.24626 16.5996 5.30815L24.8732 34.9612L34.6516 34.9503L49.2017 1.10735L39.4114 1.10718" fill="#0E4595"/>
<path d="M16.4152 1.16138H0.326743L0.199219 1.92297C12.7158 4.95288 20.9976 12.2751 24.4363 21.074L20.938 4.25281C20.3342 1.93493 18.5825 1.24309 16.4155 1.16231" fill="#F2AE14"/>
</svg>
