<svg width="223" height="65" viewBox="0 0 223 65" fill="none" xmlns="http://www.w3.org/2000/svg">
<path d="M40.777 49.0737V14.5123L26.5016 40.7407H21.9936L7.64995 14.5123V49.0737H0V0.578491H8.19637L24.2476 30.222L40.2988 0.578491H48.4952V49.0737H40.777Z" fill="#05220E"/>
<path d="M59.7049 57.475C60.3879 57.6116 61.0482 57.7254 61.6857 57.8165C62.3687 57.9076 62.9152 57.9531 63.325 57.9531C64.0991 57.9531 64.7593 57.7027 65.3058 57.2018C65.8977 56.7464 66.4897 55.8812 67.0816 54.6062C67.6736 53.3313 68.4022 51.4871 69.2673 49.0737L54.5822 13.3512H62.437L73.3655 41.4237L83.0646 13.3512H90.3047L74.1169 57.3384C73.3883 59.3419 72.1133 61.0495 70.2919 62.4611C68.516 63.8727 66.2165 64.5785 63.3933 64.5785C62.8469 64.5785 62.2777 64.533 61.6857 64.4419C61.0937 64.3508 60.4335 64.2142 59.7049 64.0321V57.475Z" fill="#05220E"/>
<path d="M121.321 25.5206C123.621 25.5206 125.442 26.1923 126.785 27.5356C128.129 28.8561 128.8 30.8483 128.8 33.5121V43.9625H124.531V34.0585C124.531 32.4648 124.178 31.2695 123.473 30.4726C122.767 29.653 121.754 29.2431 120.433 29.2431C118.999 29.2431 117.849 29.7213 116.984 30.6775C116.119 31.611 115.686 32.9543 115.686 34.7074V43.9625H111.417V34.0585C111.417 32.4648 111.064 31.2695 110.358 30.4726C109.653 29.653 108.64 29.2431 107.319 29.2431C105.862 29.2431 104.701 29.7099 103.836 30.6434C102.993 31.5768 102.572 32.9315 102.572 34.7074V43.9625H98.303V25.7255H102.367V28.0478C103.05 27.2282 103.904 26.6021 104.928 26.1695C105.953 25.7369 107.091 25.5206 108.344 25.5206C109.71 25.5206 110.916 25.7825 111.964 26.3061C113.034 26.807 113.876 27.5583 114.491 28.5601C115.242 27.6039 116.21 26.8639 117.394 26.3403C118.578 25.7938 119.887 25.5206 121.321 25.5206Z" fill="#53B175"/>
<path d="M141.222 25.5206C143.909 25.5206 145.958 26.1695 147.37 27.4673C148.804 28.7423 149.521 30.6775 149.521 33.273V43.9625H145.491V41.7426C144.968 42.5395 144.216 43.1542 143.237 43.5868C142.281 43.9966 141.12 44.2015 139.754 44.2015C138.388 44.2015 137.193 43.9738 136.168 43.5185C135.143 43.0404 134.347 42.3915 133.777 41.5719C133.231 40.7294 132.958 39.7846 132.958 38.7373C132.958 37.098 133.561 35.7889 134.768 34.8098C135.997 33.8081 137.921 33.3072 140.539 33.3072H145.252V33.034C145.252 31.759 144.865 30.78 144.091 30.0969C143.34 29.4139 142.213 29.0724 140.71 29.0724C139.686 29.0724 138.672 29.2318 137.671 29.5505C136.692 29.8693 135.861 30.3132 135.178 30.8824L133.504 27.7746C134.46 27.0461 135.61 26.4883 136.953 26.1012C138.297 25.7141 139.72 25.5206 141.222 25.5206ZM140.642 41.0937C141.712 41.0937 142.657 40.8547 143.476 40.3765C144.319 39.8757 144.911 39.1699 145.252 38.2592V36.1418H140.847C138.388 36.1418 137.158 36.95 137.158 38.5665C137.158 39.3406 137.466 39.9553 138.08 40.4107C138.695 40.8661 139.549 41.0937 140.642 41.0937Z" fill="#53B175"/>
<path d="M159.064 28.3894C160.293 26.4769 162.456 25.5206 165.553 25.5206V29.5847C165.188 29.5164 164.858 29.4822 164.562 29.4822C162.9 29.4822 161.603 29.9717 160.669 30.9507C159.736 31.907 159.269 33.2958 159.269 35.1172V43.9625H155V25.7255H159.064V28.3894Z" fill="#53B175"/>
<path d="M176.619 36.1418L173.443 39.1471V43.9625H169.174V18.622H173.443V33.9219L182.288 25.7255H187.411L179.795 33.3755L188.128 43.9625H182.937L176.619 36.1418Z" fill="#53B175"/>
<path d="M207.263 34.9465C207.263 35.2424 207.24 35.6636 207.194 36.2101H192.885C193.135 37.5534 193.784 38.6234 194.832 39.4203C195.902 40.1944 197.222 40.5815 198.793 40.5815C200.797 40.5815 202.447 39.9212 203.745 38.6007L206.033 41.2303C205.214 42.2093 204.178 42.9493 202.925 43.4502C201.673 43.9511 200.262 44.2015 198.691 44.2015C196.687 44.2015 194.923 43.8031 193.397 43.0062C191.872 42.2093 190.688 41.1051 189.845 39.6935C189.026 38.2592 188.616 36.6426 188.616 34.844C188.616 33.0681 189.014 31.4744 189.811 30.0628C190.631 28.6284 191.758 27.5128 193.192 26.7159C194.627 25.9191 196.243 25.5206 198.042 25.5206C199.818 25.5206 201.4 25.9191 202.789 26.7159C204.2 27.49 205.293 28.5943 206.067 30.0286C206.864 31.4402 207.263 33.0795 207.263 34.9465ZM198.042 28.9358C196.676 28.9358 195.515 29.3456 194.558 30.1652C193.625 30.9621 193.056 32.0322 192.851 33.3755H203.199C203.017 32.055 202.459 30.9849 201.525 30.1652C200.592 29.3456 199.431 28.9358 198.042 28.9358Z" fill="#53B175"/>
<path d="M222.326 42.9721C221.825 43.3819 221.21 43.6892 220.482 43.8942C219.776 44.0991 219.025 44.2015 218.228 44.2015C216.224 44.2015 214.676 43.6779 213.583 42.6306C212.49 41.5832 211.944 40.0578 211.944 38.0542V29.2773H208.939V25.8621H211.944V21.6956H216.213V25.8621H221.096V29.2773H216.213V37.9518C216.213 38.8397 216.429 39.5228 216.862 40.0009C217.294 40.4562 217.92 40.6839 218.74 40.6839C219.696 40.6839 220.493 40.4335 221.131 39.9326L222.326 42.9721Z" fill="#53B175"/>
</svg>
