<svg width="452" height="131" viewBox="0 0 452 131" fill="none" xmlns="http://www.w3.org/2000/svg">
<path d="M82.9099 98.8218V28.5696L53.8927 81.8835H44.7294L15.5733 28.5696V98.8218H0.0234375V0.246582H16.684L49.3111 60.5024L81.9381 0.246582H98.5987V98.8218H82.9099Z" fill="white"/>
<path d="M121.384 115.899C122.773 116.177 124.115 116.408 125.411 116.593C126.799 116.778 127.91 116.871 128.743 116.871C130.316 116.871 131.658 116.362 132.769 115.344C133.972 114.418 135.176 112.659 136.379 110.068C137.582 107.476 139.063 103.727 140.822 98.8218L110.972 26.2094H126.938L149.152 83.2719L168.867 26.2094H183.584L150.679 115.621C149.198 119.694 146.607 123.165 142.904 126.034C139.295 128.903 134.62 130.338 128.882 130.338C127.771 130.338 126.614 130.246 125.411 130.06C124.207 129.875 122.865 129.598 121.384 129.227V115.899Z" fill="white"/>
<path d="M246.63 50.946C251.305 50.946 255.007 52.3113 257.737 55.0417C260.468 57.726 261.833 61.7754 261.833 67.1901V88.4324H253.156V68.3008C253.156 65.0613 252.438 62.6316 251.004 61.0118C249.569 59.3457 247.51 58.5127 244.825 58.5127C241.91 58.5127 239.573 59.4846 237.814 61.4283C236.055 63.3258 235.176 66.0563 235.176 69.6198V88.4324H226.499V68.3008C226.499 65.0613 225.781 62.6316 224.347 61.0118C222.912 59.3457 220.853 58.5127 218.168 58.5127C215.207 58.5127 212.846 59.4614 211.088 61.3589C209.375 63.2564 208.519 66.01 208.519 69.6198V88.4324H199.842V51.3625H208.103V56.083C209.491 54.417 211.227 53.1443 213.309 52.265C215.392 51.3857 217.706 50.946 220.251 50.946C223.028 50.946 225.481 51.4782 227.609 52.5427C229.785 53.5608 231.497 55.088 232.746 57.1243C234.274 55.1806 236.241 53.6765 238.647 52.6121C241.054 51.5014 243.715 50.946 246.63 50.946Z" fill="white"/>
<path d="M287.083 50.946C292.544 50.946 296.709 52.265 299.579 54.9029C302.494 57.4946 303.952 61.4283 303.952 66.7042V88.4324H295.761V83.9201C294.696 85.5399 293.169 86.7895 291.179 87.6688C289.235 88.5018 286.875 88.9183 284.098 88.9183C281.321 88.9183 278.892 88.4555 276.809 87.5299C274.727 86.5581 273.107 85.2391 271.95 83.573C270.839 81.8607 270.284 79.9401 270.284 77.8112C270.284 74.4791 271.51 71.8181 273.963 69.828C276.462 67.7917 280.373 66.7736 285.695 66.7736H295.275V66.2182C295.275 63.6266 294.488 61.6366 292.914 60.2482C291.387 58.8598 289.096 58.1656 286.042 58.1656C283.959 58.1656 281.9 58.4896 279.864 59.1375C277.874 59.7854 276.184 60.6878 274.796 61.8448L271.395 55.5277C273.338 54.0467 275.675 52.9129 278.406 52.1261C281.136 51.3394 284.029 50.946 287.083 50.946ZM285.903 82.6012C288.078 82.6012 289.999 82.1152 291.665 81.1434C293.377 80.1252 294.581 78.6906 295.275 76.8394V72.5354H286.32C281.321 72.5354 278.822 74.1783 278.822 77.4641C278.822 79.0376 279.447 80.2872 280.697 81.2128C281.946 82.1384 283.682 82.6012 285.903 82.6012Z" fill="white"/>
<path d="M323.349 56.7772C325.848 52.8898 330.245 50.946 336.539 50.946V59.2069C335.799 59.0681 335.127 58.9986 334.526 58.9986C331.147 58.9986 328.51 59.9937 326.612 61.9837C324.715 63.9274 323.766 66.7504 323.766 70.4528V88.4324H315.088V51.3625H323.349V56.7772Z" fill="white"/>
<path d="M359.034 72.5354L352.578 78.6443V88.4324H343.9V36.9233H352.578V68.0231L370.557 51.3625H380.97L365.49 66.9124L382.428 88.4324H371.876L359.034 72.5354Z" fill="white"/>
<path d="M421.322 70.1057C421.322 70.7073 421.276 71.5635 421.183 72.6742H392.097C392.606 75.4047 393.925 77.5798 396.053 79.1996C398.229 80.7731 400.913 81.5599 404.106 81.5599C408.179 81.5599 411.534 80.2178 414.172 77.5336L418.823 82.8788C417.157 84.8689 415.051 86.3729 412.506 87.3911C409.96 88.4092 407.091 88.9183 403.898 88.9183C399.825 88.9183 396.239 88.1084 393.138 86.4886C390.037 84.8689 387.631 82.6243 385.918 79.755C384.252 76.8394 383.419 73.5535 383.419 69.8975C383.419 66.2877 384.229 63.0481 385.849 60.1788C387.515 57.2632 389.806 54.9955 392.721 53.3757C395.637 51.7559 398.923 50.946 402.579 50.946C406.189 50.946 409.405 51.7559 412.228 53.3757C415.097 54.9492 417.319 57.1937 418.892 60.1093C420.512 62.9787 421.322 66.3108 421.322 70.1057ZM402.579 57.8879C399.802 57.8879 397.442 58.721 395.498 60.387C393.601 62.0068 392.444 64.1819 392.027 66.9124H413.061C412.691 64.2282 411.557 62.0531 409.66 60.387C407.762 58.721 405.402 57.8879 402.579 57.8879Z" fill="white"/>
<path d="M451.941 86.4192C450.923 87.2523 449.673 87.877 448.192 88.2935C446.757 88.7101 445.23 88.9183 443.61 88.9183C439.538 88.9183 436.391 87.8539 434.169 85.725C431.948 83.5962 430.837 80.4954 430.837 76.4229V58.5821H424.728V51.6402H430.837V43.1711H439.515V51.6402H449.442V58.5821H439.515V76.2146C439.515 78.0195 439.954 79.4079 440.834 80.3797C441.713 81.3053 442.986 81.7681 444.652 81.7681C446.596 81.7681 448.215 81.2591 449.511 80.2409L451.941 86.4192Z" fill="white"/>
</svg>
